<?xml version="1.0" standalone="no"?>
<!DOCTYPE svg PUBLIC "-//W3C//DTD SVG 20010904//EN"
 "http://www.w3.org/TR/2001/REC-SVG-20010904/DTD/svg10.dtd">
<svg version="1.0" xmlns="http://www.w3.org/2000/svg"
 width="1133.000000pt" height="1280.000000pt" viewBox="0 0 1133.000000 1280.000000"
 preserveAspectRatio="xMidYMid meet">
<metadata>
Created by potrace 1.15, written by Peter Selinger 2001-2017
</metadata>
<g transform="translate(0.000000,1280.000000) scale(0.100000,-0.100000)"
fill="#000000" stroke="none">
<path d="M9100 12794 c-105 -13 -263 -49 -375 -85 -233 -74 -371 -137 -1005
-461 -380 -194 -508 -251 -674 -299 l-98 -29 -111 -102 c-305 -284 -546 -594
-1112 -1433 -207 -307 -359 -520 -446 -622 l-27 -32 -104 107 c-221 229 -399
459 -719 929 -303 445 -403 588 -499 718 -292 393 -557 664 -836 851 -92 62
-386 214 -413 214 -22 0 -287 -79 -423 -126 -555 -193 -1075 -467 -1478 -780
-151 -117 -376 -342 -476 -476 -419 -561 -402 -1146 48 -1683 41 -49 118 -131
169 -182 52 -50 121 -129 154 -175 148 -207 398 -501 645 -763 68 -71 320
-330 560 -575 240 -245 493 -506 561 -580 456 -492 727 -880 873 -1246 l36
-92 -41 -98 c-181 -437 -495 -979 -830 -1432 -383 -517 -806 -991 -1612 -1808
l-287 -291 41 -129 c145 -453 375 -725 734 -867 157 -62 271 -81 495 -81 278
0 489 37 814 145 656 218 1558 762 2249 1357 98 84 98 84 168 224 102 203 173
312 259 399 110 110 160 119 269 50 26 -17 81 -66 122 -108 134 -138 233 -282
514 -738 264 -430 444 -692 551 -805 25 -27 41 -61 67 -145 194 -628 565
-1082 1088 -1335 527 -254 1153 -277 1764 -66 454 156 850 430 1143 788 247
304 440 749 468 1082 l7 72 -118 184 c-399 623 -798 1185 -1598 2243 -1182
1566 -1453 1944 -1955 2728 -23 36 -42 75 -42 86 0 36 78 279 143 443 33 85
106 247 163 360 202 402 427 749 980 1510 539 741 743 1056 954 1475 163 321
277 622 345 905 l28 116 -63 99 c-191 302 -402 466 -685 536 -79 20 -305 33
-385 23z"/>
</g>
</svg>
