<?xml version="1.0" standalone="no"?>
<!DOCTYPE svg PUBLIC "-//W3C//DTD SVG 20010904//EN"
 "http://www.w3.org/TR/2001/REC-SVG-20010904/DTD/svg10.dtd">
<svg version="1.0" xmlns="http://www.w3.org/2000/svg"
 width="1280.000000pt" height="987.000000pt" viewBox="0 0 1280.000000 987.000000"
 preserveAspectRatio="xMidYMid meet">
<metadata>
Created by potrace 1.15, written by Peter Selinger 2001-2017
</metadata>
<g transform="translate(0.000000,987.000000) scale(0.100000,-0.100000)"
fill="#5DA5A2" stroke="none">
<path d="M7725 9860 c-325 -20 -478 -32 -560 -45 -49 -7 -144 -21 -210 -30
-451 -60 -949 -174 -1366 -311 l-137 -45 -113 30 c-666 177 -1550 284 -1860
225 -165 -31 -312 -107 -346 -179 -24 -50 -5 -105 56 -164 62 -60 118 -89 281
-146 219 -76 324 -136 414 -236 51 -56 94 -138 101 -190 l5 -34 -162 -105
c-864 -559 -1425 -1121 -1888 -1891 -99 -164 -355 -671 -440 -869 -242 -565
-397 -1172 -440 -1715 -14 -180 -32 -278 -61 -339 -30 -64 -112 -152 -279
-296 -398 -345 -603 -636 -686 -976 -32 -129 -39 -278 -14 -294 29 -18 106
-23 175 -11 106 18 214 67 504 230 307 172 412 225 560 286 190 78 305 99 411
74 25 -5 132 -51 239 -102 273 -128 341 -194 360 -347 5 -40 14 -77 19 -82 7
-7 22 -3 46 11 144 90 262 465 234 749 -20 213 -101 332 -370 542 -148 115
-182 159 -182 233 -1 32 7 67 19 92 12 25 176 198 435 459 535 539 730 718
1020 935 439 329 1011 640 1604 876 194 77 569 216 573 212 10 -11 -95 -469
-143 -620 -13 -43 -24 -97 -24 -121 0 -78 61 -127 158 -127 48 0 72 7 157 50
198 98 398 245 599 440 65 64 116 107 112 96 -22 -60 -37 -155 -32 -194 10
-72 50 -129 109 -157 93 -43 204 -26 382 60 238 114 410 260 591 503 79 106
182 276 239 396 l42 88 169 68 c387 156 718 328 1059 551 l150 98 190 21 c393
44 816 133 1340 282 215 62 269 85 326 141 59 60 77 153 41 213 l-19 30 43 48
c49 55 74 119 74 194 0 99 -58 171 -160 198 -84 22 -450 48 -585 42 -219 -11
-479 -26 -552 -32 l-72 -7 -11 44 c-29 112 -88 265 -150 393 -113 232 -218
372 -384 511 -192 161 -364 221 -706 244 -162 11 -701 11 -885 0z"/>
<path d="M11310 5393 c-204 -21 -500 -117 -597 -193 -20 -16 -28 -16 -80 -4
-159 37 -645 51 -868 26 -523 -60 -1104 -236 -1370 -415 -234 -158 -387 -425
-402 -704 -9 -151 28 -295 92 -363 39 -42 75 -102 75 -124 0 -41 -23 -57 -101
-71 -102 -17 -171 -49 -218 -100 -93 -101 -74 -229 43 -295 28 -16 69 -32 92
-36 l41 -6 -5 -43 c-10 -93 44 -164 141 -185 45 -11 67 -10 136 4 110 22 232
67 316 117 l69 40 300 -20 c166 -12 392 -26 504 -32 313 -17 455 1 822 103
338 93 419 108 587 108 140 0 239 -17 345 -58 197 -76 514 -345 634 -538 135
-217 150 -458 43 -678 -40 -83 -89 -140 -143 -169 -36 -19 -56 -22 -156 -22
-125 0 -151 8 -450 123 -141 54 -234 72 -378 72 -269 0 -482 -108 -620 -314
-63 -94 -109 -226 -87 -248 4 -3 36 7 73 22 101 43 228 63 347 57 188 -11 296
-55 488 -201 164 -125 236 -160 332 -160 l71 -1 -12 -36 c-14 -39 -6 -95 19
-132 8 -12 49 -57 90 -99 126 -128 176 -261 177 -463 0 -55 -7 -140 -17 -188
-19 -100 -13 -133 28 -156 63 -35 117 17 307 300 150 223 195 313 213 430 17
110 5 297 -30 472 -40 199 -46 256 -31 302 8 23 46 74 98 129 280 299 473 641
537 951 112 541 -53 1123 -462 1630 -99 122 -307 326 -428 419 -49 38 -94 73
-100 78 -13 12 59 83 135 133 82 53 156 81 254 94 80 11 213 52 254 77 61 39
-11 155 -127 206 -143 62 -397 130 -574 153 -106 13 -315 18 -407 8z" fill="#5DA5A2"/>
</g>
</svg>
