<?xml version="1.0" encoding="UTF-8"?>
<svg width="549.38" height="283.12" version="1.1" viewBox="0 0 549.375 283.125" xmlns="http://www.w3.org/2000/svg">
 <path d="m31.567 281.39c2.6087-9.9756-6.6461-15.225-20.317-11.524-8.6377 2.3384-9.2729 1.8199-5.1924-4.2393 5.3543-7.9507 17.888-14.359 29.567-15.116 4.6808-0.30361 7.7281-0.99969 9.1158-2.0822 1.1465-0.89438 4.4641-2.5919 7.3724-3.7723l5.2878-2.1462-2.6314-1.3787-2.6314-1.3787 3.0082-2.6878c1.7095-1.5274 4.1148-2.7039 5.5715-2.725 6.689-0.0971 12.768-0.90468 13.301-1.7669 0.64194-1.0387 7.9274-3.8209 10.005-3.8209 0.70861 0 2.1318-0.84343 3.1627-1.8743 1.738-1.738 2.7947-1.8417 14.531-1.4264 11.612 0.41088 16.397-0.3868 10.079-1.6801-4.0173-0.82231-6.6901-3.1828-4.9219-4.3466 2.1594-1.4213 8.4872-0.11286 12.656 2.6171 2.1667 1.4188 6.356 2.9091 9.922 3.5298 31.7 5.5172 38.756 14.048 19.458 23.523l-13.745 6.7482-4.9462 7.0842c-5.2841 7.5681-7.5965 8.9342-15.143 8.9454-5.2869 7e-3 -4.4337-1.9805 3.0414-7.088 3.6064-2.4641 6.454-4.559 6.3281-4.6553-0.12589-0.0963-2.7601 0.13969-5.8539 0.52441-5.8226 0.72407-13.027 0.58771-26.719-0.50572-7.6833-0.61358-8.1652-0.53244-13.455 2.2655-5.6031 2.9639-12.305 3.9038-12.999 1.8229-0.26886-0.80657-1.9561-0.77776-6.6828 0.1141-7.7254 1.4577-8.4227 0.93388-4.3502-3.2679l3.1667-3.2672h-6.1512c-8.6321 0-9.8631 1.2053-14.778 14.469-3.3999 9.1745-6.5675 14.877-5.0585 9.1066zm6.8702-19.083c0-0.42276 1.3711-2.0529 3.0469-3.6225l3.0469-2.8538 11.719 0.58758c6.4453 0.32317 13.828 0.7232 16.406 0.88898 2.5781 0.16576 10.383 0.58504 17.344 0.93172 6.9609 0.34668 13.986 0.83438 15.611 1.0838 4.9747 0.7634 20.211-1.2615 25.173-3.3454l4.6901-1.9699 1.6513-6.7682c0.90822-3.7225 1.6866-8.8776 1.7298-11.456l0.0786-4.6875 1.2566 6.0938c0.69112 3.3516 1.2826 7.6758 1.3144 9.6094s0.44208 3.5156 0.91175 3.5156c2.1294 0 18.834-8.8298 18.834-9.9554 0-3.8837-25.148-12.575-37.969-13.123l-9.375-0.40037 3.9066 1.6613c2.1486 0.9137 4.1446 1.8995 4.4356 2.1906s-6.0821 1.4617-14.162 2.6012c-12.165 1.7156-17.53 3.035-31.203 7.6738-16.574 5.623-20.197 6.5931-16.064 4.3021 6.3071-3.4966-2.1231-1.9134-9.8377 1.8475-4.5813 2.2334-9.7394 4.0767-11.471 4.0992-10.662 0.13821-25.838 7.2475-31.954 14.969l-2.8852 3.6429 4.3583-1.3116c2.6291-0.79124 6.096-2.9371 8.738-5.4083 4.5498-4.2558 8.3141-6.707 9.0972-5.9239 0.24989 0.24988-1.423 1.746-3.7175 3.3246-4.6741 3.2159-6.2573 5.7479-3.594 5.7479 0.92519 0 2.7049-1.0948 3.955-2.4328 2.707-2.8976 7.429-5.5378 7.429-4.1538 0 0.52887-0.38951 0.96158-0.86557 0.96158-1.504 0-6.6634 4.8197-6.1129 5.7104 0.28963 0.46863 1.3148 0.85205 2.2782 0.85205 2.1869 0 5.5912 4.2204 6.3122 7.8255 0.49065 2.4532 5.888-9.196 5.888-12.708zm25.312-11.829c0.77344-0.4754 5.4141-1.1359 10.312-1.4677 18.444-1.2494 37.271-3.5023 44.062-5.2727 11.674-3.043 11.892-3.0842 10.312-1.9564-4.6093 3.2923-21.899 6.5644-42.188 7.984-20.36 1.4245-23.837 1.5347-22.5 0.71277zm79.375-3.601c-1.3628-1.3628-0.44288-4.6209 1.7566-6.222 4.1073-2.9898 5.6536 0.0344 2.2378 4.3768-1.9883 2.5277-2.8937 2.946-3.9945 1.8452zm4.0327-5.4136c-0.0164-0.54598-0.64922-0.17377-1.4062 0.82712-0.75704 1.0009-1.363 2.2665-1.3466 2.8125 0.0164 0.54598 0.64922 0.17377 1.4062-0.82712 0.75704-1.0009 1.363-2.2665 1.3466-2.8125zm-25.479 27.529c1.5929-0.55528 4.0729-2.5592 5.5112-4.4531l2.6151-3.4435-3.7307 2.9112c-3.7433 2.921-7.9495 5.4396-7.9495 4.76 0-0.78883 11.744-9.5301 12.479-9.2887 0.43169 0.14167 0.50238-0.19949 0.1571-0.75816-0.43791-0.70856-1.132-0.64471-2.2949 0.21114-0.91692 0.67481-4.2256 3.0178-7.3525 5.2067-8.1403 5.6983-7.8954 7.8035 0.56465 4.8543zm-61.974-6.5662c1.4515-0.5573 4.5862-1.1301 6.966-1.2729 2.3798-0.14278 4.8055-0.55545 5.3906-0.91704 0.58508-0.36161 1.0638-0.19709 1.0638 0.36558s-0.94922 1.4046-2.1094 1.8709l-2.1094 0.84786 2.1467 0.0594c2.0006 0.0554 9.572-3.2216 9.572-4.1429 0-0.22782-4.411-0.39375-9.8023-0.36873-5.3912 0.025-10.178-0.18688-10.638-0.4709-0.45954-0.28401-2.0337 0.73424-3.4981 2.2628-2.9185 3.0462-1.8878 3.6493 3.0178 1.7659zm79.917-13.284c-0.0552-2.5533-0.1964-2.7431-0.8716-1.1719-1.113 2.59-1.113 4.2188 0 4.2188 0.51562 0 0.90785-1.3711 0.8716-3.0469zm-61.809-10.247c13.52-4.7232 14.953-5.076 28.125-6.9224 12.677-1.777 12.745-1.808 6.7586-3.0918-9.2616-1.9863-24.571-2.4678-24.571-0.77279 0 1.331-7.4187 4.3931-10.643 4.3931-0.51034 0-1.5982 0.60664-2.4175 1.3481-0.88521 0.8011-4.484 1.5754-8.8695 1.9083-7.029 0.53355-10.905 1.6412-10.863 3.1048 0.03158 1.1254 8.7933 4.7512 10.294 4.2598 0.77344-0.25332 6.2578-2.1555 12.188-4.2271zm43.125-14.408c0-0.9224-7.9088-4.1312-10.234-4.1523-3.2473-0.0295-1.6627 1.144 3.9624 2.9344 5.6303 1.7921 6.272 1.9167 6.272 1.218zm184.42-4.901c-3.4528-2.1363-3.0002-4.9044 1.1397-6.9709 1.9973-0.99693 2.7078-1.7513 1.875-1.9907-6.2011-1.7828-14.732-2.8663-20.794-2.641-4.1589 0.1545-7.2656-0.11134-7.2656-0.62174 0-0.4904-2.741-1.0662-6.0911-1.2795-8.0379-0.51181-9.391-1.8807-4.3839-4.4351 2.0958-1.0692 4.0312-1.5869 4.3009-1.1506 0.26971 0.43639-0.65655 1.3254-2.0584 1.9755l-2.5487 1.182 2.3438 0.90014c1.2891 0.49508 3.9963 0.6414 6.0161 0.32518 2.2824-0.35736 3.9164-0.18014 4.317 0.46821 0.3546 0.57375 1.9743 0.90641 3.5992 0.73926 3.5158-0.36166-21.972-12.023-26.278-12.023-4.5774 0-4.9458 7.3061-0.56996 11.303 3.3894 3.0957 2.2902 3.7892-1.4022 0.88465-1.311-1.0312-2.739-1.8779-3.1733-1.8814-3.4967-0.0284-8.6175-14.572-10.119-28.738-0.17274-1.6299-0.76374-4.3721-1.3133-6.0938-1.685-5.2781-1.7571-18.599-0.10069-18.599 0.5491 0 0.87925 1.6307 0.75534 3.7308-0.28317 4.7992 6.1912 17.907 11.317 22.913 4.6071 4.4987 8.9045 5.1541 18.871 2.8779l7.3785-1.6852-2.027-2.8466c-1.1148-1.5656-2.323-4.7702-2.6849-7.1212-0.36183-2.351-0.95791-5.2238-1.3246-6.384-0.92324-2.9209 1.8223-2.819 6.3158 0.23438 3.6466 2.4779 6.3611 3.0347 6.3611 1.3046 0-0.60603 0.87918-0.82334 2.1094-0.52138 1.1602 0.28477 5.715 0.59953 10.122 0.69948 16.415 0.37228 20.844 1.4892 39.8 10.037 20.122 9.0734 33.76 16.596 33.639 18.554-0.58474 9.5074-7.0421 13.852-25.132 16.908-13.723 2.3184-20.217-8.4521-12.023-19.94 2.4439-3.4262 2.5154-3.722 0.9375-3.8757-14.816-1.4432-16.178-1.3781-26.028 1.2431-13.086 3.4825-19.738 3.3517-40.139-0.78961-14.996-3.044-19.839-4.4018-15.703-4.4018 1.1591 0 0.2011-1.4567-3.2368-4.9219-2.6857-2.707-5.6973-6.6094-6.6924-8.6719l-1.8093-3.75 0.60993 3.2812c0.33546 1.8047 1.3943 5.0904 2.353 7.3015 1.3321 3.0724 1.5241 4.5962 0.81429 6.4632-1.0291 2.7068 0.52401 9.1417 1.9881 8.2369 0.45895-0.28365 1.0956 0.66169 1.4149 2.1007 0.31924 1.4391 1.0196 4.0557 1.5564 5.8147l0.97597 3.1983 1.3738-4.1358c0.75562-2.2747 1.6496-4.4242 1.9867-4.7767 1.2959-1.3553 13.071 1.7645 17.919 4.7477 14.584 8.9737 25.136 11.84 43.397 11.79 14.107-0.039 18.445 0.60466 11.582 1.7184-1.751 0.28416-5.6534 2.397-8.6719 4.6951-7.9821 6.0772-11.539 7.1302-15.599 4.618zm9.2227-2.1081c2.1572-1.0443 4.7161-2.8081 5.6866-3.9197 1.3529-1.5495 0.30276-1.2134-4.5014 1.441-3.4463 1.9041-6.5002 3.0829-6.7866 2.6196-0.68265-1.1045 0.98123-2.4236 6.0752-4.816 4.038-1.8965 4.0649-1.9369 0.88354-1.3268-7.5041 1.4392-11.956 4.9751-8.6719 6.8879 2.2895 1.3335 2.8762 1.2624 7.3145-0.88606zm24.629-11.929c-1.9217-3.6735-1.8689-11.699 0.0899-13.658 0.5896-0.5896 0.74563 0.59249 0.44229 3.351-1.6922 15.388 27.131 16.851 31.2 1.5839 2.5123-9.4261-30.963-23.299-53.521-22.181-14.838 0.73542-50.407 7.7304-47.728 9.3863 7.0976 4.3866 30.004 4.9865 42.495 1.1129 8.6308-2.6765 20.196-2.8824 25.447-0.45304l2.4782 1.1464-2.4001 5.2425c-2.7846 6.0824-3.0992 12.083-0.81598 15.567 2.6179 3.9954 4.5073 3.0982 2.3121-1.098zm14.272-7.214c-1.927-2.322-0.8443-5.6766 1.8322-5.6766 1.7335 0 2.4235 0.56262 2.6501 2.161 0.29715 2.0961-1.2124 4.8703-2.6501 4.8703-0.38935 0-1.2138-0.60959-1.8322-1.3546zm-106.59-19.78c-0.30533-0.79568-0.75621-1.2456-1.002-0.99988-0.24575 0.24575-0.16873 0.89676 0.17114 1.4467 0.92442 1.4957 1.4647 1.2052 0.83081-0.44681zm41.864-2.3033c1.2144-0.78478 1.1917-0.91074-0.16613-0.92315-2.1215-0.0194-7.3339-6.4878-7.3339-9.1012 0-1.7553-2.3232-4.0381-4.1096-4.0381-0.26556 0 1.1833 2.9402 3.2196 6.5338 4.6435 8.1944 4.5425 11.089-0.12004 3.4421-1.2615-2.0689-1.7966-2.444-1.799-1.2614-8e-3 4.1718 6.7242 7.6647 10.309 5.348zm3.5156-2.4112c-1.418-0.76927-2.5781-1.8071-2.5781-2.3062 0-1.2771 0.64479-1.1424 3.5096 0.73306 2.0976 1.3732 4.0404 1.57 11.92 1.2073 5.1777-0.23835 13.633-0.39427 18.789-0.34648 6.9145 0.0641 8.7599-0.14918 7.0312-0.81253-5.5111-2.1149-16.981-4.4664-24.375-4.9972-4.3828-0.31464-10.026-0.97169-12.541-1.4601-3.0627-0.5948-4.9598-0.56663-5.7453 0.0853-0.79267 0.65785-1.9695 0.67046-3.6306 0.0389-1.3518-0.51395-2.4578-0.67828-2.4578-0.36518 0 1.8291 4.2112 6.8774 6.8027 8.155 3.8386 1.8924 6.7496 1.9529 3.2754 0.0682zm189.57 7.5174c-1.209-1.4568 0.96567-6.2942 3.5572-7.9125 1.2379-0.77301-0.43071-0.93739-6.7969-0.66961-8.5798 0.36089-15.631-0.83964-19.512-3.3221-1.1279-0.72147-3.3163-1.2113-4.8632-1.0885-9.319 0.73965-11.152 0.6812-11.501-0.36683-0.25011-0.7503-2.9481-1.1216-8.1497-1.1216-9.6918 0-11.515-1.3418-7.1305-5.2483 4.1252-3.6755 2.3806-6.2835-7.9752-11.922-0.55356-0.30142-3.0848 0.95702-5.625 2.7965-9.8969 7.167-19.624 9.6176-28.906 7.2826l-2.7251-0.68552 3.6626-3.2506c10.035-8.9064 14.326-13.309 13.48-13.832-2.9417-1.8181-11.224-17.774-11.224-21.623 0-1.3024 0.15495-1.3082 1.4101-0.0531 0.77558 0.77558 7.4201 4.4556 14.766 8.178 7.3455 3.7223 14.741 7.8196 16.435 9.1051 2.5942 1.9693 3.4355 2.1749 5.3428 1.3059 1.245-0.56729 5.916-1.5424 10.38-2.1668 7.3451-1.0275 7.9063-1.2463 5.9072-2.3023-2.7424-1.4487-5.9079-6.5898-4.5676-7.4182 0.52382-0.32373 0.95239-0.0902 0.95239 0.51902 0 0.8096 0.33206 0.83203 1.2341 0.0833 0.87675-0.72764 2.2615-0.74058 4.7819-0.0446 3.5879 0.99066 6.9391 0.75843 16.709-1.158 7.2808-1.4281 14.618-0.65868 16.552 1.7358 1.119 1.3856 3.6018 2.1621 9.6964 3.0325 4.5057 0.64349 9.7791 1.9851 11.719 2.9814 1.9396 0.99628 7.3235 2.6762 11.964 3.733 4.6406 1.0569 11.712 2.6632 15.714 3.5695 12.423 2.8135 26.399 14.273 21.272 17.442-0.66293 0.40971-0.5956 1.0744 0.2068 2.0412 1.3366 1.6104-2.1894 5.1119-6.7123 6.6658-14.286 4.908-24.838 6.9479-33.943 6.5618-4.8337-0.20499-5.7132 0.075-9.3075 2.9635-4.7103 3.7853-15.007 6.3527-16.802 4.1895zm15.51-6.9251c0.51562 0.0157-0.96094 1.0452-3.2812 2.2877s-3.6637 2.2781-2.9852 2.3014c3.2382 0.11122 11.235-6.032 8.9786-6.8977-0.79294-0.30428-2.1494-0.20352-3.0144 0.22391s-3.2147 0.86504-5.2216 0.97248c-4.3644 0.23364-6.7383 1.3806-8.0917 3.9095-1.8035 3.3699-0.16276 3.4438 6.3081 0.28431 3.5035-1.7106 6.7919-3.0974 7.3075-3.0816zm20.209-2.7722c1.3699-0.54717 1.6897-0.93891 0.79557-0.97444-5.4015-0.21466-6.594-17.021-1.5673-22.091 0.61518-0.6204 0.68647-0.14474 0.21076 1.4062-3.5927 11.713-1.5539 20.522 4.471 19.317 1.4298-0.28596 2.5997-0.10861 2.5997 0.39413 0 0.50273-0.70313 0.91406-1.5625 0.91406s-1.3639 0.19858-1.1212 0.44129c0.81576 0.81576 9.6589-1.2014 16.277-3.713 6.3205-2.3985 10.366-4.9564 9.3865-5.9355-0.25781-0.25782-1.2732 0.25926-2.2564 1.1491-0.98322 0.8898-2.0296 1.2264-2.3253 0.74789-0.2957-0.47846 1.0008-2.2699 2.8812-3.981l3.4189-3.1111-3.6696-3.1721c-5.6809-4.9108-12.847-8.627-19.334-10.026-12.867-2.7756-23.584-5.3028-24.261-5.7209-0.39152-0.24198-0.85361-0.0147-1.0269 0.505-0.21119 0.63359-1.394 0.63551-3.5895 6e-3 -1.801-0.51652-7.0742-0.93634-11.718-0.93293-4.644 4e-3 -11.713-0.49146-15.709-1.0997-7.5256-1.1455-8.5364-1.0631-31.641 2.578-4.8984 0.77199-9.9224 1.8299-11.164 2.351-1.8763 0.78716-3.0652 0.43942-7.0312-2.0566-3.999-2.5167-21.337-11.65-24.461-12.885-0.51562-0.20392 1.156 1.7898 3.7148 4.4304 2.5587 2.6406 4.1788 4.8011 3.6001 4.8011-0.97833 0-5.9336-4.8425-10.553-10.312l-1.9791-2.3438 1.4818 3.7385c1.8138 4.576 6.3817 11.803 8.902 14.084 3.026 2.7385 2.153 0.85959-2.3545-5.0673-5.9532-7.8279-5.2382-8.0053 1.8735-0.46463 6.8951 7.311 6.6438 6.9185 4.4546 6.9583-1.4897 0.0271-1.4745 0.15551 0.16594 1.3966 0.99361 0.75172 1.5312 1.6422 1.1945 1.9788-0.33662 0.33662-1.2408 0.0902-2.0093-0.54757-1.1313-0.93902-13.648 8.0792-13.648 9.8332 0 0.91836 13.794-0.73297 16.382-1.9612 1.8546-0.8801 3.6308-1.3415 3.9469-1.0254 1.5378 1.5378-7.9629 4.3178-14.824 4.3376-7.5106 0.0217-13.41 2.676-6.5577 2.9503 1.61 0.0644 3.4546 0.1853 4.0992 0.26855 5.2697 0.68067 13.59-2.6697 21.087-8.4915 6.2591-4.8603 6.1098-4.842 9.9014-1.2187 9.2191 8.8096 35.895 20.23 49.402 21.149 5.2798 0.35949 6.6323 0.22456 5.4296-0.54163-3.5299-2.2487 1.0586-5.9074 8.8797-7.0802 3.0361-0.45529 4.4408-0.33571 4.4408 0.37802 0 0.57417-0.31641 0.99398-0.70313 0.93292-3.866-0.61042-7.9539 0.41423-10.26 2.5718-1.4467 1.3534-1.992 2.0174-1.2117 1.4756 2.5298-1.7566 10.335-3.3389 11.369-2.3048 0.63803 0.63803-0.7939 1.1648-4.3863 1.6137-3.2514 0.40624-4.9965 1.0035-4.47 1.53 1.1175 1.1175 6.793 1.3415 13.881 0.54788 3.0938-0.34639 5.0338-0.36371 4.3112-0.0385-4.2942 1.9327 12.136 4.1888 16.835 2.3118zm9.3798-13.164c-3.567-3.567-1.5886-6.6175 2.8549-4.4021 1.4542 0.725 2.2437 1.929 2.2437 3.4218 0 3.002-2.5808 3.4981-5.0986 0.98029zm-94.077-12.963c-9.914-1.9984-7.4985-2.9738 3.1452-1.2701 8.0708 1.2919 9.4692 1.2451 24.637-0.82389 23.632-3.2235 41.126-2.534 49.507 1.9514 3.7822 2.0242 0.80951 1.8439-8.198-0.49725-11.53-2.9968-17.183-3.006-37.894-0.0615-18.753 2.6662-21.18 2.7207-31.198 0.7013zm17.614 21.343c1.5469-0.39361 2.1797-0.76762 1.4062-0.83112s-5.6116-2.0118-10.751-4.3297c-10.149-4.5766-10.225-4.6039-9.473-3.3869 0.28121 0.45502-0.31288 1.8751-1.3202 3.1557-2.4823 3.1558-1.7998 3.517 6.6455 3.517 6.6906 0 10.054 1.0271 7.1706 2.1897-1.8264 0.73636 3.1689 0.48774 6.3223-0.31466zm48.646-30.948c-0.52146-0.52146-5.3519-1.7805-10.734-2.7978-7.4262-1.4036-10.096-2.3054-11.072-3.7394-1.5226-2.237-3.9636-2.3525-16.681-0.78959l-8.9517 1.1001 3.1471 1.5942c3.745 1.8971 9.5609 2.6341 28.725 3.6403 7.8803 0.41374 14.595 1.0196 14.922 1.3463 0.32671 0.32672 0.81902 0.59403 1.094 0.59403s0.0733-0.42665-0.44809-0.94809zm-45.364-1.9543c0.77344-0.0636-0.39915-0.47129-2.6057-0.90613-2.2066-0.43483-5.2895-1.7003-6.8509-2.812-2.7879-1.9851-4.461-1.9828-3.2328 5e-3 1.1293 1.8273 7.4964 4.7158 9.4081 4.2682 1.0312-0.24145 2.5078-0.49099 3.2812-0.55453zm-3.75-3.6601c-0.77344-0.49984-2.0391-0.90878-2.8125-0.90878-1.25 0-1.25 0.10096 0 0.90878 0.77344 0.49984 2.0391 0.90878 2.8125 0.90878 1.25 0 1.25-0.10096 0-0.90878zm-236.36-45.605c-0.061-0.44088-0.0757-1.0738-0.0327-1.4065 0.043-0.33271-1.489-0.89609-3.4046-1.2519-1.9156-0.35586-6.5775-1.8455-10.36-3.3102-3.7823-1.4648-7.7725-2.4907-8.8672-2.2799-4.406 0.84853-16.306 0.06514-17.537-1.1545-0.25781-0.25534 0.71493-1.483 2.1616-2.7282l2.6304-2.264h-2.7666c-1.5216 0-5.7408 1.2656-9.3759 2.8125-9.5896 4.0807-11.01 3.3929-5.7364-2.7771 3.9606-4.6336 1.8462-10.293-6.114-16.364-4.5651-3.482-4.1658-4.054 2.2979-3.2919 6.289 0.74153 11.578 3.4885 17.563 9.122 2.1678 2.0404 4.0662 3.5856 4.2188 3.4339 0.15251-0.15174 2.1757-0.53579 4.496-0.85343 9.4444-1.2929 9.7078-1.4098 7.8366-3.4775-3.2138-3.5513 10-4.1761 25.874-1.2235 2.2851 0.42503 2.2771 0.40131-0.1952-0.57801-1.418-0.56168-2.5781-1.4531-2.5781-1.9809 0-0.52782 0.66731-0.7036 1.4829-0.39062 0.8156 0.31298 1.838 0.56905 2.2719 0.56905 0.43395 0 2.659 1.4274 4.9445 3.1719 3.0642 2.339 6.6357 3.796 13.6 5.5485 18.455 4.6437 22.383 8.3603 13.794 13.051-7.365 4.022-11.744 5.0898-32.578 7.9442-1.9336 0.26491-3.5656 0.12094-3.6266-0.31994zm3.6071-0.89925c-0.31153-0.31152-1.1201-0.34483-1.7969-0.07402-0.74787 0.29927-0.52573 0.52142 0.56641 0.56641 0.98827 0.04071 1.542-0.18087 1.2305-0.49239zm7.9988-3.1836c4.0791-2.1863 5.7074-2.4175 3.0916-0.43894-2.1697 1.6411-0.95885 1.815 5.3626 0.77029 3.3731-0.55746 3.4517-0.64931 1.6406-1.9178-2.1094-1.4775-2.6684-8.0433-0.90261-10.601 0.722-1.0458 0.86356-0.49517 0.55225 2.1479-1.0671 9.0601 2.2154 10.639 12.223 5.8807 8.6146-4.0965 8.4197-4.5832-3.3632-8.3991-17.75-5.7484-36.192-7.4069-56.071-5.0427l-10.504 1.2492-4.0272-3.5531c-4.5088-3.9781-11.783-7.7509-16.583-8.6012l-3.1806-0.56338 4.1181 4.0288c5.021 4.9121 10.613 11.915 9.5148 11.915-0.44161 0-1.3092-0.50625-1.9279-1.125-0.875-0.875-1.125-0.78682-1.125 0.39682 0 0.837-1.0922 2.8198-2.4271 4.4062-3.0481 3.6224-2.1562 3.6146 5.6751-0.05013 8.057-3.7703 12.353-3.3639 24.75 2.341 8.4002 3.8657 14.962 6.2348 20.83 7.5202 1.4885 0.3261 3.823-0.18378 6.0576-1.323 3.825-1.9501 8.4481-2.518 7.4581-0.91613-0.31868 0.51562-1.2928 0.95653-2.1647 0.97978-3.0978 0.08263-7.6395 2.6041-4.8527 2.6941 1.2967 0.04188 3.9319-0.76761 5.856-1.7989zm15.38-5.3125c-1.2905-1.2905-0.55674-3.125 1.25-3.125 1.25 0 1.875 0.625 1.875 1.875 0 1.8067-1.8345 2.5405-3.125 1.25zm-46.562-6.875c-13.645-3.3748-11.114-3.5744 4.4924-0.35427 8.8864 1.8336 13.581 2.338 18.476 1.985 3.6094-0.26025 7.6172-0.14288 8.9062 0.26082 7.5744 2.3721-21.647 0.63795-31.875-1.8916zm-20.164-3.9666c-1.027-0.55738-3.4958-2.4652-5.4864-4.2395-1.9905-1.7744-5.0491-3.8236-6.7969-4.5538-1.7477-0.73025-3.1777-1.5387-3.1777-1.7965 0-1.1145 6.8109 2.5217 11.155 5.9553 2.6026 2.0573 5.2708 3.9326 5.9292 4.1674 0.65847 0.23483 0.98276 0.66402 0.72065 0.95375s-1.3168 0.07074-2.3438-0.48664zm11.727 10.558c0-0.49944-0.63281-0.66524-1.4062-0.36845-0.77344 0.2968-1.4062 0.70543-1.4062 0.90808s0.63281 0.36845 1.4062 0.36845 1.4062-0.40864 1.4062-0.90808zm4.3324-1.147c-4.9531-2.7719-10.068-3.4595-11.924-1.6031-2.4503 2.4503-0.34719 3.3204 4.3105 1.7832 3.4582-1.1413 6.6198-0.67208 5.6831 0.84345-0.29121 0.47118 0.36297 0.62332 1.4537 0.33808 1.7153-0.44857 1.7797-0.63247 0.47679-1.3616zm32.884-13.416c-0.10191-0.03297-1.0046-0.67885-2.0059-1.4353-1.1384-0.86-1.5568-0.93624-1.1165-0.20347 0.84283 1.4029-1.0766 1.4877-6.4379 0.28436-9.1079-2.0442-22.633-2.302-20.926-0.39879 1.4079 1.5694 3.1133 1.7581 16.123 1.7841 8.0016 0.01597 14.465 0.0021 14.363-0.03091zm190.6 13.773c-4.5122-0.70506-5.0375-4.7838-1.0913-8.4729l2.6587-2.4855-2.7877-0.20675c-1.5332-0.11372-6.7432-1.9034-11.578-3.9771-13.072-5.607-21.009-7.4472-22.304-5.171-2.7054 4.7571-10.255 8.9237-8.6662 4.7827 0.3975-1.0359-0.18464-1.1329-2.9466-0.49112-7.5554 1.7556-9.2619-0.28775-2.427-2.9062 7.9205-3.0343 8.0232-3.9021 0.39131-3.3043-13.914 1.0898-15.069 1.4222-19.636 5.6518-6.6996 6.2039-27.239 12.21-27.239 7.9658 0-0.51562 0.92311-0.9375 2.0514-0.9375 3.435 0 7.9174-3.8454 10.412-8.9329l2.3666-4.8254-2.6827-1.5847c-1.4755-0.87159-3.558-2.8139-4.6278-4.3163-2.8217-3.9627-11.62-8.7647-15.117-8.2513-2.5408 0.37292-2.6676 0.27393-1.3438-1.0498 5.2026-5.2026 26.317-1.7113 35.594 5.8857l3.8155 3.1242 8.9062-3.744c4.8984-2.0592 10.859-4.3906 13.246-5.1809l4.3394-1.4368-2.6908-2.2641c-3.7065-3.1188-2.3312-6.6627 1.7822-4.5924 5.5276 2.782 10.98 2.6177 10.98-0.331 0-3.7907 18.297-3.027 31.641 1.3207 7.1494 2.3294 19.672 2.7172 18.525 0.57369-2.3128-4.3214 0.26554-5.1294 4.3905-1.3758l2.6304 2.3936-3.1103-1.513c-3.0037-1.4611-3.0773-1.4513-2.1479 0.2852 0.71992 1.3452 2.33 1.9243 6.3916 2.2989 2.9861 0.27538 7.9604 1.6359 11.054 3.0234 3.0938 1.3875 6.3759 2.6771 7.2936 2.8658 0.91774 0.18872 4.4737 3.1071 7.9021 6.4853s6.5799 6.1422 7.0033 6.1422c0.90893 0 1.016 2.9551 0.18542 5.1195-1.7519 4.5653-17.936 8.9938-34.572 9.4602l-12.188 0.34168-2.8125 3.1385c-4.8644 5.4282-8.6952 7.2578-13.594 6.4923zm9.2343-4.8706c2.1399-1.5501 3.903-3.1321 3.9181-3.5156 0.0471-1.1942 5.7013-6.9997 6.2666-6.4344 0.29458 0.29458 2e-3 1.1786-0.65028 1.9645-1.0136 1.2213-0.79469 1.4458 1.507 1.5451 1.4811 0.0639 4.299 0.21993 6.262 0.34672 2.9951 0.19345 3.4566-0.01371 2.8699-1.2881-1.725-3.7465-0.258-10.021 4.1456-17.733 3.3815-5.9215 3.4792-4.2196 0.16451 2.8638-4.0578 8.6713-4.2167 14.043-0.4366 14.758 7.196 1.3618 20.728-2.5106 25.52-7.3031l3.357-3.357-3.6574-3.1356c-12.76-10.94-19.137-13.858-33.533-15.343-10.557-1.0895-12.319-0.74967-4.8175 0.9292 2.8391 0.63537 5.162 1.5468 5.162 2.0255 0 1.1003 0.26402 1.1195-6.7387-0.48859-13.648-3.1341-30.265-2.6612-42.721 1.2157-4.7746 1.486-5.631 1.5293-6.7416 0.34033-1.8467-1.9769-8.4579-0.9361-16.924 2.6643-11.012 4.6833-21.562 8.2832-21.562 7.3573 0-0.46405 0.52734-0.86129 1.1719-0.88275 7.5714-0.25214-13.054-9.8532-22.734-10.583-3.8672-0.29143-6.1875-0.31292-5.1562-0.04776 1.8421 0.47367 24.939 9.7956 25.703 10.374 2.5977 1.9655-2.9245 0.42258-12.144-3.3931-13.456-5.5687-15.119-5.929-6.059-1.3127 6.6873 3.4075 15.019 9.5132 14.158 10.375-0.26185 0.26184-2.4998-0.98388-4.9733-2.7683-5.9759-4.3111-6.8409-4.7679-6.8409-3.6124 0 0.53807 2.7422 2.7102 6.0938 4.8269 7.1816 4.5356 6.9468 3.7301 2.6251 9.0042l-3.4686 4.233 3.703-1.5415c2.0367-0.84783 5.4855-3.2865 7.664-5.4194 2.1785-2.1328 4.7098-3.9752 5.625-4.0942 27.684-3.5997 33.554-2.984 52.07 5.4619 9.0285 4.1182 14.086 4.8621 21.312 3.1351 4.0463-0.96698 2.8396 0.49765-1.875 2.2759-4.8576 1.8321-9.375 5.4693-9.375 7.5481 0 3.0314 6.3368 2.4661 11.109-0.99109zm-10.172 1.0741c0-1.2033 13.859-9.5057 15.867-9.5057 1.7412 0-3.4416 5.4636-7.4018 7.803-3.2938 1.9457-3.8469 0.68516-0.73122-1.6664 2.42-1.8265-0.62554-0.20084-5.3906 2.8774-1.3917 0.89906-2.3438 1.0988-2.3438 0.49166zm40.42-17.792c-1.6846-2.3659-1.7705-2.9105-0.61034-3.8734 2.9533-2.451 7.5979 1.1813 5.587 4.3693-1.6149 2.5601-2.8911 2.433-4.9767-0.49593zm-52.139-1.5525c-3.6094-0.67754-9.0769-1.9051-12.15-2.7279-3.5522-0.95105-9.6994-1.52-16.875-1.5619-7.1794-0.04191-10.605-0.35913-9.4124-0.87161 4.2475-1.8252 20.314-1.0289 29.069 1.4407 12.663 3.5718 24.234 4.0898 30.903 1.3833 7.0706-2.8698 7.5797-1.8592 0.63366 1.258-6.2656 2.8118-11.565 3.0698-22.168 1.0794zm-65.621 6.4886 2.9056-3.0808-2.2791-1.0384c-1.2535-0.57114-2.3808-0.91718-2.505-0.76896-0.1242 0.14821-1.2621 2.46-2.5286 5.1372-2.6826 5.6707-1.091 5.5807 4.4072-0.24906zm39.803-1.5142c4.07-4.3686 0.58239-5.4187-5.3627-1.6146-3.2463 2.0772-3.777 2.6815-1.9686 2.2417 1.4176-0.34481 2.7436-0.16903 3.1022 0.41123 0.941 1.5226 2.111 1.2353 4.2292-1.0383zm14.132-21.299c2.8181-0.98379 9.3425-2.3029 14.499-2.9313 12.608-1.5366 13.28-2.1714 4.3448-4.102-10.042-2.1697-22.658-1.3454-21.931 1.4329 0.5992 2.2914-7.7561 2.524-11.991 0.3338-1.5213-0.78668-2.7659-1.0461-2.7659-0.57657 0 1.278 4.9166 4.2577 6.7969 4.1193 0.90235-0.06646 1.6406 0.27483 1.6406 0.75841s0.84375 0.87924 1.875 0.87924 1.875 0.42188 1.875 0.9375c0 1.1916-0.34094 1.2428 5.6575-0.85121zm-339.82-0.93919c-0.85907-1.39 0.45115-3.7193 2.4487-4.3533 2.6611-0.8446 1.9517-1.1365-4.3818-1.8028-3.0906-0.32516-8.5724-1.4862-12.182-2.58-4.2074-1.2751-8.497-1.899-11.953-1.7387-3.4243 0.1589-5.3906-0.12329-5.3906-0.77361 0-0.56307 0.80925-1.0238 1.7983-1.0238 0.98908 0 2.5348-0.28263 3.435-0.62807 1.1159-0.42821 1.421-0.27905 0.95885 0.46875-0.41087 0.66481-0.080398 1.0968 0.83904 1.0968 2.3136 0 0.77802-1.6781-3.5792-3.9114-2.1564-1.1053-3.4097-2.1837-2.785-2.3964 0.62466-0.21276 3.5778 1.023 6.5625 2.746 10.147 5.858 18.824 7.6842 33.881 7.1308l7.8293-0.28777 0.29207-3.9216c0.16064-2.1569 0.68309-4.6203 1.161-5.4742 0.58143-1.039 0.72516 0.18098 0.4344 3.6872-0.36394 4.3887-0.18723 5.2399 1.0878 5.2399 1.7106 0 2.0392-1.4449 0.53932-2.3719-0.67099-0.41469-0.63151-1.0311 0.12438-1.9419 0.84447-1.0175 1.4145-1.0795 2.4008-0.2609 0.97828 0.8119 1.0342 1.3858 0.22957 2.3553-0.58512 0.70502-0.774 1.2819-0.41973 1.2819 1.5111 0 9.898-4.0514 9.898-4.7813 0-2.4565-14.643-7.6252-15.89-5.6086-0.42897 0.69409-1.5811 0.69658-3.8458 0.0083-3.7422-1.1373-20.3-1.337-31.159-0.37581-5.2469 0.46445-7.2896 0.36112-6.8522-0.3466 0.44328-0.71723-0.19486-0.72316-2.2105-0.02051-2.5265 0.88073-3.3176 0.64261-7.2977-2.1966-7.4357-5.3042-12.865-6.7677-7.6377-2.0585 3.6327 3.2724 3.9504 5.811 1.0597 8.4683l-2.5735 2.3658 3.6741-0.50649c2.0208-0.27857 4.0017-1.0366 4.4022-1.6844 0.4004-0.64787 1.0392-0.86672 1.4196-0.48634 1.3719 1.3719-1.548 2.8285-8.1856 4.0836-7.2332 1.3677-8.8996 1.1664-5.3749-0.64935 7.3484-3.7855 8.1932-6.1317 4.0738-11.314-3.6413-4.5807-4.0971-6.0041-1.6497-5.1518 1.3676 0.47628 1.3378 0.33697-0.17918-0.8372-1.0009-0.7747-2.372-1.4086-3.0469-1.4086-0.67489 0-1.2271-0.42188-1.2271-0.9375 0-1.8683 2.0091-0.88484 12.896 6.3128 7.3055 4.83 7.9101 5.0572 10.781 4.0519 1.6729-0.58576 8.4389-1.3251 15.036-1.6429 13.405-0.64588 14.434-1.6132 2.6991-2.5378-6.2104-0.4893-7.6633-0.36971-7.1045 0.58478 0.38639 0.65993-0.21374 0.3962-1.3336-0.58606-1.1199-0.98226-2.0362-1.9631-2.0362-2.1798 0-1.1686 17.71 1.0981 20.625 2.6398 1.8047 0.95443 5.479 2.1099 8.1651 2.5676l4.8838 0.83226-1.8369-2.3353c-4.8819-6.2064-0.56908-6.4481 5.9536-0.3337 2.6762 2.5087 6.3423 5.0409 8.147 5.6272 5.3939 1.7523 9.223 5.3154 7.5 6.979-2.2011 2.1253-13.561 6.2701-17.185 6.2701-2.4011 0-4.5338 0.99772-8.0156 3.75-4.4949 3.553-8.7318 4.7925-9.9032 2.8971zm7.9165-3.3659c1.9098-1.409 2.589-2.3438 1.7029-2.3438-2.2772 0-8.2654 2.726-8.2654 3.7626 0 1.6825 3.3367 0.96112 6.5625-1.4188zm-25.06-18.896c-0.63472-0.2568-1.9003-0.27244-2.8125-0.03473-0.91216 0.23769-0.39284 0.4478 1.154 0.46691 1.5469 0.01911 2.2932-0.17537 1.6585-0.43218zm35.783-2.2782c-1.5144-1.5912-3.5237-3.3107-4.4651-3.821-3.1025-1.6817 0.05416 2.8384 3.412 4.8858 4.0809 2.4883 4.2612 2.306 1.0531-1.0648zm-29.246 9.0457c-6.3206-1.1579-11.805-2.4208-12.188-2.8063-0.38252-0.38554 0.78107-0.45313 2.5858-0.15021 21.843 3.6664 30.356 4.3226 32.197 2.4816 1.1877-1.1877 2.4901-1.2939 2.4901-0.20312 0 3.3499-9.1513 3.5972-25.086 0.67805z" fill="#5DA5A2"/>
</svg>
