<?xml version="1.0" standalone="no"?>
<!DOCTYPE svg PUBLIC "-//W3C//DTD SVG 20010904//EN"
 "http://www.w3.org/TR/2001/REC-SVG-20010904/DTD/svg10.dtd">
<svg version="1.0" xmlns="http://www.w3.org/2000/svg"
 width="640.000000pt" height="1280.000000pt" viewBox="0 0 640.000000 1280.000000"
 preserveAspectRatio="xMidYMid meet">
<metadata>
Created by potrace 1.15, written by Peter Selinger 2001-2017
</metadata>
<g transform="translate(0.000000,1280.000000) scale(0.100000,-0.100000)"
fill="#5DA5A2" stroke="none">
<path d="M3353 12785 c-29 -21 -47 -102 -45 -209 2 -84 0 -92 -32 -150 -20
-36 -37 -83 -41 -116 -7 -48 -13 -60 -48 -90 -66 -57 -93 -87 -151 -169 -41
-59 -67 -86 -108 -108 -29 -17 -62 -40 -72 -52 -33 -36 -148 -65 -261 -65 -82
-1 -120 5 -210 30 -157 44 -201 54 -239 54 -52 0 -64 8 -102 67 -19 29 -50 63
-69 75 -20 11 -54 49 -79 87 -23 37 -68 88 -99 115 -31 26 -59 56 -62 67 -9
27 -40 42 -62 30 -10 -5 -26 -12 -35 -15 -27 -8 -22 -20 32 -76 30 -31 59 -73
70 -102 13 -36 39 -69 94 -122 46 -44 76 -81 76 -93 0 -11 8 -31 19 -44 10
-13 31 -49 46 -79 15 -30 60 -88 98 -128 39 -40 76 -87 83 -105 21 -57 37
-102 40 -114 2 -7 14 -13 27 -13 14 0 30 -6 36 -14 10 -12 8 -19 -8 -35 -41
-41 -19 -122 43 -159 79 -47 67 -77 -60 -148 -47 -26 -97 -63 -111 -81 -13
-17 -40 -41 -58 -52 -22 -12 -35 -30 -40 -50 -7 -32 -15 -36 -50 -21 -28 11
-85 -43 -85 -82 0 -20 -4 -26 -15 -22 -23 9 -45 -15 -76 -82 -15 -34 -32 -65
-38 -69 -19 -11 -143 -42 -196 -49 -59 -7 -118 -44 -140 -87 -16 -30 -15 -33
29 -124 25 -52 46 -102 46 -111 0 -10 6 -25 14 -33 17 -19 61 -159 71 -221 12
-80 -25 -214 -90 -327 -31 -54 -73 -115 -93 -137 -45 -47 -356 -255 -468 -313
-145 -76 -353 -151 -466 -168 -34 -5 -178 -91 -178 -106 0 -4 9 -9 20 -12 11
-3 20 -10 20 -17 0 -8 -29 -10 -99 -8 -87 2 -102 0 -121 -17 -13 -12 -20 -29
-18 -46 1 -14 -3 -34 -11 -42 -11 -14 -6 -20 34 -45 26 -16 105 -46 176 -67
l129 -37 125 -114 c69 -63 131 -115 138 -115 52 -5 112 50 204 189 90 135 168
216 279 290 209 140 476 231 814 277 312 42 846 23 867 -32 16 -42 -145 -278
-326 -478 -50 -55 -128 -147 -174 -205 -45 -58 -212 -234 -373 -395 -292 -291
-429 -445 -561 -631 -290 -408 -433 -823 -433 -1260 0 -231 36 -379 149 -609
175 -357 443 -584 856 -725 66 -22 237 -70 380 -105 307 -75 405 -105 503
-152 96 -47 150 -96 248 -228 45 -60 135 -166 200 -235 66 -69 166 -187 223
-263 57 -75 136 -173 175 -216 66 -73 176 -216 220 -286 27 -42 169 -356 227
-502 259 -649 218 -1244 -121 -1757 -138 -209 -269 -348 -414 -436 -256 -158
-581 -152 -921 18 -378 188 -585 491 -587 857 0 121 14 201 53 310 79 218 252
412 450 505 201 94 461 95 646 2 289 -146 382 -461 192 -651 -72 -72 -131 -86
-222 -55 -42 14 -47 19 -47 46 0 39 -52 92 -105 107 -208 58 -388 -140 -345
-380 30 -169 128 -284 291 -339 58 -20 78 -22 204 -17 229 8 388 64 530 185
90 77 134 136 190 255 64 135 95 263 102 417 9 201 -27 356 -117 514 -134 234
-429 430 -784 520 -295 75 -554 52 -801 -69 -125 -61 -198 -114 -304 -218
-217 -214 -362 -496 -438 -854 -25 -118 -27 -146 -27 -363 0 -208 2 -247 22
-340 65 -299 179 -510 373 -695 224 -213 422 -318 779 -411 228 -60 579 -35
870 62 282 94 525 248 756 478 185 186 318 372 435 611 154 314 228 631 229
970 0 227 -19 366 -81 578 -16 56 -41 153 -55 216 -28 124 -45 175 -244 741
-175 499 -325 936 -393 1149 l-56 173 37 -7 c20 -4 55 -15 78 -25 22 -11 79
-24 127 -30 93 -11 339 -77 621 -164 98 -31 196 -56 217 -56 48 0 57 13 99
140 25 74 91 229 105 248 1 2 21 -5 45 -14 33 -13 60 -16 126 -11 75 5 89 3
138 -19 46 -21 68 -24 143 -23 48 1 105 -2 126 -6 l37 -7 0 66 0 66 -57 0
c-36 0 -88 10 -138 27 -71 23 -84 25 -123 14 -40 -10 -48 -9 -105 19 -34 16
-70 30 -80 30 -14 0 -17 5 -13 18 18 46 76 127 152 211 77 86 104 132 104 181
0 8 -14 60 -31 114 l-32 100 24 18 c20 17 33 19 120 12 110 -7 161 4 185 41
25 39 14 67 -36 93 -54 27 -98 27 -170 2 -62 -22 -102 -25 -131 -10 -17 10
-19 22 -19 123 0 160 15 274 56 420 40 143 40 187 -2 236 -13 16 -24 33 -24
38 0 12 59 68 85 80 11 6 38 14 60 18 49 8 108 38 160 80 51 42 68 50 135 65
30 7 63 19 72 27 16 14 16 18 1 47 -27 54 -41 65 -72 56 -38 -11 -70 -28 -103
-56 -15 -12 -54 -28 -85 -34 -72 -15 -122 -40 -174 -87 -28 -26 -59 -41 -112
-55 -39 -11 -93 -33 -120 -50 l-47 -30 -58 20 c-31 12 -85 28 -120 36 -81 20
-201 80 -332 167 -57 38 -111 69 -120 69 -8 0 -31 -10 -51 -23 -63 -39 -629
-516 -799 -673 -243 -225 -268 -242 -298 -212 -22 22 -13 48 60 176 39 70 98
174 131 232 33 58 92 156 133 218 41 62 83 130 94 151 59 117 188 241 463 448
78 59 172 136 209 171 l68 65 107 -1 c94 0 115 -4 163 -26 46 -22 69 -26 147
-26 51 0 102 -4 115 -9 13 -5 51 -17 86 -27 l62 -17 25 23 c70 66 -15 141
-141 126 -43 -5 -61 -1 -110 22 -52 24 -71 27 -159 27 -92 0 -104 2 -150 29
-35 21 -63 30 -98 30 -65 2 -73 15 -86 138 -15 135 -14 235 4 295 17 56 84
139 138 171 18 10 64 37 102 60 61 35 165 79 347 146 55 20 60 27 68 80 4 35
9 41 39 49 28 7 44 4 79 -13 38 -20 50 -21 95 -12 29 5 68 7 88 5 24 -3 39 0
48 11 16 19 11 67 -9 77 -53 27 -124 43 -200 44 -59 1 -94 6 -115 18 -22 12
-43 15 -82 11 l-51 -7 -22 43 c-12 23 -52 91 -90 151 -80 128 -130 241 -137
313 -6 56 18 168 47 226 10 19 57 66 105 105 48 39 115 93 148 120 33 28 84
69 112 91 66 53 115 113 115 140 0 12 8 32 18 44 16 20 21 21 63 10 39 -10 54
-9 105 9 49 16 68 18 104 10 41 -9 50 -8 113 25 37 20 78 36 91 36 60 0 71 50
22 107 l-24 28 -26 -24 c-23 -22 -29 -23 -69 -13 -46 12 -80 7 -135 -22 -24
-12 -37 -14 -51 -6 -28 15 -68 12 -136 -9 -43 -14 -67 -16 -85 -9 -13 5 -45 6
-71 3 -42 -6 -50 -3 -80 22 -43 37 -137 103 -146 103 -4 0 -26 9 -50 21 -33
16 -56 39 -93 95 -96 143 -95 216 8 432 39 81 84 181 101 223 39 94 70 126
139 139 63 12 78 19 116 59 20 21 42 32 73 37 25 4 57 17 71 29 l27 23 -19 34
c-17 29 -38 67 -42 76 -4 8 -71 -28 -88 -46 -10 -12 -41 -26 -74 -33 -31 -6
-78 -26 -107 -45 -39 -26 -65 -35 -115 -40 -36 -3 -79 -12 -96 -20 -24 -10
-85 -12 -288 -9 -299 5 -315 9 -354 85 -25 49 -26 71 -2 254 12 88 8 350 -5
412 -6 29 -3 35 38 65 52 39 92 92 84 113 -3 8 5 24 19 37 28 26 31 60 8 83
-8 9 -17 16 -18 16 -11 0 -126 -64 -136 -75 -6 -7 -20 -35 -29 -61 -15 -37
-27 -52 -62 -71 -54 -30 -76 -54 -90 -102 -10 -34 -19 -41 -102 -81 -50 -24
-102 -54 -116 -65 -14 -12 -58 -40 -96 -62 -39 -23 -106 -67 -150 -99 -189
-137 -232 -149 -336 -96 -56 28 -57 29 -246 306 -26 37 -52 70 -59 73 -19 7
-24 30 -14 60 5 15 13 80 18 144 7 84 16 127 31 157 17 33 21 59 21 130 0 89
-8 112 -40 112 -8 0 -25 -7 -37 -15z"/>
</g>
</svg>
