<?xml version="1.0" standalone="no"?>
<!DOCTYPE svg PUBLIC "-//W3C//DTD SVG 20010904//EN"
 "http://www.w3.org/TR/2001/REC-SVG-20010904/DTD/svg10.dtd">
<svg version="1.0" xmlns="http://www.w3.org/2000/svg"
 width="512.000000pt" height="512.000000pt" viewBox="0 0 512.000000 512.000000"
 preserveAspectRatio="xMidYMid meet">

<g transform="translate(0.000000,512.000000) scale(0.100000,-0.100000)"
fill="#db6666e6" stroke="none">
<path d="M2375 5113 c-541 -46 -1067 -266 -1468 -615 l-38 -33 471 -470 c344
-344 470 -464 470 -448 0 20 88 51 1050 371 l1050 350 -2 -1196 -3 -1197 -32
-66 c-29 -58 -93 -133 -146 -171 -15 -12 22 -52 361 -391 l379 -379 80 99
c470 585 660 1307 533 2033 -118 684 -516 1292 -1100 1685 -360 242 -769 387
-1205 425 -103 9 -310 11 -400 3z"/>
<path d="M573 4153 c-526 -654 -698 -1475 -478 -2278 133 -484 429 -943 820
-1272 715 -600 1690 -765 2547 -432 258 101 548 274 751 451 l38 33 -428 427
-428 428 -105 4 c-58 2 -127 9 -155 16 -184 44 -325 145 -388 278 -28 59 -32
77 -32 152 0 67 5 95 23 135 l23 49 -308 308 c-176 176 -314 307 -323 306 -13
-3 -16 -96 -20 -743 l-5 -740 -32 -67 c-63 -134 -205 -235 -393 -279 -30 -8
-107 -13 -170 -13 -63 0 -140 5 -170 13 -188 44 -330 145 -393 279 -28 59 -32
77 -32 152 0 75 4 93 32 152 63 134 205 235 393 280 87 20 291 15 370 -9 36
-11 73 -24 83 -28 16 -7 17 29 17 666 l0 674 -579 579 -578 578 -80 -99z"/>
<path d="M2855 3601 l-740 -248 -3 -64 -3 -64 60 -59 59 -58 688 229 689 230
3 141 c1 78 -1 142 -5 141 -5 0 -341 -112 -748 -248z"/>
<path d="M3045 3064 c-302 -101 -557 -186 -564 -189 -10 -4 70 -91 248 -269
l263 -263 48 18 c92 35 208 52 310 46 82 -5 183 -27 243 -52 16 -7 17 18 17
444 0 248 -3 451 -7 450 -5 0 -255 -83 -558 -185z"/>
<path d="M3253 2102 c-9 -5 28 -48 112 -132 l125 -125 36 20 c43 23 84 70 84
95 0 50 -97 117 -198 139 -61 13 -141 14 -159 3z"/>
<path d="M1395 1496 c-97 -24 -185 -89 -185 -136 0 -28 47 -78 99 -104 153
-77 387 -50 475 54 33 40 33 60 0 100 -69 82 -247 121 -389 86z"/>
</g>
</svg>
