<?xml version="1.0" encoding="iso-8859-1"?>
<svg version="1.1" id="Capa_1" xmlns="http://www.w3.org/2000/svg" xmlns:xlink="http://www.w3.org/1999/xlink" x="0px" y="0px"
	 viewBox="0 0 66.593 66.593" style="enable-background:new 0 0 66.593 66.593;" xml:space="preserve">
<g>
	<g>
		<path d="M61.45,1.409c0-1.145-1.332-1.638-2.383-1.309l-34.938,11c-0.702,0.221-1.407,0.795-1.562,1.465
			c-0.134,0.268-0.435,0.566-0.435,0.887v33.894c-1-1.817-3.354-2.937-6.25-2.937c-6.127,0-10.967,4.966-10.967,11.092
			c0,6.127,5.027,11.092,11.154,11.092c4.825,0,8.635-3.216,10.162-7.519c0.086-1.219-0.1-0.991-0.1-1.752V25.396l31-9.612v20.562
			c-1-1.817-3.354-2.937-6.25-2.937c-6.127,0-10.967,4.966-10.967,11.092c0,6.127,5.027,11.092,11.154,11.092
			c4.825,0,8.7-3.086,10.227-7.389c0-0.689-0.164-0.991-0.164-1.752V13.764C62.134,13.347,61.45,1.895,61.45,1.409z M26.134,21.333
			v-6.807l31-9.742v6.807L26.134,21.333z" fill="#72ab72"/>
	</g>
</g>
<g>
</g>
<g>
</g>
<g>
</g>
<g>
</g>
<g>
</g>
<g>
</g>
<g>
</g>
<g>
</g>
<g>
</g>
<g>
</g>
<g>
</g>
<g>
</g>
<g>
</g>
<g>
</g>
<g>
</g>
</svg>
