<?xml version="1.0" standalone="no"?>
<!DOCTYPE svg PUBLIC "-//W3C//DTD SVG 20010904//EN"
 "http://www.w3.org/TR/2001/REC-SVG-20010904/DTD/svg10.dtd">
<svg version="1.0" xmlns="http://www.w3.org/2000/svg"
 width="1280.000000pt" height="979.000000pt" viewBox="0 0 1280.000000 979.000000"
 preserveAspectRatio="xMidYMid meet">
<metadata>
Created by potrace 1.15, written by Peter Selinger 2001-2017
</metadata>
<g transform="translate(0.000000,979.000000) scale(0.100000,-0.100000)"
fill="#000000" stroke="none">
<path d="M10170 9782 c0 -13 102 -93 216 -170 792 -529 1374 -1550 1664 -2922
38 -180 56 -288 75 -451 81 -714 85 -1562 9 -2089 -71 -495 -201 -981 -407
-1520 -30 -80 -58 -163 -62 -185 l-6 -40 32 35 c43 48 198 284 305 465 117
199 304 572 383 765 194 471 356 1056 403 1455 19 159 18 1466 -1 1620 -16
137 -76 376 -145 588 -355 1081 -990 1815 -1961 2270 -283 132 -505 211 -505
179z" fill="#a8eee4"/>
<path d="M7228 9481 c-91 -13 -156 -51 -245 -144 -137 -143 -206 -278 -284
-557 -40 -146 -75 -212 -164 -313 -69 -79 -332 -328 -500 -474 -596 -517
-1395 -1081 -2029 -1432 -403 -223 -743 -377 -1491 -674 -777 -309 -913 -381
-1105 -583 -185 -194 -278 -377 -317 -624 -27 -174 -24 -597 6 -814 75 -545
230 -835 499 -936 78 -30 187 -47 382 -59 186 -12 250 -26 365 -81 144 -68
255 -178 370 -366 148 -241 236 -497 369 -1074 131 -564 216 -800 353 -985
170 -230 443 -345 853 -362 390 -16 488 61 346 271 -81 121 -87 168 -36 295
28 73 40 158 29 216 -13 72 -47 136 -148 276 -128 180 -125 171 -125 324 -1
126 -2 132 -33 196 -20 41 -64 100 -115 156 -103 111 -144 188 -164 309 -17
102 -36 168 -104 379 -64 197 -90 328 -90 452 0 167 46 263 135 283 63 15 558
11 795 -5 1080 -77 2428 -339 2950 -575 110 -50 264 -134 365 -198 227 -146
378 -217 483 -228 68 -7 158 14 244 57 264 133 463 636 542 1374 57 527 45
1242 -30 1834 -163 1294 -626 2723 -1129 3486 -148 224 -276 372 -400 460
-129 92 -208 116 -385 120 -74 2 -161 0 -192 -4z m-674 -1561 c-66 -400 -71
-884 -14 -1430 95 -915 356 -1940 698 -2745 33 -77 129 -286 215 -465 85 -179
158 -335 162 -348 l6 -22 -68 26 c-408 156 -542 199 -894 288 -613 156 -938
199 -1919 256 -603 35 -698 55 -897 192 -89 61 -223 200 -284 293 -134 204
-219 447 -255 730 -23 178 -15 530 15 657 45 194 129 339 286 494 183 180 424
348 1015 709 528 321 624 381 850 530 392 259 557 392 875 706 121 120 220
217 221 216 1 -1 -5 -40 -12 -87z m516 -1248 c313 -337 573 -1013 629 -1632
15 -164 13 -517 -4 -710 -22 -247 -40 -364 -89 -570 -29 -124 -42 -160 -56
-160 -40 0 -279 735 -390 1195 -117 486 -295 1555 -336 2019 l-7 79 91 -72
c50 -39 123 -106 162 -149z" fill="#a8eee4"/>
<path d="M9485 8820 c-2 -4 32 -34 77 -66 337 -244 466 -358 615 -544 477
-594 802 -1467 912 -2450 33 -289 46 -679 32 -939 -34 -640 -131 -1103 -354
-1691 -31 -80 -59 -163 -63 -185 l-7 -40 27 25 c70 64 306 458 446 745 365
747 489 1417 440 2375 -26 514 -86 770 -273 1170 -235 504 -616 951 -1053
1236 -260 170 -774 404 -799 364z" fill="#a8eee4"/>
<path d="M8850 7987 c0 -20 36 -49 125 -103 58 -35 120 -88 226 -194 298 -297
465 -553 622 -955 133 -340 227 -688 278 -1034 37 -248 36 -963 -2 -1306 -36
-325 -94 -573 -199 -846 -98 -254 -119 -327 -86 -299 29 23 135 187 221 340
297 530 437 947 507 1510 17 140 17 672 0 800 -7 52 -22 145 -33 205 -126 694
-497 1267 -1044 1611 -165 104 -387 217 -507 258 -86 29 -108 32 -108 13z" fill="#a8eee4"/>
<path d="M1140 5257 c-161 -70 -620 -317 -755 -405 -181 -119 -319 -336 -361
-566 -34 -187 -28 -498 12 -666 22 -91 92 -235 148 -302 151 -185 446 -308
842 -352 147 -16 434 -30 434 -21 0 4 -36 46 -80 95 -252 282 -361 525 -400
894 -16 153 -14 505 4 657 31 254 112 484 220 623 25 33 46 63 46 68 0 16 -35
8 -110 -25z m-441 -570 c6 -28 16 -187 21 -352 15 -434 39 -585 141 -880 64
-185 66 -195 49 -205 -24 -15 -55 -11 -83 10 -30 24 -68 113 -132 305 -87 264
-105 369 -105 605 0 270 27 498 66 558 20 31 31 21 43 -41z m-324 -149 c4 -17
4 -146 0 -287 -8 -305 -3 -345 80 -621 55 -182 79 -320 57 -320 -40 0 -178
277 -238 476 -24 80 -27 109 -31 295 -6 222 5 343 35 413 36 80 85 102 97 44z" fill="#a8eee4"/>
</g>
</svg>
