<?xml version="1.0" standalone="no"?>
<!DOCTYPE svg PUBLIC "-//W3C//DTD SVG 20010904//EN"
 "http://www.w3.org/TR/2001/REC-SVG-20010904/DTD/svg10.dtd">
<svg version="1.0" xmlns="http://www.w3.org/2000/svg"
 width="1280.000000pt" height="934.000000pt" viewBox="0 0 1280.000000 934.000000"
 preserveAspectRatio="xMidYMid meet">
<metadata>
Created by potrace 1.15, written by Peter Selinger 2001-2017
</metadata>
<g transform="translate(0.000000,934.000000) scale(0.100000,-0.100000)"
fill="#5DA5A2" stroke="none">
<path d="M1792 9318 c-45 -49 -52 -115 -28 -253 32 -181 129 -482 263 -814
170 -423 333 -705 621 -1069 299 -380 394 -469 1072 -1002 833 -655 1071 -865
1462 -1287 143 -155 243 -321 316 -523 169 -465 197 -969 76 -1352 -21 -66
-28 -78 -47 -78 -12 0 -89 16 -172 35 -404 94 -708 192 -1310 420 -309 117
-533 159 -840 160 -302 0 -459 -25 -970 -155 -410 -104 -461 -113 -630 -114
-170 -1 -224 13 -419 111 -203 102 -306 135 -306 100 0 -40 145 -186 244 -246
68 -41 152 -75 254 -103 69 -20 102 -22 317 -22 275 0 342 8 706 93 346 81
380 85 669 86 282 0 359 -9 618 -71 282 -67 569 -175 1012 -381 236 -110 433
-191 568 -234 39 -13 72 -26 72 -30 0 -7 -106 -146 -135 -177 -10 -11 -36 -5
-152 36 -324 116 -661 211 -899 253 -104 18 -170 23 -339 24 l-210 2 -110 40
c-60 23 -182 69 -270 103 -517 199 -904 234 -1445 129 -58 -11 -245 -56 -415
-99 -361 -92 -510 -120 -643 -120 -147 0 -215 19 -412 114 -271 131 -336 146
-296 68 22 -43 165 -175 232 -214 165 -97 316 -131 569 -131 221 1 359 20 694
97 315 73 400 86 618 93 315 10 595 -35 958 -154 l140 -47 -120 -38 c-314
-102 -522 -141 -760 -141 -249 0 -350 28 -541 150 -124 80 -166 103 -189 103
-27 0 -16 -35 34 -106 164 -232 327 -304 690 -304 260 0 513 36 963 135 136
30 255 55 264 55 9 0 128 -51 263 -114 511 -236 836 -335 1244 -376 74 -8 131
-19 154 -31 38 -19 108 -23 168 -10 23 5 54 -3 134 -36 371 -155 764 -228
1246 -234 l80 -1 -130 -33 c-457 -119 -1014 -161 -1365 -105 -87 14 -274 76
-487 161 -1056 422 -1645 578 -2028 539 -153 -15 -244 -37 -520 -123 -393
-123 -492 -147 -706 -168 -217 -21 -419 3 -555 65 -28 13 -101 55 -160 93
-112 71 -170 100 -181 90 -20 -21 60 -142 159 -238 75 -73 178 -124 305 -151
79 -17 133 -21 278 -21 268 1 517 37 995 145 215 49 231 51 370 51 226 -1 469
-49 795 -158 166 -55 494 -181 508 -195 5 -4 -15 -13 -45 -20 -432 -95 -573
-112 -720 -87 -138 24 -192 47 -359 158 -149 100 -238 149 -272 149 -54 0 -15
-91 90 -213 82 -94 160 -149 318 -227 145 -71 255 -106 395 -127 141 -21 237
-9 493 62 108 30 244 61 301 70 139 20 305 20 354 -1 160 -69 375 -130 576
-163 109 -19 126 -25 293 -109 98 -49 264 -140 368 -202 239 -142 345 -199
465 -248 104 -43 284 -102 312 -102 46 0 8 -21 -105 -58 -181 -61 -280 -75
-472 -69 -167 5 -272 22 -445 73 -211 63 -350 119 -797 322 -488 222 -673 289
-893 328 -75 13 -134 15 -275 11 -207 -6 -269 -16 -630 -95 -269 -60 -317 -66
-470 -66 -210 0 -289 27 -496 170 -117 81 -250 149 -274 140 -60 -23 94 -237
241 -337 202 -136 436 -221 645 -235 117 -8 170 1 432 72 249 67 397 88 562
80 387 -19 777 -165 1352 -507 341 -203 570 -301 819 -349 291 -56 585 -28
889 85 140 52 382 172 635 315 484 274 659 345 911 371 215 21 410 -15 847
-157 471 -153 592 -178 857 -178 274 -1 430 31 657 135 227 104 366 195 487
320 67 69 67 69 172 97 121 33 390 160 512 242 117 78 238 199 312 309 112
169 172 321 131 337 -30 11 -109 -49 -271 -205 -95 -92 -198 -182 -253 -219
-90 -62 -269 -154 -325 -168 -28 -6 -28 -6 -22 30 5 23 3 41 -4 50 -19 23 -59
3 -152 -76 l-84 -70 -195 5 c-187 4 -238 11 -410 51 -119 28 -315 95 -545 186
-124 50 -259 99 -300 109 -273 72 -585 44 -980 -87 -159 -53 -299 -110 -720
-290 -575 -247 -713 -291 -940 -299 -258 -10 -505 44 -870 190 l-130 52 85 7
c308 26 638 99 885 196 55 22 208 91 340 155 893 427 1290 471 2145 232 432
-120 484 -129 765 -129 229 -1 287 5 466 50 320 79 724 284 929 471 47 43 83
65 130 82 172 61 323 133 475 224 235 142 384 278 454 414 28 56 27 73 -4 73
-35 0 -95 -32 -190 -101 -165 -119 -472 -283 -697 -373 -403 -161 -807 -167
-1292 -18 l-60 18 110 38 c60 21 152 58 205 81 99 44 335 195 500 321 75 58
114 80 185 105 195 68 289 116 486 250 278 190 367 268 515 459 65 84 88 129
74 143 -18 18 -104 -31 -246 -142 -243 -190 -435 -317 -584 -390 -65 -31 -67
-31 -50 1 33 61 -52 35 -166 -52 -83 -63 -122 -80 -275 -114 -232 -51 -388
-69 -620 -69 -328 -1 -476 30 -731 149 -228 106 -433 167 -699 206 -82 12
-453 17 -594 9 l-69 -4 -50 134 c-142 385 -197 669 -168 870 30 202 229 581
434 825 157 187 317 323 676 574 210 147 377 287 519 434 427 445 719 944 763
1307 9 74 7 99 -10 184 -40 195 -107 281 -396 512 -197 157 -245 184 -292 161
-16 -7 -29 -23 -31 -36 -4 -27 -3 -27 -48 3 -43 29 -105 33 -159 11 -81 -34
-245 -166 -495 -400 -146 -137 -179 -159 -286 -187 -69 -19 -105 -22 -294 -22
-118 0 -309 8 -425 17 -324 26 -745 32 -945 12 -423 -40 -746 -137 -959 -286
-144 -102 -264 -236 -297 -334 l-15 -44 -97 60 c-53 34 -142 91 -198 129 -55
37 -131 86 -170 109 -210 130 -660 321 -1064 452 -738 241 -1011 362 -1955
871 -191 103 -389 230 -500 322 -77 64 -97 75 -131 75 -29 0 -33 4 -42 43 -9
34 -19 47 -50 65 -50 28 -73 28 -100 0z m7458 -6133 c177 -28 217 -40 470
-141 202 -80 391 -133 570 -161 121 -19 505 -25 640 -11 l65 7 -100 -50 c-170
-83 -413 -157 -651 -198 -107 -18 -114 -18 -215 0 -158 27 -324 33 -522 19
-171 -12 -177 -12 -248 10 -40 12 -108 39 -150 61 -43 21 -117 55 -166 75 -48
20 -92 40 -97 45 -11 10 -155 342 -151 347 2 2 50 7 106 12 127 10 335 4 449
-15z m-956 -164 c14 -36 26 -65 26 -66 0 0 -42 3 -92 7 -51 5 -148 7 -216 6
-67 -2 -122 0 -122 3 0 10 365 129 372 121 3 -4 18 -36 32 -71z m33 -331 c128
-17 117 -9 179 -131 30 -61 54 -112 52 -114 -2 -1 -34 -13 -73 -25 -38 -12
-167 -58 -285 -102 -491 -182 -808 -259 -1240 -303 -289 -30 -672 -14 -852 36
l-43 12 80 27 c140 47 214 80 455 195 512 247 855 356 1275 408 68 9 379 6
452 -3z m1173 -321 c36 -4 167 -8 292 -9 276 0 299 -4 798 -143 249 -70 471
-102 659 -95 50 2 91 1 91 -2 0 -3 -51 -29 -113 -59 -348 -167 -560 -221 -860
-221 -289 0 -528 53 -921 204 -233 89 -506 128 -761 108 -71 -6 -131 -9 -132
-8 -2 1 33 17 77 35 73 30 81 31 107 18 94 -48 185 -16 222 79 11 29 19 32
119 58 222 56 250 58 422 35z m-10 -1073 c143 -19 261 -51 571 -151 356 -116
590 -173 719 -176 25 -1 56 -4 69 -8 20 -5 14 -11 -53 -50 -106 -60 -253 -116
-376 -142 -83 -17 -139 -22 -265 -22 -291 0 -537 59 -990 240 -248 100 -282
111 -402 132 l-96 17 98 43 c271 119 468 151 725 117z"/>
</g>
</svg>
