<svg width="107" height="135" viewBox="0 0 107 135" fill="none" xmlns="http://www.w3.org/2000/svg">
<g clip-path="url(#clip0_2_543)">
<path d="M102.06 123.68C105.041 115.003 100.307 105.536 91.6295 102.643C82.9517 99.5754 73.5727 104.309 70.5924 112.987C67.6122 121.664 72.3455 131.131 81.0233 134.024C89.7011 137.004 99.1677 132.358 102.06 123.68Z" fill="#5DA5A2"/>
<path d="M88.474 106.938C87.4222 104.922 83.7407 104.834 80.2345 106.675C76.7283 108.516 74.7123 111.672 75.8518 113.688C76.9036 115.704 80.6728 115.791 84.1789 113.863C87.5975 112.022 89.5259 108.867 88.474 106.938Z" fill="#FEFEFE"/>
<path d="M75.3259 115.528C74.7123 115.178 73.8357 115.528 73.3098 116.317C72.8715 117.106 72.9592 118.07 73.5728 118.421C74.1864 118.772 75.0629 118.421 75.5888 117.632C76.1147 116.843 75.9394 115.967 75.3259 115.528Z" fill="#FEFEFE"/>
</g>
<g clip-path="url(#clip1_2_543)">
<path d="M38.8727 72.5799C42.4112 62.2764 36.7912 51.0363 26.4878 47.6019C16.1843 43.9592 5.0483 49.5793 1.50975 59.8827C-2.0288 70.1862 3.59125 81.4263 13.8947 84.8607C24.1981 88.3993 35.4382 82.8833 38.8727 72.5799Z" fill="#5DA5A2"/>
<path d="M22.7412 52.7014C21.4923 50.3076 17.1212 50.2036 12.9582 52.3891C8.79517 54.5747 6.40144 58.3214 7.75442 60.7151C9.00332 63.1089 13.4785 63.2129 17.6415 60.9233C21.7005 58.7377 23.9901 54.991 22.7412 52.7014Z" fill="#FEFEFE"/>
<path d="M7.12997 62.9006C6.40145 62.4843 5.3607 62.9006 4.73625 63.8373C4.21587 64.774 4.31995 65.9188 5.04847 66.3351C5.777 66.7514 6.81775 66.3351 7.4422 65.3984C8.06665 64.4618 7.8585 63.421 7.12997 62.9006Z" fill="#FEFEFE"/>
</g>
<g clip-path="url(#clip2_2_543)">
<path d="M104.889 41.216C110.472 24.9595 101.605 7.22509 85.3481 1.80625C69.0916 -3.94101 51.5214 4.92619 45.9383 21.1827C40.3553 37.4392 49.2225 55.1736 65.479 60.5925C81.7355 66.1755 99.4699 57.4725 104.889 41.216Z" fill="#5DA5A2"/>
<path d="M79.4366 9.85244C77.4661 6.07567 70.5694 5.91147 64.0011 9.35982C57.4328 12.8082 53.6561 18.7196 55.7908 22.4964C57.7613 26.2732 64.8222 26.4374 71.3905 22.8248C77.7946 19.3765 81.4071 13.465 79.4366 9.85244Z" fill="#FEFEFE"/>
<path d="M54.8055 25.9447C53.6561 25.2878 52.014 25.9447 51.0288 27.4225C50.2077 28.9004 50.3719 30.7067 51.5214 31.3635C52.6708 32.0203 54.3129 31.3635 55.2982 29.8856C56.2834 28.4078 55.955 26.7657 54.8055 25.9447Z" fill="#FEFEFE"/>
</g>
<defs>
<clipPath id="clip0_2_543">
<rect width="33.221" height="33.221" fill="white" transform="translate(69.716 101.679)"/>
</clipPath>
<clipPath id="clip1_2_543">
<rect width="39.4444" height="39.4444" fill="white" transform="translate(0.469116 46.4568)"/>
</clipPath>
<clipPath id="clip2_2_543">
<rect width="62.2346" height="62.2346" fill="white" transform="translate(44.2963)"/>
</clipPath>
</defs>
</svg>
