<svg width="308" height="235" viewBox="0 0 308 235" fill="none" xmlns="http://www.w3.org/2000/svg">
<g clip-path="url(#clip0_2_693)">
<path d="M46.2772 0C44.349 0 42.4208 0.361538 40.4926 0.964103C37.1182 2.16923 33.7439 4.33846 30.249 7.83333C27.4772 10.4846 24.9465 13.6179 21.9336 17.9564C20.9695 19.4026 19.8849 20.9692 18.6798 23.018C17.4747 24.9462 16.2695 26.8744 15.1849 28.6821C12.6542 33.141 10.3644 37.9615 8.31569 42.9026C4.57979 52.1821 2.04902 62.1846 0.723381 72.4282C-0.361235 82.1898 -0.240722 92.3128 1.20543 102.556C2.53107 112.318 5.30287 122.321 9.15928 132.323C11.0875 137.144 13.2567 141.964 15.7875 146.664C16.5106 148.11 17.3542 149.556 18.1977 151.003L18.4388 151.364L18.9208 152.208C19.8849 153.895 20.7285 155.462 21.6926 157.149C23.9824 161.005 26.1516 164.38 28.4413 167.392C31.0926 171.008 33.7439 173.78 36.6362 176.069C39.89 178.721 43.2644 180.528 46.6388 181.372C48.3259 181.854 50.1336 182.095 51.9413 182.095H52.3029C54.4721 182.095 56.6413 181.613 58.69 181.251H58.9311C60.3772 181.01 61.7029 180.769 63.0285 180.528H63.2695C64.1131 180.408 64.9567 180.408 65.5593 180.408C66.2824 180.408 66.8849 180.408 67.4875 180.528C68.4516 180.649 69.2952 180.89 70.1388 181.251C70.8618 181.613 71.5849 181.974 72.1875 182.456C72.6695 182.818 73.0311 183.18 73.3926 183.541C73.7542 184.023 73.9952 184.626 74.2362 185.228C74.3567 185.71 74.4772 186.192 74.4772 186.674C74.4772 186.915 74.4772 187.277 74.4772 187.518C74.3567 189.567 73.9952 191.615 73.6336 193.544V193.664C73.2721 195.592 72.9106 197.521 72.79 199.569C72.79 200.533 72.79 201.377 72.9106 202.1C73.0311 203.185 73.3926 204.149 73.7542 204.872C74.4772 206.68 75.6824 208.367 77.3695 210.174C78.6952 211.621 80.3823 213.067 82.6721 214.513C84.6003 215.718 86.649 216.923 89.1798 218.008C93.8798 220.177 98.8208 221.744 103.039 222.949C105.087 223.551 107.016 224.033 109.064 224.636C111.836 225.359 115.09 226.203 118.344 227.046C119.911 227.408 121.357 227.769 122.923 228.131C123.526 228.131 124.129 228.251 124.852 228.251C127.503 228.492 130.034 228.733 132.926 229.095L133.529 229.215H133.89C136.18 229.456 138.59 229.818 141 229.938C142.567 230.059 143.893 230.18 145.218 230.18C145.7 230.18 146.303 230.18 146.785 230.18C147.508 230.18 148.352 230.18 149.075 230.18C164.621 229.938 179.685 227.649 194.026 223.431C197.4 222.467 200.654 221.382 204.029 220.177C207.282 218.972 210.536 217.646 213.429 216.441C216.562 214.995 219.695 213.549 222.467 212.103C225.359 210.656 228.252 208.969 231.023 207.282C235.482 204.51 239.7 201.618 243.557 198.485C247.654 195.231 251.27 191.856 254.644 188.482C257.054 185.951 259.103 183.541 260.911 181.131C261.995 179.685 262.839 178.48 263.562 177.274C264.405 175.949 265.249 174.623 265.972 173.297C267.177 171.008 268.382 168.718 269.226 166.428C269.708 165.103 270.19 163.897 270.552 162.692L270.672 162.331L270.793 162.09L270.552 161.969L270.19 161.849C268.864 161.728 267.539 161.487 266.093 161.126L266.334 161.246C264.164 160.644 262.236 160.041 260.67 159.438C258.982 158.836 257.416 157.992 255.729 157.149C252.475 155.341 249.341 153.051 246.449 150.279L246.57 150.521C243.195 147.146 240.062 143.049 237.17 138.469C234.759 134.492 232.711 130.033 230.782 125.092C229.216 121.115 227.77 116.656 226.203 110.872V110.992L225.841 109.546L224.154 103.521C221.744 94.7231 219.334 85.5641 215.718 76.7667C213.549 71.4641 211.139 66.8846 208.367 62.7872C205.836 59.0513 202.944 55.6769 199.57 52.7846C202.823 47.9641 206.921 43.5051 211.5 39.2872H211.38C217.285 34.1051 224.034 29.5256 231.264 25.7897C238.254 22.2949 245.364 19.6436 252.354 18.1974H252.595C257.898 17.1128 263.321 16.5103 268.744 16.5103C270.311 16.5103 271.877 16.5103 273.323 16.6308C281.639 17.1128 290.316 18.9205 299.354 21.9333L299.113 21.8128C301.403 22.6564 303.452 23.3795 305.259 24.1026C305.38 24.1026 305.38 24.1026 305.5 24.2231L305.862 24.4641L306.223 24.7051C306.344 24.8256 306.464 24.8256 306.705 24.8256C306.826 24.8256 307.067 24.8256 307.187 24.7051C307.549 24.5846 307.79 24.3436 307.911 23.9821C308.031 23.6205 308.031 23.259 307.911 23.018C307.79 22.6564 307.549 22.5359 307.187 22.2949C294.534 14.7026 280.434 9.64103 266.093 7.59231C261.031 6.86923 255.849 6.50769 250.667 6.50769C248.618 6.50769 246.57 6.62821 244.4 6.74872C237.29 7.11026 230.059 8.4359 222.949 10.3641C216.08 12.2923 209.211 15.0641 202.462 18.6795C195.472 22.4154 189.205 26.7538 183.903 31.3333C180.529 34.2256 177.395 37.359 174.744 40.6128C170.405 39.2872 165.464 38.5641 159.68 38.5641C158.475 38.5641 157.39 38.5641 156.185 38.6846C151.123 38.9256 146.062 39.6487 141.241 40.2513C139.072 40.6128 136.541 40.8539 134.011 41.2154H134.131C130.154 41.5769 127.021 41.818 124.37 41.818C121.959 41.818 119.79 41.6974 117.741 41.3359L117.982 41.4564L117.741 41.3359C114.005 40.7333 110.27 39.6487 106.654 38.0821C102.798 36.3949 98.9413 34.2256 94.4824 31.2128C92.3131 29.7667 90.1439 28.2 88.4567 26.9949L88.0952 26.7538C86.408 25.5487 84.8413 24.3436 83.1541 23.018C80.8644 21.2103 78.6952 19.2821 76.6465 17.3538L76.4054 17.1128C75.6824 16.3897 74.8388 15.7872 74.1157 15.0641C70.9824 12.2923 67.367 9.15898 63.5106 6.50769C59.5336 3.7359 55.7977 1.80769 52.1824 0.84359C50.1336 0.241026 48.2054 0 46.2772 0Z" fill="#47AFAB"/>
<path d="M47.6027 9.7616C45.9155 9.7616 44.1078 10.1231 42.4207 10.7257C39.4078 11.8103 36.395 13.7385 33.2617 16.8719C30.8514 19.2821 28.4412 22.0539 25.7899 25.9103C24.8258 27.236 23.8617 28.6821 22.7771 30.3693C21.6925 32.177 20.6078 33.8642 19.6437 35.4308C17.354 39.4077 15.3053 43.7462 13.4976 48.2052C10.1232 56.5206 7.83348 65.4385 6.74886 74.5975C5.78476 83.2744 5.90527 92.3129 7.23091 101.592C8.43604 110.39 10.8463 119.308 14.3412 128.226C16.0283 132.564 18.0771 136.903 20.2463 141.121C20.9694 142.446 21.6925 143.651 22.295 144.977L22.4155 145.339L22.8976 146.182C23.7412 147.628 24.5848 149.074 25.4284 150.521C27.4771 153.895 29.4053 156.908 31.454 159.68C33.8642 162.813 36.2745 165.464 38.6848 167.513C40.2514 168.839 41.8181 169.803 43.5053 170.646L42.9027 170.044L42.3001 169.441C40.7335 167.995 39.1668 166.428 37.8412 164.741C35.3104 161.728 33.0207 158.354 30.4899 154.136C25.3078 145.339 21.3309 136.421 18.4386 127.503C16.9925 122.803 15.7873 118.223 14.9437 113.644C14.1001 108.944 13.4976 104.244 13.136 99.7847C12.7745 94.9642 12.7745 90.1437 13.0155 85.3231C13.2566 80.5026 13.8591 75.5616 14.5822 70.7411C14.9437 68.4513 15.3053 66.5231 15.6668 64.836C16.0283 63.3898 16.3899 61.9436 16.7514 60.4975C17.595 57.4847 18.5591 54.3513 19.6437 51.3385C20.8489 48.0847 22.1745 45.0718 23.5001 42.3001C25.0668 39.0462 26.754 36.2744 28.4412 33.7436C30.3694 30.8513 32.2976 28.5616 34.3463 26.5129C35.5514 25.3077 36.636 24.3436 37.7207 23.5001C38.9258 22.536 40.1309 21.8129 41.2155 21.0898C43.8668 19.6436 46.3976 18.6795 49.0489 18.318C50.1335 18.1975 51.2181 18.077 52.3027 18.077C52.6643 18.077 52.9053 18.077 53.2668 18.077C54.713 18.1975 56.2796 18.318 57.7258 18.6795C58.5694 18.9206 59.413 19.1616 60.1361 19.4026C60.8591 19.6436 61.5822 19.8847 62.4258 20.3667C63.9925 21.0898 65.5591 21.9334 67.2463 22.8975C69.8976 24.5847 72.5489 26.3924 75.0796 28.2001L75.3207 28.3206L76.5258 29.1642C80.1412 31.6949 83.5155 33.9847 86.8899 36.1539C90.8668 38.6847 94.3617 40.6129 97.6155 42.059C95.2053 40.7334 92.795 39.2872 90.1437 37.4795C88.5771 36.3949 86.8899 35.1898 84.8412 33.6231L84.4796 33.3821C83.154 32.418 81.5873 31.2129 80.1412 30.0077C78.213 28.4411 76.4053 26.8744 74.8386 25.4283L74.5976 25.3077L74.3566 25.0667C73.6335 24.4642 73.0309 23.8616 72.3078 23.259C69.536 20.8488 66.2822 17.9565 62.7873 15.6667C59.1719 13.136 55.9181 11.4488 52.6643 10.6052C50.9771 10.0026 49.2899 9.7616 47.6027 9.7616Z" fill="#2AA09A"/>
<path d="M270.31 162.09L269.949 161.969C268.623 161.849 267.298 161.608 265.851 161.246L266.092 161.366C263.682 160.643 261.875 160.041 260.428 159.438C258.741 158.836 257.174 157.992 255.487 157.149C252.233 155.341 249.1 153.051 246.208 150.279L246.328 150.52C242.954 147.025 239.821 143.049 237.049 138.469C234.639 134.492 232.59 130.154 230.662 125.092C229.095 121.115 227.649 116.777 226.082 110.872L225.962 110.992L225.721 109.546L224.033 103.52C221.623 94.6024 219.213 85.4434 215.598 76.7665C213.428 71.4639 211.018 66.8844 208.246 62.787C207.523 61.7024 206.68 60.6178 205.836 59.5331C207.041 61.4613 208.005 63.3895 208.849 65.4383C210.898 70.2588 212.344 75.4408 213.549 80.5024C214.874 86.287 215.839 92.1921 216.682 98.0972C217.526 103.641 218.49 109.184 219.695 114.608C220.177 116.777 220.9 118.946 221.503 121.115C222.346 123.646 223.19 126.056 224.154 128.466C226.082 133.528 228.372 138.469 231.023 143.29C231.023 143.29 231.023 143.29 231.023 143.169C234.759 149.918 239.218 156.425 244.641 162.09C245.605 163.054 246.569 163.897 247.533 164.861C246.81 165.946 245.967 167.031 245.244 168.115C244.882 168.718 244.521 169.2 244.039 169.802C243.436 170.525 242.833 171.128 242.11 171.851C240.303 173.779 238.495 175.587 236.687 177.395C233.313 180.649 229.818 183.661 226.082 186.433C218.49 192.338 210.416 197.4 201.859 201.618C193.182 205.956 184.023 209.572 174.744 212.223C170.164 213.549 165.464 214.633 160.885 215.477C158.475 215.838 156.185 216.32 153.774 216.561C151.846 216.802 149.798 217.043 147.869 217.164C141.121 217.766 134.251 218.249 127.503 218.369C123.887 218.369 120.151 218.369 116.536 218.128C112.8 217.887 109.185 217.525 105.449 217.043C101.833 216.441 98.3386 215.718 94.8437 214.633C91.5899 213.669 88.336 212.343 85.3232 210.656C82.4309 209.09 79.6591 207.161 77.2489 204.872C76.0437 203.787 74.9591 202.582 73.995 201.256C73.6335 200.774 73.2719 200.172 72.9104 199.69C72.9104 200.533 72.9104 201.256 73.0309 201.979C73.1514 203.064 73.513 204.028 73.8745 204.751C74.5976 206.559 75.8027 208.246 77.4899 210.054C78.936 211.5 80.6232 212.946 82.7924 214.392C84.7207 215.597 86.7694 216.802 89.3001 217.887C94.0001 220.056 98.9412 221.623 103.159 222.828C105.208 223.431 107.136 223.913 109.185 224.515C112.077 225.359 115.331 226.202 118.464 226.925C120.031 227.287 121.477 227.649 123.044 228.01C123.646 228.01 124.249 228.131 124.972 228.131C127.623 228.372 130.275 228.613 133.046 228.974L133.649 229.095H134.01H134.372C136.662 229.336 138.951 229.577 141.241 229.818C142.928 229.938 144.254 230.059 145.459 230.059C145.941 230.059 146.544 230.059 147.026 230.059C147.749 230.059 148.472 230.059 149.316 230.059C164.862 229.818 180.046 227.528 194.387 223.31C197.641 222.346 201.016 221.261 204.39 220.056C207.764 218.851 210.898 217.525 213.79 216.32C216.923 214.995 219.936 213.549 222.828 211.982C225.721 210.536 228.613 208.849 231.385 207.161C235.844 204.39 240.062 201.497 243.918 198.364C248.016 195.11 251.631 191.736 255.005 188.361C257.416 185.951 259.464 183.42 261.272 181.01C262.357 179.564 263.2 178.359 263.923 177.154C264.767 175.828 265.61 174.502 266.333 173.177C267.539 170.887 268.744 168.597 269.587 166.308C270.19 164.982 270.551 163.777 270.913 162.572L271.033 162.21L271.154 161.969L270.31 162.09Z" fill="#47AFAB"/>
<path d="M59.4129 31.2124H59.2924C59.1718 31.2124 59.0513 31.2124 58.9308 31.2124H58.6898C58.5693 31.2124 58.3282 31.2124 58.2077 31.3329H58.0872C57.6052 31.4534 57.0026 31.5739 56.5206 31.6945C55.7975 31.9355 55.0744 32.1765 54.1103 32.6586C52.4231 33.3816 50.8565 34.3457 49.4103 35.4304C47.8436 36.6355 46.3975 37.9611 45.1924 38.9252C43.8667 40.1304 42.6616 41.456 41.6975 42.5406C40.4924 43.8662 39.5282 45.0714 38.6847 46.2765C37.8411 47.3611 36.877 48.6868 35.9129 50.2534C34.3462 52.6637 32.9 55.4355 31.6949 58.2073C30.4898 61.0996 29.4052 63.9919 28.5616 67.1252C27.8385 69.897 27.1154 72.9098 26.6334 76.1637C26.1513 78.9355 25.9103 81.9483 25.6693 85.5637C25.4282 88.697 25.4283 91.8304 25.5488 94.9637C25.7898 102.797 26.8744 110.992 28.6821 119.187C28.6821 119.307 28.9231 119.428 29.0436 119.428C29.2847 119.307 29.4052 119.187 29.4052 118.946C29.1641 118.102 29.0436 117.259 28.9231 116.415C28.0795 111.956 27.477 107.497 27.3565 103.279C27.2359 100.748 27.1154 98.4586 27.2359 96.4098C27.2359 93.9996 27.3565 91.8304 27.477 89.6611C27.718 86.2868 28.2 82.6714 29.0436 78.5739C29.7667 74.9586 30.7308 71.4637 31.8154 67.9688C32.9 64.8355 33.9847 62.1842 35.3103 59.5329C36.5154 57.0022 37.9616 54.4714 39.6488 52.0611C40.8539 50.3739 42.1795 48.6868 43.5052 47.1201C44.9513 45.5534 46.518 43.9868 48.3257 42.4201L48.4462 42.2996C50.977 40.2509 53.6282 38.5637 56.4 37.1175C57.0026 36.8765 57.6052 36.6355 58.2077 36.2739L58.4488 36.1534L59.2924 35.7919H59.4129C59.8949 35.5509 60.2565 35.4304 60.4975 35.1893C60.7385 35.0688 60.9795 34.9483 61.2206 34.7073C61.5821 34.3457 61.8231 33.7432 61.7026 33.2611C61.3411 32.056 60.4975 31.2124 59.4129 31.2124Z" fill="#1C8D8A"/>
<path d="M208.125 129.913C207.884 129.913 207.764 129.913 207.523 130.033C205.474 130.636 204.751 134.492 206.077 138.71C207.161 142.446 209.451 145.218 211.5 145.218C211.741 145.218 211.861 145.218 212.102 145.097C212.705 144.977 213.187 144.495 213.548 143.892C214.513 142.205 214.513 139.433 213.669 136.541C212.343 132.685 210.054 129.913 208.125 129.913Z" fill="#A8EEE4"/>
<path d="M196.316 116.174C196.075 116.174 195.954 116.174 195.713 116.295C195.111 116.415 194.629 116.897 194.267 117.62C193.665 118.825 193.544 120.513 194.026 122.2C194.749 124.61 196.436 126.297 198.003 126.297C198.244 126.297 198.365 126.297 198.606 126.177C199.449 125.936 200.052 125.213 200.413 124.007C200.775 122.923 200.654 121.597 200.293 120.272C199.69 117.861 198.003 116.174 196.316 116.174Z" fill="#A8EEE4"/>
<path d="M198.967 81.4666C198.846 81.4666 198.726 81.4666 198.485 81.4666C195.11 81.9487 193.062 87.9743 194.026 94.9641C194.99 101.592 198.244 106.774 201.618 106.774C201.738 106.774 201.859 106.774 202.1 106.774C203.787 106.533 205.113 104.967 205.956 102.436C206.8 99.9051 207.041 96.6512 206.559 93.2769C205.595 86.6487 202.221 81.4666 198.967 81.4666Z" fill="#A8EEE4"/>
<path d="M228.613 157.39C228.493 157.39 228.252 157.39 228.131 157.511C227.769 157.631 227.649 158.113 227.528 158.595C227.528 159.077 227.649 159.68 227.89 160.162C228.372 161.005 229.095 161.488 229.698 161.488C229.818 161.488 230.059 161.487 230.18 161.367C230.421 161.246 230.541 161.005 230.662 160.764C230.782 160.162 230.662 159.439 230.3 158.836C229.939 157.872 229.216 157.39 228.613 157.39Z" fill="#A8EEE4"/>
<path d="M226.324 141.964C226.083 141.964 225.842 142.085 225.6 142.205C225.239 142.446 224.877 142.808 224.757 143.29C224.516 144.254 224.636 145.459 225.239 146.544C225.962 147.869 227.167 148.833 228.252 148.833C228.493 148.833 228.734 148.713 228.975 148.592C229.336 148.351 229.698 147.99 229.818 147.508C230.059 146.544 229.939 145.459 229.336 144.254C228.493 142.808 227.288 141.964 226.324 141.964Z" fill="#A8EEE4"/>
<path d="M213.79 114.487C213.669 114.487 213.549 114.487 213.428 114.487C213.067 114.608 212.705 114.849 212.585 115.21C212.223 115.933 212.103 117.018 212.464 117.982C212.946 119.428 213.91 120.513 214.874 120.513C214.995 120.513 215.115 120.513 215.236 120.513C215.598 120.392 215.959 120.151 216.08 119.79C216.441 119.067 216.562 117.982 216.2 117.018C215.839 115.572 214.754 114.487 213.79 114.487Z" fill="#A8EEE4"/>
<path d="M192.701 70.6207C192.58 70.6207 192.46 70.6207 192.46 70.6207C192.098 70.7412 191.736 71.1028 191.616 71.5848C191.495 72.0669 191.495 72.6694 191.616 73.272C191.977 74.3566 192.701 75.0797 193.424 75.0797C193.544 75.0797 193.665 75.0797 193.665 75.0797C193.906 74.9592 194.147 74.8387 194.267 74.4771C194.508 73.9951 194.629 73.1515 194.388 72.4284C194.267 71.4643 193.424 70.6207 192.701 70.6207Z" fill="#A8EEE4"/>
<path d="M41.8178 151.967C43.8665 154.98 49.4101 154.739 54.2306 151.485C58.9306 148.231 61.0998 143.049 59.0511 140.036C57.0024 137.023 51.4588 137.264 46.6383 140.518C41.8178 143.893 39.6486 148.954 41.8178 151.967Z" fill="#00362C"/>
<path d="M125.816 205.956C129.431 206.559 133.046 202.341 134.011 196.677C134.854 191.013 132.685 185.951 129.07 185.349C125.454 184.746 121.839 188.964 120.875 194.628C120.031 200.292 122.2 205.474 125.816 205.956Z" fill="#00362C"/>
<path d="M130.877 194.507C131.721 194.387 132.082 192.7 131.721 191.013C131.359 189.205 130.395 187.879 129.551 188.12C128.708 188.241 128.346 189.928 128.708 191.615C129.069 193.423 130.033 194.628 130.877 194.507Z" fill="#FEFEFE"/>
<path d="M131.118 197.52C131.6 197.52 132.082 196.918 132.082 196.315C132.082 195.713 131.6 195.11 131.118 195.11C130.636 195.11 130.154 195.592 130.154 196.315C130.154 197.038 130.515 197.52 131.118 197.52Z" fill="#FEFEFE"/>
<path d="M53.9899 147.508C54.713 147.99 56.0386 147.146 57.1232 145.58C58.0873 144.013 58.3283 142.446 57.6053 141.964C56.8822 141.482 55.5566 142.326 54.4719 143.892C53.5078 145.459 53.2668 147.026 53.9899 147.508Z" fill="#FEFEFE"/>
<path d="M52.0613 149.797C52.4228 150.159 53.1459 150.038 53.6279 149.556C54.11 149.074 54.11 148.472 53.7484 147.99C53.3869 147.628 52.6638 147.749 52.1818 148.231C51.6997 148.713 51.5792 149.436 52.0613 149.797Z" fill="#FEFEFE"/>
<path d="M91.711 171.249C91.1085 171.008 90.3854 171.249 90.1444 171.972C90.0239 172.213 89.9033 172.454 89.7828 172.695C89.5418 173.056 89.3008 173.418 89.0598 173.659C88.8187 173.9 88.5777 174.02 88.3367 174.141C88.0957 174.261 87.8546 174.382 87.6136 174.382C87.3726 174.382 87.1316 174.502 86.8905 174.502C86.6495 174.502 86.4085 174.502 86.1674 174.382C85.9264 174.261 85.6854 174.141 85.3239 174.02C85.0828 173.9 84.8418 173.659 84.6008 173.418C84.3598 173.177 84.1187 172.936 83.9982 172.574C83.8777 172.333 83.7572 171.972 83.6367 171.61C83.5162 171.249 83.5162 170.887 83.5162 170.405C83.5162 169.923 83.6367 169.441 83.7572 168.959C83.7572 169.079 83.7572 169.079 83.7572 169.2C83.8777 168.838 83.8777 168.597 83.7572 168.236C83.7572 168.115 83.6367 168.115 83.6367 167.995C83.6367 167.874 83.5162 167.874 83.5162 167.754C83.1546 167.272 82.311 167.151 81.829 167.513C81.4675 167.754 81.1059 168.115 80.7444 168.356C80.2623 168.597 79.7803 168.838 79.2982 168.959C78.9367 169.079 78.4546 169.079 78.0931 169.079C77.7316 169.079 77.4905 169.079 77.129 168.959C76.888 168.838 76.6469 168.838 76.4059 168.718C76.1649 168.597 76.0444 168.477 75.9239 168.356C75.8033 168.236 75.6828 168.115 75.5623 167.874C75.4418 167.754 75.4418 167.513 75.3213 167.272C75.3213 167.031 75.2008 166.79 75.2008 166.669C75.2008 166.308 75.3213 166.067 75.3213 165.826C75.4418 165.343 75.6828 164.861 75.9239 164.5C76.0444 164.259 76.1649 164.138 76.2854 163.897C76.6469 163.295 76.6469 162.572 76.0444 162.21C75.8033 162.09 75.5623 161.969 75.3213 161.969C74.9598 161.969 74.5982 162.09 74.3572 162.451C73.8751 163.174 73.3931 164.018 73.1521 164.861C72.911 165.705 72.7905 166.428 72.7905 167.272C72.911 168.597 73.6341 169.923 74.7187 170.767C75.9239 171.61 77.37 171.851 78.6957 171.731C79.4187 171.61 80.1418 171.49 80.8649 171.128C80.9854 171.128 80.9854 171.008 81.1059 171.008V171.128C81.1059 171.851 81.3469 172.695 81.7085 173.418C82.311 174.864 83.5162 175.949 84.8418 176.551C86.1675 177.154 87.7341 177.154 89.0598 176.551C90.6264 175.949 91.8315 174.382 92.4341 172.815C92.6751 172.333 92.3136 171.49 91.711 171.249Z" fill="#00362C"/>
<path d="M284.893 154.739C282.121 155.1 279.349 155.944 276.577 157.269C274.77 158.233 272.962 159.318 271.275 160.764C271.154 160.885 271.034 161.005 271.034 161.005C269.949 162.21 268.865 163.415 267.9 164.621C266.575 166.428 265.249 168.236 263.923 170.164C262.598 171.972 261.152 173.9 259.706 175.587C256.693 179.203 253.559 182.698 250.065 185.831C246.57 189.085 242.954 192.218 239.218 195.11C235.482 197.882 231.506 200.533 227.529 202.944C219.213 207.885 210.536 212.223 201.498 215.718C197.039 217.405 192.339 218.972 187.759 220.298C185.47 220.9 183.3 221.503 181.011 222.105C178.6 222.708 176.19 223.19 173.78 223.672C168.839 224.636 163.777 225.6 158.716 226.203C153.654 226.926 148.593 227.408 143.531 227.649C142.206 227.769 140.88 227.769 139.554 227.769C138.47 227.769 137.265 227.89 136.18 227.89C133.649 227.89 131.118 227.649 128.588 227.408C123.767 226.926 119.067 226.203 114.247 226.082C115.572 226.444 117.018 226.805 118.344 227.046C125.334 228.733 132.565 230.18 139.916 231.385C154.377 233.674 169.08 234.88 183.782 234.88H184.144C198.726 234.88 213.429 233.674 227.529 231.144C237.531 229.456 247.052 227.046 255.729 224.033C266.093 220.539 274.649 216.321 282.241 211.259C286.339 208.487 289.954 205.474 293.208 202.221C296.462 198.846 299.234 195.11 301.282 191.133C303.452 187.036 304.898 182.577 305.621 177.877C306.344 172.574 305.862 167.995 304.175 164.259C303.331 162.572 302.247 161.005 300.8 159.559C299.595 158.354 298.029 157.269 296.341 156.426C294.775 155.703 292.967 155.1 290.918 154.739C289.954 154.618 288.87 154.497 287.785 154.497C286.821 154.618 285.857 154.618 284.893 154.739Z" fill="#A8EEE4"/>
<path d="M284.892 154.738C282 155.1 279.228 155.944 276.577 157.269C275.251 157.992 273.926 158.715 272.6 159.679C272.961 159.559 273.444 159.438 273.805 159.438C275.251 159.197 276.818 158.956 278.264 158.956C278.385 158.956 278.505 158.956 278.746 158.956C280.072 158.956 281.277 159.077 282.602 159.318C283.567 159.559 284.651 159.92 285.615 160.282C286.579 160.644 287.423 161.005 288.267 161.608C288.99 161.969 289.592 162.451 290.195 163.054C291.279 164.018 292.364 165.223 292.967 166.669C293.208 167.151 293.449 167.633 293.569 168.115C293.69 168.597 293.81 169.079 293.931 169.682C294.051 170.767 294.172 171.851 294.051 172.936C293.931 175.346 293.328 177.756 292.485 180.167C291.52 182.697 290.315 185.228 288.99 187.638C287.544 190.049 285.977 192.459 284.169 194.749C282.482 196.918 280.795 199.087 278.867 201.015C277.3 202.703 275.613 204.269 273.926 205.715C272.841 206.559 271.756 207.403 270.672 208.126C268.744 209.451 266.936 210.777 265.008 211.982C261.272 214.392 257.295 216.682 253.318 218.731C245.485 222.708 237.41 225.841 228.974 228.251C220.659 230.661 212.102 232.349 203.546 233.554C198.243 234.277 192.941 234.759 187.638 235C201.136 234.759 214.513 233.554 227.528 231.385C237.651 229.697 247.051 227.287 255.728 224.274C266.092 220.779 274.649 216.562 282.241 211.5C286.338 208.728 289.954 205.715 293.208 202.341C296.461 198.967 299.233 195.231 301.282 191.254C303.451 187.156 304.897 182.697 305.62 177.997C306.344 172.695 305.861 168.115 304.174 164.379C303.331 162.692 302.246 161.126 300.8 159.679C299.595 158.474 298.028 157.39 296.22 156.546C294.654 155.823 292.846 155.22 290.797 154.859C289.833 154.738 288.749 154.618 287.664 154.618C286.82 154.497 285.977 154.618 284.892 154.738Z" fill="#A8EEE4"/>
</g>
<defs>
<clipPath id="clip0_2_693">
<rect width="307.669" height="235" fill="white"/>
</clipPath>
</defs>
</svg>
