<svg width="632" height="418" viewBox="0 0 632 418" fill="none" xmlns="http://www.w3.org/2000/svg">
<g opacity="0.2" clip-path="url(#clip0_2_584)" filter="url(#filter0_d_2_584)">
<path d="M279.351 0.719121C278.274 0.898901 277.376 1.25846 276.478 1.43824C275.58 1.7978 274.683 2.15736 273.605 2.6967C271.989 3.5956 270.553 4.67429 269.117 6.11253C267.86 7.37099 266.962 8.80923 266.064 10.607C265.346 12.0453 264.628 13.8431 264.448 15.8207C264.089 17.6185 264.089 19.4163 264.269 21.3938C264.448 23.1916 264.987 25.1692 265.705 26.967C266.423 28.7648 267.68 30.5626 268.937 32.1807C269.655 33.0796 270.373 33.7987 271.271 34.5178C272.169 35.4167 273.246 35.956 274.144 36.4954C275.76 37.5741 277.555 38.2932 279.89 39.0123C281.685 39.5517 283.66 39.9112 285.994 40.091C287.431 40.2708 288.687 40.2708 290.303 40.2708C293.176 40.2708 296.049 40.091 298.742 39.9112C300.717 39.7314 302.692 39.5516 304.667 39.5516C305.745 39.5516 306.642 39.3719 307.54 39.3719C307.899 39.3719 308.258 39.3719 308.617 39.3719C309.336 39.3719 310.233 39.3719 310.951 39.3719C312.208 39.3719 313.286 39.5516 314.542 39.7314C316.517 39.9112 318.313 40.091 320.288 40.6303C323.34 41.3495 326.213 42.2484 328.906 43.5068C330.343 44.2259 331.779 44.9451 333.216 45.844C334.472 46.5631 335.729 47.462 336.806 48.3609C338.063 49.2598 339.32 50.3385 340.397 51.5969L340.577 51.7767C340.577 51.7767 340.577 51.7767 340.577 51.5969C340.038 49.4396 339.5 46.9226 338.782 44.4057C338.063 42.0686 337.345 39.7314 336.268 37.3943C334.293 32.72 331.959 28.4053 328.906 24.2703C323.52 16.8993 315.979 10.4273 307.181 5.75297C302.692 3.41582 298.203 1.61802 293.535 0.719121C291.022 0.17978 288.687 0 286.174 0C283.84 0 281.505 0.17978 279.351 0.719121Z" fill="#01C0B9"/>
<path d="M286.353 6.11243C285.276 6.11243 284.199 6.29221 283.121 6.65177C283.121 6.65177 283.121 6.65177 282.942 6.65177C282.403 6.65177 281.865 7.01133 281.685 7.55067C281.326 8.09001 281.146 8.62935 281.326 9.16869C281.506 9.70803 281.685 10.2474 282.224 10.4272C282.403 10.4272 282.583 10.6069 282.762 10.6069C283.121 10.7867 283.301 10.7867 283.66 10.7867C284.737 10.9665 285.635 11.1463 286.712 11.1463C287.79 11.3261 289.047 11.3261 290.124 11.5058C292.458 11.8654 294.792 12.225 297.126 12.7643C299.819 13.4834 302.692 14.2025 305.386 15.2812C306.822 15.8206 308.258 16.3599 309.695 17.079C310.952 17.6184 312.208 18.3375 313.465 19.0566C315.081 19.9555 316.518 20.8544 317.954 21.7533C319.39 22.6522 320.647 23.7309 321.904 24.9893C323.52 26.6074 324.956 28.2254 326.213 30.203C326.393 30.5625 326.572 30.9221 326.752 31.2817C326.931 31.4614 327.111 31.6412 327.29 31.4614C327.47 31.2817 327.65 31.1019 327.47 30.9221C326.572 29.3041 325.495 27.5063 324.418 26.068C323.34 24.45 321.904 22.832 320.647 21.3937C319.211 19.7757 317.595 18.3375 316.158 17.079C314.542 15.6408 312.747 14.5621 310.952 13.3036C307.181 10.9665 303.231 9.16869 299.101 7.91023C296.947 7.19111 294.792 6.83155 292.638 6.47199C291.201 6.29221 289.944 6.11243 288.508 6.11243C287.79 6.11243 287.072 6.11243 286.353 6.11243ZM313.286 19.0566C313.286 19.0566 313.465 19.0566 313.465 19.2364C313.465 19.2364 313.286 19.2364 313.286 19.0566Z" fill="#FEFEFE"/>
<path d="M274.503 8.09012C273.964 8.44968 273.785 8.98902 273.785 9.52836C273.605 10.607 274.503 11.8655 275.76 11.8655C276.298 11.8655 276.837 11.6857 277.376 11.3262C277.914 10.9666 278.094 10.4273 278.094 9.88792C278.273 8.80924 277.376 7.55078 276.119 7.55078C275.58 7.55078 275.042 7.73056 274.503 8.09012Z" fill="#FEFEFE"/>
<path d="M354.043 7.37079C353.684 7.55057 353.146 7.73035 352.787 7.91013C352.427 8.08991 351.889 8.44947 351.53 8.62925C349.734 9.88771 348.477 11.5057 347.4 12.944C346.502 14.2024 345.784 15.6407 345.066 17.0789C344.348 18.5172 343.989 20.315 343.45 22.2925C342.732 25.8882 342.732 29.6635 343.27 33.9783C343.809 37.7536 344.707 41.7088 346.323 45.4842C347.759 49.0798 349.555 52.3158 351.889 55.1923C351.709 54.1136 351.709 53.035 351.709 51.9563C351.889 49.6191 352.427 47.282 353.146 45.1246C353.864 42.9673 354.582 40.9897 355.48 39.0121C356.198 37.2143 356.916 35.4165 357.634 33.6187C358.712 30.922 359.789 28.2253 360.866 25.5286C361.405 23.9106 361.944 22.1128 362.303 20.1352C362.662 18.1576 362.841 16.3598 362.841 14.7418C362.841 12.7642 362.303 11.1462 361.405 9.70793C360.507 8.26969 358.712 7.19101 356.916 7.01123C356.557 7.01123 356.377 7.01123 356.018 7.01123C355.3 7.19101 354.582 7.19101 354.043 7.37079Z" fill="#01C0B9"/>
<path d="M350.272 15.2813C350.093 15.2813 349.913 15.4611 349.554 15.4611C349.374 15.6409 349.195 15.8207 349.195 16.0005C348.477 17.2589 347.938 18.6972 347.399 20.3152C347.04 21.9332 346.681 23.5512 346.502 25.1693C346.322 26.7873 346.322 28.4053 346.322 30.0233C346.322 31.6413 346.502 33.2594 346.502 34.8774C346.502 35.0572 346.861 35.2369 347.04 35.2369C347.22 35.2369 347.399 35.0572 347.399 34.6976C347.399 34.338 347.399 33.7987 347.399 33.4391C347.399 30.0233 347.759 26.4277 348.656 23.1917C349.195 21.5737 349.913 19.9556 350.631 18.5174C350.811 18.1578 351.17 17.7983 351.35 17.4387C351.529 17.0791 351.709 16.8994 351.709 16.36C351.709 16.0005 351.529 15.6409 351.17 15.4611C350.99 15.2813 350.631 15.1016 350.272 15.1016C350.452 15.2813 350.272 15.2813 350.272 15.2813Z" fill="#FEFEFE"/>
<path d="M304.129 49.979C301.795 50.1588 299.46 50.5183 297.306 51.0577C294.074 51.9566 290.662 53.5746 287.79 55.732C286.174 56.8107 284.917 58.2489 284.019 59.5074C282.942 60.9456 282.224 62.7434 282.044 64.3614C281.865 66.1592 282.403 67.957 283.301 69.7548C283.84 70.6537 284.378 71.3728 284.917 71.9122C285.276 72.2717 285.635 72.4515 285.994 72.8111C286.353 73.1707 286.892 73.3504 287.251 73.5302C287.79 73.8898 288.508 74.0696 289.406 74.2493C289.765 74.2493 290.303 74.4291 290.662 74.4291C291.022 74.4291 291.56 74.4291 291.919 74.4291C292.817 74.4291 293.535 74.0696 294.074 74.0696C294.972 73.8898 295.869 73.5302 296.767 73.1707C299.819 71.9122 302.513 69.9346 305.206 68.1368L305.924 67.5975L306.822 66.8783C307.361 66.5188 308.079 65.9794 308.617 65.6199C310.413 64.5412 312.388 63.6423 314.722 62.9232H314.902C315.261 62.9232 315.44 62.7434 315.799 62.7434C316.518 62.5636 317.236 62.3838 317.774 62.2041C319.749 61.8445 321.724 61.6647 323.879 61.6647C324.059 61.6647 324.238 61.6647 324.418 61.6647C326.572 61.6647 328.727 62.0243 330.702 62.5636C331.779 62.9232 332.677 63.2827 333.575 63.8221C333.934 64.0019 334.293 64.1816 334.652 64.3614C333.754 62.5636 332.497 60.7658 330.702 59.1478C329.086 57.7096 327.29 56.2713 324.956 55.0129C321.006 52.6757 316.158 51.2375 311.131 50.5183C309.515 50.3386 307.899 50.1588 306.283 50.1588C305.924 49.979 305.026 49.979 304.129 49.979Z" fill="#01C0B9"/>
<path d="M300.717 53.9341C298.562 54.2936 296.408 55.1925 294.253 56.0915C293.176 56.6308 292.098 57.1701 291.021 57.7095C289.944 58.2488 289.046 58.9679 288.148 59.5073C287.251 60.0466 287.071 61.3051 287.61 62.204C288.328 63.2827 289.944 63.4624 290.662 62.3838C291.021 61.8444 291.56 61.4849 291.919 60.9455C292.098 60.7657 292.278 60.7657 292.278 60.586C292.996 59.8668 293.714 59.3275 294.612 58.7882C295.33 58.2488 296.228 57.8893 296.946 57.3499C298.024 56.8106 299.101 56.451 300.178 55.9117C301.435 55.5521 302.512 55.0128 303.769 54.833C303.769 54.833 303.769 54.833 303.59 54.833C305.744 54.4734 307.719 54.2936 309.874 54.2936C309.874 54.2936 309.874 54.2936 310.053 54.2936C311.31 54.2936 312.567 54.4734 313.824 54.833C314.003 54.833 314.363 54.6532 314.363 54.4734C314.363 54.2936 314.183 53.9341 314.003 53.9341C311.849 53.3947 309.694 53.215 307.54 53.215C307.36 53.215 307.36 53.215 307.181 53.215C305.206 53.3947 302.871 53.5745 300.717 53.9341ZM292.817 60.4062L292.637 60.586C292.637 60.586 292.637 60.4062 292.817 60.4062Z" fill="#FEFEFE"/>
<path d="M462.311 20.8545C455.129 21.7534 447.947 23.0119 440.226 24.8097C426.221 28.0457 411.858 32.72 397.314 38.8325C390.312 41.709 383.668 44.945 377.384 48.3609C370.92 51.7767 364.277 55.5521 357.275 60.2264C345.245 67.9569 333.215 77.1257 320.647 88.0923C315.081 92.9464 309.515 97.9802 303.59 103.913C298.742 108.587 293.715 113.801 287.071 120.812C283.121 124.947 279.351 129.082 275.58 133.217C269.655 139.689 263.73 146.161 257.446 152.633C245.955 164.499 235.9 173.847 225.666 181.758L225.486 181.938L225.306 182.117C208.07 195.421 192.808 204.59 177.546 211.242H177.726C172.519 213.399 167.312 215.197 162.105 216.815C156.719 218.433 150.973 219.512 145.048 220.411C140.2 220.95 135.532 221.309 130.684 221.309H130.325C125.836 221.309 121.168 220.95 116.141 220.411C114.166 220.231 112.37 219.871 110.395 219.512C113.088 215.556 115.602 211.601 117.936 207.646C120.27 203.331 122.425 198.657 124.22 192.904C127.632 182.657 129.427 172.05 129.248 161.622C129.248 156.948 128.889 152.094 128.171 147.42C127.811 145.442 127.452 143.285 127.093 141.307C125.836 134.116 124.4 128.363 122.605 123.149C121.527 119.734 120.27 117.217 119.014 114.88C117.936 113.082 116.32 110.565 113.986 108.947C112.909 108.228 111.832 107.688 110.575 107.509C110.216 107.329 109.677 107.329 109.138 107.329C108.42 107.329 107.702 107.509 106.984 107.688C106.086 107.868 105.188 108.407 104.111 109.306C103.034 110.205 102.136 111.284 101.238 112.183C99.0836 114.7 97.2881 117.756 96.0313 120.273C94.5949 122.97 92.9789 126.026 91.363 129.801C90.2857 132.318 89.2084 134.835 87.772 138.431L87.5925 139.15C86.8743 140.948 85.9766 142.925 85.2584 144.723C81.6674 154.251 79.6923 163.78 79.3332 173.308C78.9742 183.376 80.7696 192.904 84.3606 201.713C80.0514 197.039 75.5627 192.365 70.5354 187.691C66.9444 184.275 63.1739 181.039 59.4033 177.623C54.9146 173.668 51.5032 170.971 48.2713 168.454C43.9621 165.218 39.8325 162.521 35.7029 160.364C31.2142 158.027 26.7255 156.409 22.4163 155.69C20.6208 155.33 18.8253 155.15 16.8503 155.15C16.4912 155.15 16.1321 155.15 15.773 155.15C13.9775 155.15 12.3616 155.51 10.7456 156.049C8.23193 156.948 6.2569 158.926 5.35915 161.263C4.64096 163.42 4.64096 165.937 5.1796 169.353C5.71825 172.589 6.79554 175.645 7.87284 178.522C8.23193 179.421 8.59103 180.499 8.95013 181.398L9.48878 183.016C9.84787 183.735 10.0274 184.634 10.3865 185.353C10.7456 186.252 11.1047 187.151 11.2843 188.05C12.7207 192.005 14.5161 195.96 16.4912 199.556C18.4662 203.152 20.8003 206.388 23.1345 209.444C25.4686 212.32 28.1618 215.017 31.0346 217.534C36.2415 222.029 42.5257 225.804 49.7077 228.86C56.1715 231.557 63.3534 233.534 71.6126 235.153C78.7946 236.411 86.3357 237.13 95.4926 237.669C95.8517 237.669 96.3904 237.669 96.7495 237.669H96.929C105.547 252.052 113.627 264.636 121.707 275.963C131.043 288.907 141.098 301.132 151.332 312.098C160.848 322.346 171.621 332.234 182.933 341.582C191.551 348.594 200.529 355.246 209.865 361.358C212.02 362.257 214.174 362.976 216.329 363.875C224.588 366.752 232.847 369.269 241.286 371.246C249.725 373.224 258.164 374.482 266.782 375.381C266.603 375.381 266.603 375.381 266.423 375.381C273.964 376.1 281.685 376.28 289.405 375.92C296.587 375.561 303.949 374.842 310.951 373.583C317.415 372.505 323.699 370.887 329.804 368.909C335.908 366.931 342.013 364.594 347.759 361.718C353.504 358.841 359.25 355.785 364.636 352.189C370.202 348.594 375.409 344.459 380.437 340.144C386.9 334.571 392.825 328.638 398.571 322.346C406.651 313.537 414.012 304.368 421.374 295.019C428.735 285.671 435.917 276.322 443.638 267.333C451.179 258.344 459.258 249.535 468.056 241.625C472.365 237.849 476.675 234.074 481.343 230.658C486.011 227.242 491.039 224.006 496.066 220.95C516.355 209.084 538.799 201.174 561.96 197.578C570.938 196.14 580.095 195.421 589.072 195.421C591.765 195.421 594.279 195.421 596.972 195.601C603.616 195.96 610.259 196.32 616.902 197.039C620.314 197.399 623.546 197.938 626.957 198.477C626.777 191.466 626.059 184.275 624.623 176.185C623.366 168.814 621.571 161.263 619.057 153.173C614.927 139.509 608.823 125.307 600.743 109.666C597.511 103.374 593.74 96.7218 589.79 89.8901C586.379 84.3169 582.788 78.7437 579.197 73.5301C571.476 62.3837 563.397 53.3947 554.778 45.844C550.29 41.8888 545.621 38.2932 540.415 35.0571C535.567 32.0009 530.001 29.3042 524.076 26.7872C512.584 22.113 499.118 19.7758 484.216 19.4163C483.318 19.4163 482.42 19.4163 481.522 19.4163C475.777 19.7758 469.313 20.1354 462.311 20.8545Z" fill="#5DD2CE"/>
<path d="M586.02 187.87C584.224 187.87 582.249 187.87 580.095 188.05C577.402 188.23 574.708 188.41 572.015 188.589C563.756 189.488 555.676 190.927 547.597 193.084C543.287 194.163 539.337 195.421 535.567 196.68C531.617 197.938 527.667 199.376 523.717 200.994C513.841 204.77 504.325 209.264 495.168 214.478C490.5 217.175 486.191 219.691 482.241 222.208C478.291 224.725 474.52 227.422 470.929 229.939C467.697 232.456 464.825 234.613 462.131 236.95C458.899 239.647 456.027 242.524 453.333 245.4C450.461 248.277 447.767 251.333 445.254 254.389C442.56 257.445 440.047 260.502 437.533 263.738C435.019 266.794 432.685 269.85 430.351 273.266L426.581 278.3L424.965 280.457C422.99 283.154 421.015 285.851 418.86 288.547C415.628 292.862 411.678 298.076 407.548 303.109C403.419 307.964 399.469 312.638 395.339 316.953C390.85 321.627 386.541 325.762 382.232 329.717C377.564 334.032 372.896 337.807 368.227 341.223C363.2 344.998 358.532 348.234 353.863 351.111C348.477 354.347 343.09 357.223 337.884 359.74C332.318 362.257 326.752 364.594 321.545 366.212C318.313 367.291 315.26 368.19 312.388 368.909C309.335 369.628 306.283 370.347 303.41 370.887C296.587 372.145 290.303 373.044 284.378 373.583C280.069 373.943 275.76 374.123 271.63 374.123C269.116 374.123 267.141 374.123 265.346 373.943C259.062 373.583 253.137 373.044 247.571 371.965C241.286 370.887 235.361 369.448 229.436 367.651C223.511 365.853 217.765 363.695 212.199 361.178C208.788 359.74 205.377 357.942 201.786 356.324C206.274 359.56 211.302 362.976 216.688 366.392C239.85 380.775 264.628 391.921 290.303 399.292C313.824 406.124 338.243 409.539 362.661 409.539C364.816 409.539 366.791 409.539 368.945 409.539C395.698 408.82 422.631 403.786 448.665 394.438C461.234 389.943 473.981 384.19 486.909 377.179C497.682 371.246 508.455 364.954 518.869 358.122C529.821 350.931 540.594 343.2 550.649 334.931C561.422 326.301 571.297 317.132 580.095 307.604C589.431 297.716 597.511 287.469 604.334 276.862C611.336 265.895 616.902 254.569 620.852 242.883C623.007 236.771 624.623 230.119 625.7 223.107C626.957 215.736 627.496 208.006 627.316 199.916C627.316 198.837 627.316 197.758 627.137 196.68C626.598 196.5 626.239 196.32 625.88 196.14C622.109 194.522 618.518 193.264 615.107 192.365C613.132 191.826 611.157 191.286 609.541 190.927C607.566 190.567 605.77 190.208 603.795 189.848C598.409 189.129 593.202 188.589 588.175 188.589C587.456 187.87 586.738 187.87 586.02 187.87Z" fill="#EBFAF8"/>
<path d="M583.686 188.05C582.07 199.197 579.556 210.343 576.145 220.95C567.706 247.558 554.778 272.727 538.978 295.739C524.255 316.953 506.839 336.369 487.268 353.268C467.697 370.168 445.972 384.73 422.271 395.157C410.601 400.371 398.571 404.506 386.182 407.382C385.105 407.562 384.027 407.922 382.95 408.101C405.214 406.303 427.119 401.449 448.665 393.719C455.847 391.202 463.208 388.146 470.57 384.73C486.011 376.46 500.554 366.572 514.2 355.246L513.841 355.426C517.971 352.01 521.921 348.414 525.871 344.819C542.21 329.537 556.933 312.458 569.681 294.121C569.681 294.3 569.501 294.3 569.501 294.48C571.835 291.244 573.99 287.828 576.145 284.592C587.815 266.434 597.69 247.198 605.231 226.883C607.206 221.489 608.822 216.096 610.079 210.523C611.336 205.129 612.234 199.556 612.772 193.983C612.772 193.084 612.952 192.365 612.952 191.466C611.695 191.107 610.438 190.927 609.361 190.567C607.386 190.208 605.59 189.848 603.615 189.489C598.409 188.769 593.202 188.23 587.815 188.23C587.097 188.23 586.379 188.23 585.661 188.23C585.301 188.05 584.404 188.05 583.686 188.05Z" fill="#A8EEE4"/>
<path d="M614.209 204.77C613.132 210.882 611.516 216.995 609.541 222.927C607.746 228.141 605.77 233.355 603.616 238.568C601.641 243.422 599.307 248.276 596.973 253.13C587.277 272.906 575.606 291.783 561.961 309.222C548.315 326.84 532.694 343.2 515.457 357.583C511.507 360.819 507.378 364.055 503.248 367.111C508.455 364.055 513.662 360.819 518.689 357.403C529.642 350.212 540.415 342.481 550.469 334.211C561.242 325.582 571.118 316.413 579.915 306.885C589.072 296.997 597.332 286.749 604.155 276.322C611.157 265.355 616.723 254.029 620.673 242.344C622.828 236.231 624.444 229.579 625.521 222.568C626.778 215.197 627.316 207.466 627.137 199.376C627.137 198.297 627.137 197.219 626.957 196.14C626.598 195.96 626.06 195.78 625.7 195.601H625.88C622.469 194.162 619.057 192.904 615.646 191.825C615.466 196.32 614.927 200.455 614.209 204.77Z" fill="#A8EEE4"/>
<path d="M580.095 188.05C577.402 188.23 574.709 188.41 572.015 188.589C563.756 189.488 555.676 190.927 547.597 193.084C543.467 194.163 539.517 195.241 535.567 196.68C534.49 197.039 533.412 197.399 532.335 197.758C531.617 202.792 530.719 207.826 529.642 212.86C527.128 224.186 523.896 235.512 519.767 246.479C514.56 260.142 508.096 273.446 500.375 286.03C493.912 296.817 486.55 307.065 478.47 316.773C462.491 336.009 443.817 352.909 422.99 366.572C402.342 380.055 379.539 390.303 355.659 396.236C343.629 399.292 331.24 401.09 319.031 401.809C313.824 402.168 308.617 402.168 303.59 401.989C321.365 406.124 339.5 408.461 357.814 408.82C363.38 408.461 368.946 407.921 374.512 407.022C391.389 404.146 407.908 398.932 423.528 391.741C423.528 391.741 423.528 391.741 423.708 391.741C423.708 391.741 423.708 391.741 423.528 391.741C444.536 382.213 463.927 369.448 481.702 354.706H481.523C482.6 353.808 483.498 352.909 484.575 352.01C504.146 335.11 521.562 315.874 536.465 294.66C536.465 294.66 536.465 294.66 536.465 294.84C550.29 275.064 561.781 253.85 570.04 231.197C575.247 217.175 579.018 202.612 581.172 187.87C580.634 188.05 580.454 188.05 580.095 188.05ZM481.343 354.886C481.343 354.886 481.164 354.886 481.343 354.886C481.164 354.886 481.343 354.886 481.343 354.886ZM423.708 391.561C423.708 391.741 423.528 391.741 423.708 391.561C423.528 391.741 423.708 391.741 423.708 391.561Z" fill="#A8EEE4"/>
<path d="M523.717 200.815C514.021 204.59 504.325 209.085 495.168 214.298C492.834 215.557 490.321 216.995 487.986 218.433C487.986 218.613 487.986 218.613 487.986 218.793C484.395 232.636 479.189 245.939 472.904 258.704C466.441 271.648 458.9 284.053 450.461 295.918C442.022 307.604 432.865 318.571 422.631 328.638C417.603 333.492 412.576 338.346 407.189 342.841C401.803 347.335 396.237 351.47 390.491 355.426C379.18 362.976 366.971 369.269 354.223 374.123C341.654 378.977 328.547 382.393 315.261 384.37C301.794 386.348 288.149 386.887 274.682 385.808C267.86 385.269 261.037 384.37 254.214 383.112C250.982 382.572 247.93 381.853 244.698 381.134C259.421 388.325 274.862 394.078 290.483 398.753C306.642 400.191 322.981 399.472 339.141 396.955C357.275 393.899 375.05 388.505 391.928 380.775C391.748 380.775 391.748 380.954 391.569 380.954C410.421 372.325 428.197 360.999 444.177 347.695C444.177 347.695 444.177 347.695 443.997 347.875C461.234 333.492 476.316 316.773 489.243 298.435C489.243 298.435 489.243 298.435 489.243 298.255C489.243 298.255 489.243 298.076 489.423 298.076C494.989 289.986 500.196 281.536 504.864 272.906C509.891 263.378 514.38 253.49 518.151 243.423L518.33 243.063C518.33 243.063 518.33 243.063 518.33 243.243C521.742 234.074 524.435 224.725 526.589 215.377C527.846 209.983 528.924 204.41 529.642 198.837C527.487 199.376 525.512 200.095 523.717 200.815Z" fill="#A8EEE4"/>
<path d="M482.061 222.028C478.291 224.545 474.52 227.062 470.75 229.759C470.75 229.759 470.75 229.759 470.929 229.759C467.877 232.096 465.004 234.433 462.131 236.77C459.079 239.467 456.027 242.164 453.333 245.22C450.461 248.096 447.767 251.153 445.254 254.209C442.561 257.265 440.047 260.322 437.533 263.558C435.019 266.614 432.685 269.85 430.351 273.086C426.581 278.12 422.81 283.154 419.04 288.187C415.269 293.042 411.678 297.896 407.728 302.75C403.778 307.424 399.828 312.098 395.519 316.593C391.389 320.907 387.08 325.222 382.412 329.357C377.923 333.492 373.255 337.267 368.407 340.863C363.739 344.279 358.891 347.695 353.863 350.751C348.656 353.807 343.45 356.863 337.884 359.38C332.677 361.897 327.111 364.055 321.545 365.853C318.492 366.931 315.44 367.83 312.388 368.549C309.335 369.268 306.463 369.987 303.41 370.527C297.126 371.785 290.842 372.684 284.378 373.224C278.094 373.763 271.81 373.943 265.346 373.583C259.421 373.224 253.496 372.684 247.571 371.605C241.466 370.527 235.361 369.089 229.436 367.291C223.511 365.493 217.765 363.336 212.199 360.819C208.608 359.201 205.197 357.583 201.786 355.965C206.633 359.38 211.661 362.796 216.688 365.853C222.254 369.268 227.82 372.504 233.566 375.561C233.745 375.561 233.925 375.561 234.104 375.561C245.955 379.156 258.164 381.493 270.553 382.752C270.373 382.752 270.373 382.752 270.194 382.752C285.814 384.19 301.615 383.831 317.056 381.314C332.856 378.617 348.297 373.943 363.02 367.291C378.282 360.279 392.646 351.29 405.573 340.503C405.573 340.503 405.573 340.504 405.394 340.683C414.012 333.492 422.092 325.582 429.453 317.312C436.994 308.862 443.997 300.053 450.64 290.884C462.49 273.985 472.366 255.827 479.548 236.411C481.523 231.197 483.139 225.983 484.575 220.59C483.677 220.95 482.959 221.489 482.061 222.028ZM363.379 367.111C363.379 367.111 363.2 367.111 363.2 367.291C363.2 367.111 363.379 367.111 363.379 367.111Z" fill="#A8EEE4"/>
<path d="M206.274 358.841C205.915 358.482 205.377 358.302 205.018 357.942C208.788 360.639 212.738 363.156 216.868 365.853C222.434 369.269 228.179 372.684 233.745 375.561H233.925C234.104 375.561 234.104 375.561 234.284 375.561C243.441 378.258 252.957 380.415 262.653 381.853C265.346 382.213 268.039 382.572 270.732 382.752H270.553H270.732C276.478 383.291 282.403 383.651 288.328 383.651C298.203 383.651 307.899 382.932 317.595 381.314C330.522 379.157 343.091 375.741 355.3 370.887C342.732 370.347 330.163 369.089 317.774 367.111C316.517 367.471 315.261 367.83 314.004 368.19C313.645 368.37 313.106 368.37 312.747 368.549C309.695 369.269 306.642 369.988 303.769 370.527C296.947 371.786 290.662 372.684 284.737 373.224C280.249 373.583 275.939 373.763 271.989 373.763C269.655 373.763 267.68 373.763 265.705 373.583C259.421 373.224 253.496 372.684 247.93 371.606C244.159 370.887 240.568 370.167 236.977 369.269C234.464 368.729 232.129 368.01 229.795 367.291C228.538 366.931 227.282 366.572 226.025 366.033C222.613 364.954 219.381 363.695 216.15 362.257C214.893 361.718 213.815 361.358 212.559 360.819C210.763 360.1 208.968 359.201 207.172 358.302C205.556 357.583 203.94 356.684 202.324 355.965C203.581 356.864 205.018 357.942 206.274 358.841Z" fill="#91EEE2"/>
<path d="M367.509 370.887C365.534 370.887 363.559 370.887 361.584 370.887C359.25 371.965 356.736 373.044 354.222 373.943C341.654 378.797 328.547 382.213 315.26 384.19C306.283 385.449 297.305 386.168 288.328 386.168C283.839 386.168 279.351 385.988 274.682 385.629C267.859 385.089 260.857 384.19 254.214 382.932L253.136 382.752C250.802 382.393 248.468 381.853 246.314 381.314C245.954 381.134 245.416 381.134 245.057 380.954C257.086 386.887 269.834 391.921 282.582 396.056C285.276 396.955 287.969 397.674 290.662 398.573C296.228 399.112 301.974 399.292 307.719 399.292C318.313 399.292 328.906 398.393 339.32 396.775C357.275 393.898 375.05 388.325 392.107 380.595C400.726 376.64 409.344 371.965 417.783 366.752C400.905 369.628 384.207 371.066 367.509 370.887Z" fill="#91EEE2"/>
<path d="M467.159 354.347C459.797 356.684 452.436 359.021 445.074 360.819C438.251 362.617 431.249 364.235 424.247 365.493L422.99 366.212C401.624 380.235 379 390.123 355.659 395.876C343.45 398.932 331.061 400.73 319.031 401.449C315.261 401.629 311.49 401.809 307.899 401.809C306.642 401.809 305.385 401.809 304.129 401.809C303.949 401.809 303.769 401.809 303.59 401.809C321.186 405.944 339.5 408.281 357.634 408.64C363.021 408.281 368.766 407.741 374.332 406.843C390.671 404.146 407.19 398.932 423.349 391.561C443.279 382.392 462.85 369.988 481.343 354.527C482.241 353.807 483.318 352.909 484.396 352.01C487.268 349.493 490.141 346.976 493.014 344.279C484.575 348.054 475.957 351.47 467.159 354.347Z" fill="#91EEE2"/>
<path d="M545.263 315.334C533.413 323.604 521.024 331.155 508.096 337.627C505.583 338.886 503.069 340.144 500.376 341.223C500.376 341.223 500.376 341.223 500.555 341.223C496.246 345.538 491.757 349.493 487.448 353.268C466.8 371.066 444.895 385.269 422.451 395.157C410.242 400.55 398.212 404.685 386.362 407.382L385.644 407.562C384.926 407.741 384.028 407.921 383.31 408.101C384.208 408.101 385.105 407.921 386.183 407.921C390.492 407.562 394.621 407.022 398.751 406.483H399.11C415.808 404.146 432.506 399.831 449.025 393.898C456.207 391.382 463.568 388.325 470.93 384.909C482.6 378.797 494.271 371.246 505.583 362.617C508.455 360.28 511.508 357.942 514.38 355.605L514.201 355.785C517.971 352.729 522.101 349.133 526.231 345.358C541.133 331.515 554.958 315.874 567.168 298.795C559.986 304.368 552.624 309.941 545.263 315.334Z" fill="#91EEE2"/>
<path d="M605.95 256.187C597.331 267.513 587.995 278.299 577.761 288.187C577.042 288.907 576.324 289.626 575.606 290.165C575.606 290.165 575.606 290.165 575.606 290.345C575.606 290.345 575.606 290.345 575.786 290.165C571.476 296.637 566.988 302.929 562.319 308.862C548.315 327.02 532.694 343.2 515.816 357.223C512.584 359.92 509.173 362.616 505.941 364.954C505.223 365.493 504.505 366.032 503.786 366.572C508.634 363.695 513.662 360.639 519.048 357.043C530.001 349.852 540.774 342.121 550.828 333.852C561.601 325.222 571.476 316.053 580.274 306.525C589.611 296.637 597.691 286.39 604.513 275.962C611.516 264.996 617.082 253.67 621.032 241.984L621.391 241.085L621.75 240.006C623.007 236.231 624.084 232.096 624.982 227.781C619.057 237.849 612.773 247.377 605.95 256.187Z" fill="#91EEE2"/>
<path d="M5.53906 161.622C4.82087 163.78 4.82087 166.297 5.35951 169.713C5.89816 172.949 6.97545 176.185 8.05275 178.881C8.41184 179.78 8.59139 180.499 8.95049 181.398L9.13004 181.758L9.66868 183.376C9.84823 183.915 10.0278 184.455 10.2073 185.174L10.3869 185.713C10.746 186.612 11.1051 187.511 11.2846 188.41C12.721 192.365 14.5165 196.32 16.6711 199.916C18.6461 203.331 20.8007 206.747 23.3144 209.804C25.6485 212.68 28.3418 215.377 31.2145 217.894C36.4215 222.388 42.7057 226.164 49.8876 229.22C56.3514 231.917 63.5333 233.894 71.7926 235.512C78.9745 236.771 86.5156 237.49 95.6725 238.029C96.0316 238.029 96.5703 238.029 96.9294 238.029H97.1089C105.727 252.411 113.807 264.816 121.887 276.322C131.223 289.266 141.278 301.491 151.512 312.458C161.208 322.706 171.801 332.593 183.113 341.942C189.038 346.796 195.322 351.65 201.786 356.145C205.377 357.942 208.968 359.56 212.2 360.999C217.766 363.336 223.511 365.493 229.436 367.471C235.182 369.269 241.287 370.707 247.571 371.786C253.137 372.684 259.241 373.404 265.346 373.763C267.321 373.943 269.296 373.943 271.63 373.943C275.58 373.943 279.89 373.763 284.378 373.404C290.303 372.864 296.408 372.145 303.41 370.707C306.283 370.168 309.336 369.448 312.388 368.729C314.004 368.37 315.62 367.83 317.415 367.291C316.697 367.111 315.979 367.111 315.081 366.931C297.665 363.875 280.428 359.56 263.551 353.808C246.853 348.055 230.693 341.223 215.072 332.953C207.172 328.818 199.272 324.324 191.731 319.649C184.011 314.795 176.649 309.941 169.288 304.548C162.285 299.334 155.283 293.761 148.819 287.828C142.355 281.895 136.071 275.603 130.146 268.951C124.221 262.299 118.475 255.288 113.089 248.277C111.473 246.299 110.036 244.142 108.6 242.164C107.523 240.726 106.445 239.108 105.368 237.669C103.932 235.692 102.316 233.714 100.341 232.096C99.8022 231.737 99.2635 231.197 98.5453 230.838C98.0067 230.478 97.2885 230.119 96.7498 229.939C94.4157 229.04 91.902 228.321 89.3883 227.961C86.6951 227.422 84.0019 226.883 81.3086 226.343C76.1017 225.085 70.8948 223.826 65.8675 222.029C60.6605 220.231 55.4536 218.253 50.4263 215.916C45.5784 213.579 40.9102 211.062 36.4215 208.006C31.9327 204.949 27.8031 201.534 24.0326 197.758C20.6212 194.163 17.3893 190.208 14.6961 185.893C12.1824 180.499 10.0278 175.645 8.59139 170.432C7.8732 167.735 7.33455 165.038 6.97545 162.342C6.7959 161.443 6.7959 160.544 6.61636 159.645C6.25726 160.184 5.89816 160.724 5.53906 161.622Z" fill="#4ABBB6"/>
<path d="M100.341 231.556C100.341 231.377 100.162 231.377 100.341 231.556C100.162 231.377 100.341 231.377 100.341 231.556Z" fill="#4ABBB6"/>
<path d="M322.981 267.333C321.545 267.333 319.929 267.513 318.492 267.693C315.979 268.052 313.645 268.771 311.49 269.67C310.413 270.209 309.515 270.749 308.258 271.468C307.181 272.187 306.283 273.086 305.385 273.985C305.026 274.344 305.026 274.884 305.026 275.243C303.949 276.861 302.872 278.3 301.794 279.378C298.562 282.974 294.971 286.39 291.56 289.626L289.405 291.783C284.737 296.278 280.248 300.592 276.298 305.446C273.426 308.862 270.014 313.716 269.116 318.93C268.757 321.087 268.937 323.424 269.835 325.402C270.732 327.38 272.348 329.357 274.682 330.975C275.939 331.874 277.555 332.773 278.812 333.312C280.248 334.031 281.864 334.751 283.839 335.29C288.149 336.728 292.817 337.627 297.665 337.987C299.46 338.166 301.256 338.166 303.051 338.166C305.924 338.166 308.976 337.987 312.029 337.627C316.697 337.088 321.365 336.009 326.033 334.571C335.37 331.694 343.988 327.2 351.35 321.447C355.3 318.391 358.711 314.975 361.045 311.199C363.739 307.064 365.175 302.75 365.355 298.435C365.534 293.94 364.098 289.446 361.225 285.491C359.609 283.154 357.454 280.996 354.402 278.659C351.709 276.682 348.657 274.704 344.886 272.906C341.475 271.288 337.884 269.85 334.113 268.951C330.522 267.872 326.752 267.333 322.981 267.333Z" fill="#5DD2CE"/>
<path d="M357.454 314.615C353.684 316.952 349.554 318.93 345.245 320.548C343.09 321.447 340.756 322.166 338.602 322.885C335.909 323.604 333.395 324.503 330.702 325.043C325.495 326.301 320.108 327.38 314.722 328.099C309.335 328.638 303.949 328.818 298.562 328.279C297.126 328.099 295.69 327.919 294.253 327.739C292.996 327.559 291.919 327.38 290.662 327.02C289.226 326.661 287.789 326.301 286.533 325.762C284.917 325.222 283.301 324.503 281.864 323.784C280.428 323.065 278.812 322.166 277.555 321.087C276.298 320.188 275.041 319.11 273.964 317.851C273.426 317.312 272.887 316.593 272.528 315.874C272.169 315.334 271.81 314.615 271.63 313.896C271.45 313.537 271.451 313.177 271.271 312.817C270.373 314.615 269.655 316.593 269.296 318.75C268.937 320.908 269.116 323.065 270.014 325.222C270.912 327.2 272.528 329.177 274.862 330.796C276.119 331.694 277.735 332.593 278.992 333.133C280.428 333.852 282.044 334.571 284.019 335.11C288.328 336.548 292.996 337.447 297.844 337.807C299.64 337.987 301.435 337.987 303.231 337.987C306.103 337.987 309.156 337.807 312.208 337.447C316.876 336.908 321.545 335.829 326.213 334.391C335.549 331.515 344.168 327.02 351.529 321.267C355.12 318.57 358.173 315.334 360.507 312.098C359.609 313.177 358.532 313.896 357.454 314.615Z" fill="#4ABBB6"/>
<path d="M303.051 277.041C301.794 278.659 300.358 280.277 298.921 281.715C297.485 283.333 295.869 284.772 294.253 286.21C291.021 289.266 287.61 292.143 284.378 295.019C281.146 298.075 277.914 301.132 275.221 304.547C273.964 306.165 272.707 307.963 271.63 309.761C271.091 310.66 270.553 311.559 270.194 312.458C269.655 313.536 269.116 314.615 268.757 315.694C268.398 316.772 268.219 317.671 268.039 318.75C267.859 319.829 268.039 320.907 268.039 321.806C268.219 322.705 268.398 323.604 268.757 324.503C269.116 325.402 269.475 326.121 270.014 327.02C272.169 330.436 275.58 332.773 278.992 334.571C283.301 336.728 287.789 337.807 292.458 338.706C295.151 339.245 298.024 339.425 300.896 339.425C303.769 339.425 306.462 339.245 309.335 339.065C312.028 338.706 314.722 338.346 317.235 337.807C319.929 337.267 322.622 336.548 325.136 335.829C329.624 334.391 334.113 332.773 338.422 330.615C342.731 328.638 346.681 326.121 350.452 323.245C354.402 320.368 357.993 317.132 361.225 313.357C361.404 313.177 361.404 312.997 361.225 312.637C361.045 312.458 360.686 312.458 360.507 312.637C357.634 315.874 354.582 318.75 350.991 321.267C345.425 325.042 339.32 328.099 333.036 330.436C333.036 330.436 333.036 330.436 333.215 330.436H333.036H332.856C332.856 330.436 332.856 330.436 333.036 330.436C329.624 331.694 326.213 332.773 322.622 333.672C318.313 334.75 314.183 335.649 309.694 336.189C307.181 336.368 304.487 336.548 301.974 336.368C299.46 336.368 296.767 336.009 294.253 335.649H294.433H294.253H294.074C294.074 335.649 294.074 335.649 294.253 335.649C291.739 335.29 289.226 334.571 286.712 333.852C285.096 333.312 283.301 332.773 281.685 332.054C279.53 331.155 277.555 329.896 275.76 328.458C274.682 327.559 273.785 326.66 272.887 325.582C272.348 324.863 271.989 323.964 271.63 323.065C271.45 322.346 271.271 321.626 271.091 320.728C271.091 319.829 271.091 319.11 271.091 318.211C271.271 316.772 271.81 315.514 272.348 314.076C273.785 311.019 275.58 308.143 277.735 305.626C281.864 300.772 286.533 296.637 291.201 292.322C293.535 290.165 295.869 288.008 298.024 285.67C300.178 283.333 302.333 280.996 304.128 278.479C304.487 278.12 304.308 277.58 303.949 277.221C303.769 277.041 303.41 276.861 303.231 276.861C303.41 276.681 303.051 276.861 303.051 277.041ZM278.273 305.626L278.094 305.806L278.273 305.626ZM272.887 314.076C272.707 314.076 272.707 314.255 272.887 314.076C272.707 314.255 272.707 314.076 272.887 314.076ZM281.864 331.874C282.044 331.874 282.223 332.054 282.223 332.054C282.223 332.054 282.044 332.054 281.864 331.874Z" fill="#119C97"/>
<path d="M354.762 101.036C359.609 106.789 371.46 104.991 381.155 96.7216C390.851 88.6315 394.801 77.3053 389.953 71.3726C385.105 65.6196 373.255 67.4174 363.559 75.6873C353.864 83.9572 349.914 95.2833 354.762 101.036Z" fill="#A8EEE4"/>
<path d="M319.031 122.43C321.903 125.307 328.188 123.689 332.856 118.835C337.704 113.981 339.14 107.868 336.267 104.992C333.395 102.115 327.11 103.733 322.442 108.587C317.774 113.261 316.158 119.554 319.031 122.43Z" fill="#A8EEE4"/>
<path d="M440.047 55.1927C440.765 58.7883 447.229 60.5861 454.59 59.3276C461.952 58.0691 467.518 54.114 466.979 50.5184C466.261 46.9228 459.797 45.125 452.436 46.3834C445.074 47.6419 439.508 51.5971 440.047 55.1927Z" fill="#A8EEE4"/>
<path d="M405.214 59.6868C406.83 62.7431 411.319 63.2824 415.269 61.1251C419.219 58.9677 421.194 54.8328 419.578 51.7765C417.962 48.7202 413.474 48.1809 409.524 50.3383C405.574 52.4956 403.598 56.6306 405.214 59.6868Z" fill="#A8EEE4"/>
<path d="M282.044 169.533C284.378 171.87 289.047 171.151 292.099 167.915C295.331 164.679 295.869 160.184 293.535 157.847C291.201 155.51 286.533 156.229 283.481 159.465C280.249 162.521 279.53 167.196 282.044 169.533Z" fill="#A8EEE4"/>
<path d="M303.769 140.408C304.847 141.487 307.001 141.127 308.438 139.689C309.874 138.251 310.233 136.093 309.156 135.015C308.079 133.936 305.924 134.296 304.488 135.734C303.051 137.172 302.692 139.329 303.769 140.408Z" fill="#A8EEE4"/>
<path d="M350.811 127.104C351.888 128.183 354.043 127.824 355.479 126.385C356.916 124.947 357.275 122.79 356.198 121.711C355.12 120.632 352.966 120.992 351.529 122.43C349.913 124.048 349.734 126.026 350.811 127.104Z" fill="#A8EEE4"/>
<path d="M407.548 78.2043C408.087 79.4628 409.882 79.8223 411.498 78.9234C413.114 78.2043 414.012 76.5863 413.473 75.3278C412.935 74.0694 411.139 73.7098 409.523 74.6087C407.907 75.5076 407.01 76.9458 407.548 78.2043Z" fill="#A8EEE4"/>
<path d="M432.327 213.399C436.995 213.399 440.766 206.927 440.945 198.657C441.125 190.387 437.354 183.735 432.686 183.735C428.018 183.735 424.247 190.207 424.067 198.477C423.888 206.567 427.658 213.219 432.327 213.399Z" fill="#197967"/>
<path d="M599.666 164.139C603.616 161.802 603.616 154.072 599.306 147.06C595.177 140.049 588.534 136.273 584.404 138.611C580.454 140.948 580.454 148.678 584.763 155.69C589.072 162.701 595.716 166.476 599.666 164.139Z" fill="#197967"/>
<path d="M436.815 195.061C435.378 195.421 433.224 193.803 432.326 191.466C431.249 189.129 431.608 186.791 433.224 186.432C434.66 186.072 436.815 187.69 437.713 190.027C438.61 192.365 438.251 194.702 436.815 195.061Z" fill="#FEFEFE"/>
<path d="M437.174 199.017C436.276 199.017 435.379 198.477 435.379 197.578C435.379 196.68 435.917 195.96 436.815 195.96C437.713 195.96 438.61 196.5 438.61 197.399C438.79 198.118 438.072 198.837 437.174 199.017Z" fill="#FEFEFE"/>
<path d="M594.818 147.06C593.741 148.139 591.047 147.6 589.072 145.802C587.097 144.004 586.379 141.847 587.456 140.948C588.534 139.869 591.227 140.408 593.202 142.206C595.177 143.824 595.895 145.982 594.818 147.06Z" fill="#FEFEFE"/>
<path d="M596.793 150.296C596.075 150.836 594.998 150.656 594.638 149.937C594.1 149.218 594.459 148.319 595.177 147.779C595.895 147.24 596.973 147.42 597.332 148.139C597.87 148.858 597.511 149.757 596.793 150.296Z" fill="#FEFEFE"/>
<path d="M517.073 155.51C516.355 155.69 515.816 156.409 515.996 157.128C516.355 158.746 516.535 160.364 516.714 161.982V161.802C516.714 161.982 516.714 161.982 516.714 162.162C516.894 163.78 516.714 165.398 516.535 166.836C516.355 167.915 515.996 168.993 515.457 170.072C515.098 170.971 514.56 171.69 514.021 172.409C513.482 173.128 512.764 173.668 512.046 174.207C511.328 174.746 510.43 175.286 509.532 175.645C508.634 176.005 507.557 176.185 506.48 176.364C505.403 176.364 504.325 176.364 503.248 176.185C502.171 176.005 501.093 175.645 500.016 175.106C498.939 174.567 498.041 173.847 496.964 173.128C495.887 172.229 494.989 171.331 494.271 170.252C493.373 168.993 492.655 167.735 492.116 166.297C491.757 165.578 490.859 165.398 490.32 165.757C489.961 165.937 489.782 166.117 489.602 166.476C489.423 166.836 489.602 167.196 489.602 167.555C490.32 169.173 491.218 170.791 492.296 172.229C493.193 173.488 494.45 174.746 495.707 175.645C498.041 177.443 500.734 178.522 503.607 178.881C506.3 179.241 508.994 178.701 511.507 177.443C514.021 176.185 515.996 174.207 517.253 171.69C518.33 169.712 518.869 167.555 519.048 165.398C519.407 162.342 518.869 159.465 518.151 156.409C517.971 155.869 517.432 155.33 516.894 155.33C517.253 155.51 517.253 155.51 517.073 155.51ZM494.271 169.712C494.271 169.892 494.45 169.892 494.271 169.712C494.45 169.892 494.271 169.892 494.271 169.712ZM500.196 174.926C500.196 174.926 500.375 174.926 500.375 175.106C500.375 175.106 500.375 174.926 500.196 174.926Z" fill="#197967"/>
<path d="M540.055 145.083C539.696 145.083 539.337 145.442 539.157 145.622C538.978 145.802 538.798 146.341 538.978 146.701C539.337 147.779 539.696 148.678 539.876 149.757C540.055 150.656 540.235 151.555 540.235 152.454C540.235 153.712 540.235 155.15 540.055 156.409C539.876 157.487 539.516 158.386 539.157 159.285C538.798 160.184 538.26 160.903 537.541 161.802C537.003 162.521 536.285 163.061 535.566 163.6C534.848 164.139 534.13 164.499 533.232 164.858C532.514 165.038 531.616 165.218 530.719 165.398C529.821 165.398 529.103 165.398 528.205 165.218C527.307 165.038 526.589 164.679 525.691 164.319C524.793 163.78 523.896 163.24 523.178 162.701C522.28 161.802 521.382 160.903 520.664 159.825C519.946 158.746 519.227 157.667 518.689 156.409C518.33 155.69 517.432 155.51 516.893 155.869C516.175 156.229 515.996 156.948 516.355 157.667C517.791 160.903 519.946 163.96 522.998 165.937C524.255 166.656 525.512 167.375 526.948 167.735C527.666 167.915 528.384 168.095 529.103 168.095C529.821 168.095 530.539 168.095 531.257 168.095C533.95 167.915 536.464 166.476 538.439 164.679C539.517 163.78 540.235 162.521 540.953 161.263C541.312 160.544 541.671 159.825 541.851 159.285C542.21 158.566 542.389 157.667 542.389 156.768C542.748 155.15 542.569 153.532 542.569 152.094C542.389 150.116 541.851 148.319 541.132 146.341C540.953 145.982 540.953 145.622 540.594 145.442C540.414 145.262 540.055 145.262 539.876 145.262C540.235 145.083 540.235 145.083 540.055 145.083ZM523.537 162.881L523.716 163.061C523.716 162.881 523.537 162.881 523.537 162.881ZM526.05 164.499C526.05 164.499 526.23 164.499 526.05 164.499C526.23 164.499 526.05 164.499 526.05 164.499ZM533.771 164.679H533.591C533.591 164.858 533.771 164.679 533.771 164.679Z" fill="#197967"/>
<path d="M481.523 23.5511C479.727 23.5511 477.752 23.5511 475.777 23.7309C474.879 23.7309 474.161 23.7309 473.263 23.9107C467.697 24.2703 461.772 24.9894 455.488 26.0681C449.024 27.3265 442.381 28.7648 435.558 30.9221C422.99 34.6975 410.062 39.7314 397.314 46.2035C391.21 49.2597 385.105 52.6755 379.718 55.9116C373.973 59.3274 368.227 63.2826 362.123 67.7771C357.634 71.1929 352.966 74.7885 348.477 78.7437C351.888 76.5863 355.12 74.4289 358.173 72.6311C364.995 68.4962 372.177 64.9006 379.539 61.4848C383.309 59.687 387.259 58.0689 391.03 56.6307C393.185 55.7318 395.339 55.0127 397.494 54.1138C399.469 53.3947 401.623 52.4958 403.598 51.7766C413.653 48.181 421.733 45.4843 429.274 43.5068C438.97 40.81 447.767 39.0122 456.206 37.9336C459.618 37.574 462.67 37.2144 465.543 37.0347C468.416 36.8549 471.109 36.8549 473.802 36.8549C476.675 36.8549 479.368 37.0347 482.241 37.2144C489.961 37.7538 497.502 39.0122 504.684 40.9898C512.225 43.1472 519.407 45.8439 526.051 49.2597C532.874 52.8553 539.337 56.9903 545.083 61.6645C547.776 63.8219 550.828 66.5186 553.881 69.3951C556.933 72.2716 559.985 75.3278 562.679 78.3841C568.245 84.4966 573.631 91.1485 578.658 98.1599C583.506 104.812 587.995 111.823 592.304 119.194C594.818 123.329 596.793 126.925 598.588 130.341C600.743 134.296 602.538 138.251 604.334 142.026C607.925 149.937 610.977 158.027 613.311 165.937C613.85 167.555 614.209 169.353 614.748 170.971C614.209 167.016 613.491 162.881 612.414 158.207C610.798 151.555 608.643 144.903 605.95 137.532C601.282 125.307 594.997 112.722 586.918 99.0588C583.686 93.4856 579.915 87.7327 575.786 81.7999C572.374 76.9459 568.783 72.0918 565.192 67.5973C557.472 57.8892 549.751 50.1586 541.492 43.6865C537.362 40.4505 532.694 37.3942 527.846 34.6975C523.178 32.1806 518.151 30.0232 512.585 28.2254C503.248 25.1692 492.834 23.5511 481.523 23.5511Z" fill="#4ABBB6"/>
<path d="M114.525 124.228C113.987 124.408 113.628 124.768 113.269 125.127C112.909 125.667 112.909 126.206 113.089 126.745C113.628 129.262 114.166 131.599 114.525 133.936C115.064 136.453 115.423 138.97 115.782 141.487C115.782 141.307 115.782 141.307 115.782 141.128C116.5 146.701 117.039 152.094 117.039 157.667C117.039 160.364 116.86 163.241 116.86 165.937C116.68 168.814 116.321 171.69 115.962 174.567V174.207C115.603 176.724 115.244 179.061 114.705 181.578C114.166 184.095 113.628 186.612 112.909 189.129C111.473 194.163 109.857 199.197 107.882 204.051C107.343 205.129 106.984 206.388 106.446 207.467C106.266 207.646 106.446 208.006 106.625 208.186C106.805 208.365 107.164 208.186 107.343 208.006C109.678 202.972 111.832 197.938 113.628 192.725C115.423 187.691 117.039 182.477 118.116 177.084C119.194 171.87 120.091 166.477 120.63 161.083C121.169 155.69 121.169 150.296 120.81 144.903C120.63 141.667 120.271 138.431 119.732 135.195C119.194 131.959 118.475 128.543 117.578 125.307C117.219 124.408 116.5 123.689 115.603 123.689C114.884 124.049 114.705 124.049 114.525 124.228Z" fill="#4ABBB6"/>
<path d="M107.702 137.712C106.984 137.891 106.625 138.611 106.804 139.33C107.343 141.487 107.702 143.644 108.061 145.802C108.779 152.094 108.6 158.566 107.702 164.858C107.343 167.016 106.984 169.353 106.625 171.51C106.625 171.87 106.804 172.229 107.163 172.409C107.522 172.589 107.881 172.229 108.061 171.87C109.138 166.476 110.036 161.083 110.395 155.51C110.575 152.633 110.754 149.937 110.575 147.06C110.575 145.622 110.395 144.364 110.216 142.925C110.036 141.487 109.857 140.049 109.497 138.611C109.318 138.071 108.779 137.532 108.241 137.532C107.881 137.532 107.702 137.712 107.702 137.712ZM107.881 145.442V145.622C107.881 145.622 107.881 145.622 107.881 145.442Z" fill="#4ABBB6"/>
<path d="M19.7234 163.42C19.1848 163.6 18.8257 163.96 18.4666 164.319C18.1075 164.858 18.1075 165.398 18.287 165.937C18.4666 166.656 19.0052 167.196 19.7234 167.375C21.5189 167.915 23.1349 168.634 24.7508 169.353C27.2645 170.432 29.7782 171.69 32.1123 172.949C34.626 174.207 36.9601 175.645 39.2943 177.083C41.6284 178.522 43.9625 179.96 46.2967 181.578C48.6308 183.196 50.9649 184.814 53.1195 186.612L52.94 186.432C56.3514 188.949 59.5833 191.646 62.6356 194.522C65.8675 197.399 69.0993 200.275 72.3312 203.152C72.5108 203.331 72.8699 203.331 73.0494 203.152C73.229 202.972 73.229 202.612 73.0494 202.432C69.2789 198.837 65.5084 195.421 61.7378 192.005C57.9673 188.589 54.0173 185.174 50.0672 181.938C46.1171 178.701 41.9875 175.645 37.8579 172.769C33.5487 169.892 29.06 167.375 24.5713 165.218C23.494 164.679 22.4167 164.139 21.1598 163.6C21.1598 163.6 20.9803 163.6 20.8007 163.42C20.6212 163.42 20.4416 163.42 20.2621 163.42C20.0825 163.42 19.903 163.42 19.7234 163.42Z" fill="#4ABBB6"/>
</g>
<g clip-path="url(#clip1_2_584)" filter="url(#filter1_d_2_584)">
<path d="M290.958 15.8126C289.923 15.9854 289.06 16.331 288.197 16.5039C287.334 16.8495 286.471 17.1951 285.435 17.7136C283.882 18.5776 282.501 19.6145 281.121 20.997C279.913 22.2067 279.05 23.5893 278.187 25.3174C277.496 26.6999 276.806 28.4281 276.633 30.329C276.288 32.0572 276.288 33.7853 276.461 35.6863C276.633 37.4144 277.151 39.3154 277.841 41.0436C278.532 42.7717 279.74 44.4999 280.948 46.0552C281.638 46.9193 282.329 47.6105 283.192 48.3018C284.055 49.1659 285.09 49.6843 285.953 50.2027C287.507 51.2396 289.233 51.9309 291.476 52.6222C293.202 53.1406 295.101 53.4862 297.344 53.659C298.725 53.8319 299.933 53.8319 301.487 53.8319C304.248 53.8319 307.01 53.659 309.598 53.4862C311.497 53.3134 313.395 53.1406 315.294 53.1406C316.329 53.1406 317.192 52.9678 318.055 52.9678C318.401 52.9678 318.746 52.9678 319.091 52.9678C319.781 52.9678 320.644 52.9678 321.335 52.9678C322.543 52.9678 323.578 53.1406 324.787 53.3134C326.685 53.4862 328.411 53.659 330.309 54.1775C333.244 54.8687 336.005 55.7328 338.594 56.9425C339.975 57.6338 341.355 58.325 342.736 59.1891C343.944 59.8804 345.152 60.7445 346.188 61.6085C347.396 62.4726 348.604 63.5095 349.64 64.7192L349.812 64.892C349.812 64.892 349.812 64.892 349.812 64.7192C349.295 62.6454 348.777 60.226 348.086 57.8066C347.396 55.56 346.706 53.3134 345.67 51.0668C343.772 46.5736 341.528 42.4261 338.594 38.4513C333.416 31.3659 326.167 25.1446 317.71 20.6514C313.395 18.4048 309.081 16.6767 304.593 15.8126C302.177 15.2942 299.933 15.1213 297.517 15.1213C295.273 15.1213 293.03 15.2942 290.958 15.8126Z" fill="#01C0B9"/>
<path d="M297.69 20.9969C296.654 20.9969 295.619 21.1698 294.583 21.5154C294.583 21.5154 294.583 21.5154 294.411 21.5154C293.893 21.5154 293.375 21.861 293.202 22.3795C292.857 22.8979 292.685 23.4164 292.857 23.9348C293.03 24.4532 293.202 24.9717 293.72 25.1445C293.893 25.1445 294.065 25.3173 294.238 25.3173C294.583 25.4901 294.756 25.4901 295.101 25.4901C296.136 25.6629 296.999 25.8358 298.035 25.8358C299.07 26.0086 300.279 26.0086 301.314 26.1814C303.558 26.527 305.802 26.8727 308.045 27.3911C310.634 28.0824 313.396 28.7736 315.985 29.8105C317.365 30.3289 318.746 30.8474 320.127 31.5387C321.335 32.0571 322.543 32.7484 323.751 33.4396C325.305 34.3037 326.685 35.1678 328.066 36.0318C329.447 36.8959 330.655 37.9328 331.863 39.1425C333.416 40.6978 334.797 42.2532 336.005 44.1541C336.178 44.4998 336.35 44.8454 336.523 45.191C336.696 45.3638 336.868 45.5367 337.041 45.3638C337.213 45.191 337.386 45.0182 337.213 44.8454C336.35 43.2901 335.315 41.5619 334.279 40.1794C333.244 38.6241 331.863 37.0687 330.655 35.6862C329.274 34.1309 327.721 32.7484 326.34 31.5387C324.787 30.1561 323.061 29.1192 321.335 27.9095C317.71 25.6629 313.913 23.9348 309.944 22.7251C307.873 22.0338 305.802 21.6882 303.73 21.3426C302.35 21.1698 301.142 20.9969 299.761 20.9969C299.07 20.9969 298.38 20.9969 297.69 20.9969ZM323.579 33.4396C323.579 33.4396 323.751 33.4396 323.751 33.6124C323.751 33.6124 323.579 33.6124 323.579 33.4396Z" fill="#FEFEFE"/>
<path d="M286.298 22.898C285.781 23.2436 285.608 23.762 285.608 24.2805C285.435 25.3174 286.298 26.5271 287.507 26.5271C288.024 26.5271 288.542 26.3543 289.06 26.0086C289.578 25.663 289.75 25.1446 289.75 24.6261C289.923 23.5892 289.06 22.3795 287.852 22.3795C287.334 22.3795 286.816 22.5523 286.298 22.898Z" fill="#FEFEFE"/>
<path d="M362.757 22.2066C362.412 22.3794 361.894 22.5522 361.549 22.725C361.204 22.8979 360.686 23.2435 360.341 23.4163C358.615 24.626 357.407 26.1813 356.371 27.5639C355.508 28.7736 354.818 30.1561 354.128 31.5386C353.437 32.9211 353.092 34.6493 352.574 36.5502C351.884 40.0065 351.884 43.6356 352.402 47.7832C352.919 51.4123 353.782 55.2142 355.336 58.8433C356.716 62.2996 358.442 65.4103 360.686 68.1753C360.514 67.1385 360.514 66.1016 360.514 65.0647C360.686 62.8181 361.204 60.5715 361.894 58.4977C362.585 56.4239 363.275 54.523 364.138 52.622C364.828 50.8939 365.519 49.1657 366.209 47.4376C367.245 44.8453 368.28 42.2531 369.316 39.6609C369.833 38.1056 370.351 36.3774 370.696 34.4764C371.042 32.5755 371.214 30.8473 371.214 29.292C371.214 27.391 370.696 25.8357 369.834 24.4532C368.971 23.0707 367.245 22.0338 365.519 21.861C365.174 21.861 365.001 21.861 364.656 21.861C363.965 22.0338 363.275 22.0338 362.757 22.2066Z" fill="#01C0B9"/>
<path d="M359.132 29.8106C358.96 29.8106 358.787 29.9834 358.442 29.9834C358.269 30.1563 358.097 30.3291 358.097 30.5019C357.407 31.7116 356.889 33.0941 356.371 34.6494C356.026 36.2048 355.681 37.7601 355.508 39.3154C355.335 40.8708 355.335 42.4261 355.335 43.9814C355.335 45.5368 355.508 47.0921 355.508 48.6474C355.508 48.8203 355.853 48.9931 356.026 48.9931C356.198 48.9931 356.371 48.8203 356.371 48.4746C356.371 48.129 356.371 47.6106 356.371 47.2649C356.371 43.9814 356.716 40.5252 357.579 37.4145C358.097 35.8592 358.787 34.3038 359.478 32.9213C359.65 32.5757 359.995 32.23 360.168 31.8844C360.341 31.5388 360.513 31.366 360.513 30.8475C360.513 30.5019 360.341 30.1563 359.995 29.9834C359.823 29.8106 359.478 29.6378 359.132 29.6378C359.305 29.8106 359.132 29.8106 359.132 29.8106Z" fill="#FEFEFE"/>
<path d="M314.776 63.1639C312.533 63.3368 310.289 63.6824 308.218 64.2008C305.111 65.0649 301.832 66.6202 299.07 68.694C297.517 69.7309 296.309 71.1134 295.446 72.3231C294.41 73.7056 293.72 75.4338 293.548 76.9891C293.375 78.7173 293.893 80.4454 294.756 82.1736C295.273 83.0376 295.791 83.7289 296.309 84.2474C296.654 84.593 296.999 84.7658 297.345 85.1114C297.69 85.4571 298.207 85.6299 298.553 85.8027C299.07 86.1483 299.761 86.3211 300.624 86.4939C300.969 86.4939 301.487 86.6668 301.832 86.6668C302.177 86.6668 302.695 86.6668 303.04 86.6668C303.903 86.6668 304.593 86.3211 305.111 86.3211C305.974 86.1483 306.837 85.8027 307.7 85.4571C310.634 84.2474 313.223 82.3464 315.812 80.6182L316.502 80.0998L317.365 79.4085C317.883 79.0629 318.573 78.5445 319.091 78.1988C320.817 77.1619 322.716 76.2979 324.959 75.6066H325.132C325.477 75.6066 325.65 75.4338 325.995 75.4338C326.685 75.261 327.376 75.0882 327.893 74.9153C329.792 74.5697 331.69 74.3969 333.762 74.3969C333.934 74.3969 334.107 74.3969 334.279 74.3969C336.35 74.3969 338.422 74.7425 340.32 75.261C341.356 75.6066 342.219 75.9522 343.082 76.4707C343.427 76.6435 343.772 76.8163 344.117 76.9891C343.254 75.261 342.046 73.5328 340.32 71.9775C338.767 70.595 337.041 69.2125 334.797 68.0028C331 65.7562 326.34 64.3736 321.507 63.6824C319.954 63.5096 318.401 63.3368 316.847 63.3368C316.502 63.1639 315.639 63.1639 314.776 63.1639Z" fill="#01C0B9"/>
<path d="M311.497 66.9658C309.426 67.3114 307.355 68.1755 305.284 69.0396C304.248 69.558 303.212 70.0765 302.177 70.5949C301.141 71.1133 300.278 71.8046 299.415 72.3231C298.552 72.8415 298.38 74.0512 298.898 74.9153C299.588 75.9522 301.141 76.125 301.832 75.0881C302.177 74.5696 302.695 74.224 303.04 73.7056C303.212 73.5328 303.385 73.5328 303.385 73.3599C304.075 72.6687 304.766 72.1502 305.629 71.6318C306.319 71.1134 307.182 70.7677 307.872 70.2493C308.908 69.7308 309.943 69.3852 310.979 68.8668C312.187 68.5211 313.223 68.0027 314.431 67.8299C314.431 67.8299 314.431 67.8299 314.258 67.8299C316.329 67.4842 318.228 67.3114 320.299 67.3114C320.299 67.3114 320.299 67.3114 320.472 67.3114C321.68 67.3114 322.888 67.4842 324.096 67.8299C324.269 67.8299 324.614 67.6571 324.614 67.4842C324.614 67.3114 324.441 66.9658 324.269 66.9658C322.198 66.4474 320.126 66.2745 318.055 66.2745C317.883 66.2745 317.883 66.2745 317.71 66.2745C315.812 66.4474 313.568 66.6202 311.497 66.9658ZM303.903 73.1871L303.73 73.3599C303.73 73.3599 303.73 73.1871 303.903 73.1871Z" fill="#FEFEFE"/>
<path d="M466.83 35.1679C459.926 36.032 453.022 37.2417 445.601 38.9698C432.139 42.0805 418.331 46.5737 404.351 52.4494C397.62 55.2144 391.234 58.3251 385.194 61.6086C378.98 64.8921 372.594 68.5212 365.863 73.0144C354.3 80.4454 342.736 89.259 330.654 99.8007C325.304 104.467 319.954 109.305 314.258 115.008C309.598 119.502 304.766 124.513 298.38 131.253C294.583 135.228 290.958 139.202 287.334 143.177C281.638 149.399 275.943 155.62 269.902 161.841C258.856 173.247 249.191 182.233 239.353 189.837L239.18 190.01L239.008 190.183C222.439 202.971 207.769 211.785 193.098 218.179H193.271C188.266 220.253 183.261 221.981 178.255 223.536C173.078 225.091 167.555 226.128 161.859 226.992C157.199 227.511 152.712 227.856 148.052 227.856H147.707C143.392 227.856 138.904 227.511 134.072 226.992C132.173 226.82 130.447 226.474 128.549 226.128C131.138 222.326 133.554 218.524 135.798 214.723C138.041 210.575 140.112 206.082 141.838 200.552C145.118 190.701 146.844 180.505 146.671 170.482C146.671 165.989 146.326 161.323 145.635 156.83C145.29 154.929 144.945 152.855 144.6 150.954C143.392 144.041 142.011 138.511 140.285 133.5C139.249 130.216 138.041 127.797 136.833 125.55C135.798 123.822 134.244 121.403 132.001 119.847C130.965 119.156 129.929 118.637 128.721 118.465C128.376 118.292 127.858 118.292 127.341 118.292C126.65 118.292 125.96 118.465 125.269 118.637C124.407 118.81 123.544 119.329 122.508 120.193C121.472 121.057 120.609 122.094 119.747 122.958C117.675 125.377 115.95 128.315 114.741 130.735C113.361 133.327 111.807 136.265 110.254 139.894C109.218 142.313 108.183 144.733 106.802 148.189L106.63 148.88C105.939 150.608 105.076 152.509 104.386 154.237C100.934 163.397 99.0355 172.556 98.6903 181.715C98.3451 191.393 100.071 200.552 103.523 209.02C99.3806 204.526 95.0658 200.033 90.2332 195.54C86.7814 192.257 83.157 189.146 79.5325 185.862C75.2177 182.061 71.9385 179.468 68.8318 177.049C64.6896 173.938 60.72 171.346 56.7503 169.272C52.4355 167.026 48.1207 165.47 43.9785 164.779C42.2526 164.433 40.5266 164.261 38.6281 164.261C38.2829 164.261 37.9378 164.261 37.5926 164.261C35.8667 164.261 34.3133 164.606 32.76 165.125C30.3437 165.989 28.4452 167.89 27.5822 170.136C26.8919 172.21 26.8919 174.629 27.4096 177.913C27.9274 181.024 28.963 183.961 29.9985 186.727C30.3437 187.591 30.6889 188.627 31.0341 189.492L31.5518 191.047C31.897 191.738 32.0696 192.602 32.4148 193.293C32.76 194.158 33.1052 195.022 33.2778 195.886C34.6585 199.688 36.3844 203.49 38.2829 206.946C40.1815 210.402 42.4252 213.513 44.6689 216.451C46.9126 219.216 49.5015 221.808 52.2629 224.227C57.2681 228.548 63.3088 232.177 70.2125 235.115C76.4259 237.707 83.3295 239.608 91.2688 241.163C98.1725 242.373 105.421 243.064 114.224 243.583C114.569 243.583 115.087 243.583 115.432 243.583H115.604C123.889 257.408 131.655 269.505 139.422 280.392C148.397 292.835 158.062 304.586 167.9 315.128C177.047 324.978 187.403 334.483 198.276 343.47C206.56 350.209 215.19 356.603 224.165 362.479C226.236 363.343 228.307 364.035 230.378 364.899C238.317 367.664 246.257 370.083 254.369 371.984C262.48 373.885 270.592 375.095 278.877 375.959C278.704 375.959 278.704 375.959 278.532 375.959C285.78 376.65 293.202 376.823 300.623 376.477C307.527 376.132 314.603 375.44 321.334 374.231C327.548 373.194 333.588 371.638 339.457 369.737C345.325 367.836 351.193 365.59 356.716 362.825C362.239 360.06 367.762 357.122 372.94 353.666C378.29 350.209 383.295 346.235 388.128 342.087C394.341 336.73 400.036 331.027 405.559 324.978C413.326 316.51 420.402 307.697 427.479 298.711C434.555 289.724 441.459 280.738 448.88 272.097C456.129 263.456 463.896 254.988 472.353 247.385C476.495 243.755 480.637 240.126 485.124 236.843C489.612 233.559 494.444 230.449 499.277 227.511C518.78 216.105 540.354 208.501 562.618 205.045C571.248 203.662 580.05 202.971 588.68 202.971C591.269 202.971 593.685 202.971 596.274 203.144C602.66 203.49 609.046 203.835 615.432 204.526C618.711 204.872 621.818 205.391 625.097 205.909C624.924 199.169 624.234 192.257 622.853 184.48C621.645 177.395 619.919 170.136 617.503 162.36C613.533 149.226 607.665 135.573 599.898 120.538C596.792 114.49 593.167 108.096 589.37 101.529C586.091 96.1716 582.639 90.8143 579.187 85.8027C571.766 75.0881 563.999 66.4474 555.715 59.1892C551.4 55.3873 546.913 51.931 541.907 48.8203C537.247 45.8824 531.897 43.2902 526.201 40.8708C515.156 36.3776 502.211 34.131 487.886 33.7854C487.023 33.7854 486.16 33.7854 485.297 33.7854C479.774 34.131 473.561 34.4767 466.83 35.1679Z" fill="#5DD2CE"/>
<path d="M585.746 195.713C584.02 195.713 582.121 195.713 580.05 195.886C577.461 196.059 574.873 196.231 572.284 196.404C564.344 197.268 556.578 198.651 548.811 200.725C544.669 201.761 540.872 202.971 537.247 204.181C533.45 205.391 529.653 206.773 525.856 208.328C516.364 211.957 507.216 216.278 498.414 221.289C493.927 223.882 489.785 226.301 485.988 228.721C482.19 231.14 478.566 233.732 475.114 236.152C472.008 238.571 469.246 240.645 466.657 242.891C463.551 245.484 460.789 248.249 458.2 251.014C455.439 253.779 452.85 256.717 450.434 259.654C447.845 262.592 445.428 265.53 443.012 268.641C440.596 271.579 438.352 274.516 436.108 277.8L432.484 282.639L430.931 284.713C429.032 287.305 427.134 289.897 425.062 292.489C421.956 296.637 418.159 301.648 414.189 306.487C410.22 311.153 406.422 315.646 402.453 319.794C398.138 324.287 393.996 328.262 389.854 332.064C385.366 336.211 380.879 339.84 376.391 343.124C371.559 346.753 367.071 349.864 362.584 352.629C357.406 355.739 352.228 358.504 347.223 360.924C341.873 363.343 336.523 365.59 331.517 367.145C328.411 368.182 325.477 369.046 322.715 369.737C319.781 370.429 316.847 371.12 314.086 371.638C307.527 372.848 301.486 373.712 295.791 374.231C291.649 374.576 287.506 374.749 283.537 374.749C281.12 374.749 279.222 374.749 277.496 374.576C271.455 374.231 265.76 373.712 260.409 372.675C254.369 371.638 248.673 370.256 242.978 368.528C237.282 366.8 231.759 364.726 226.409 362.306C223.129 360.924 219.85 359.196 216.398 357.64C220.713 360.751 225.546 364.035 230.723 367.318C252.988 381.143 276.806 391.858 301.486 398.943C324.096 405.51 347.568 408.794 371.041 408.794C373.112 408.794 375.011 408.794 377.082 408.794C402.798 408.102 428.687 403.263 453.713 394.277C465.794 389.957 478.048 384.427 490.475 377.687C500.83 371.984 511.186 365.935 521.196 359.369C531.725 352.456 542.08 345.025 551.745 337.075C562.101 328.78 571.593 319.967 580.05 310.808C589.025 301.303 596.792 291.452 603.35 281.256C610.081 270.715 615.432 259.827 619.229 248.594C621.3 242.719 622.853 236.324 623.889 229.585C625.097 222.499 625.615 215.068 625.442 207.291C625.442 206.255 625.442 205.218 625.27 204.181C624.752 204.008 624.407 203.835 624.061 203.662C620.437 202.107 616.985 200.897 613.706 200.033C611.807 199.515 609.909 198.996 608.356 198.651C606.457 198.305 604.731 197.959 602.833 197.614C597.655 196.923 592.65 196.404 587.817 196.404C587.127 195.713 586.436 195.713 585.746 195.713Z" fill="#EBFAF8"/>
<path d="M583.502 195.886C581.949 206.6 579.532 217.315 576.253 227.511C568.141 253.088 555.715 277.282 540.526 299.402C526.374 319.794 509.632 338.458 490.82 354.703C472.007 370.947 451.124 384.945 428.341 394.969C417.123 399.98 405.559 403.955 393.65 406.72C392.615 406.893 391.579 407.238 390.544 407.411C411.945 405.683 433.001 401.017 453.713 393.586C460.616 391.167 467.692 388.229 474.769 384.945C489.612 376.996 503.592 367.491 516.709 356.604L516.364 356.776C520.333 353.493 524.13 350.037 527.927 346.58C543.633 331.891 557.786 315.474 570.04 297.847C570.04 298.019 569.867 298.019 569.867 298.192C572.111 295.082 574.182 291.798 576.253 288.687C587.472 271.233 596.964 252.742 604.213 233.214C606.112 228.029 607.665 222.845 608.873 217.488C610.081 212.303 610.944 206.946 611.462 201.589C611.462 200.725 611.635 200.033 611.635 199.169C610.426 198.824 609.218 198.651 608.183 198.305C606.284 197.96 604.558 197.614 602.66 197.268C597.655 196.577 592.649 196.059 587.472 196.059C586.781 196.059 586.091 196.059 585.4 196.059C585.055 195.886 584.192 195.886 583.502 195.886Z" fill="#A8EEE4"/>
<path d="M612.843 211.957C611.808 217.833 610.254 223.709 608.356 229.412C606.63 234.423 604.731 239.435 602.66 244.446C600.762 249.112 598.518 253.779 596.274 258.445C586.954 277.454 575.736 295.6 562.619 312.363C549.502 329.299 534.486 345.025 517.917 358.85C514.12 361.961 510.151 365.071 506.181 368.009C511.186 365.071 516.191 361.961 521.024 358.677C531.552 351.765 541.908 344.333 551.573 336.384C561.928 328.089 571.421 319.275 579.878 310.116C588.68 300.611 596.619 290.761 603.178 280.738C609.909 270.196 615.259 259.309 619.056 248.076C621.128 242.2 622.681 235.806 623.716 229.066C624.925 221.981 625.442 214.55 625.27 206.773C625.27 205.736 625.27 204.699 625.097 203.662C624.752 203.489 624.234 203.317 623.889 203.144H624.062C620.782 201.761 617.503 200.552 614.224 199.515C614.051 203.835 613.533 207.81 612.843 211.957Z" fill="#A8EEE4"/>
<path d="M580.051 195.886C577.462 196.059 574.873 196.231 572.284 196.404C564.345 197.268 556.578 198.651 548.811 200.725C544.842 201.761 541.045 202.798 537.248 204.181C536.212 204.526 535.177 204.872 534.141 205.218C533.451 210.057 532.588 214.895 531.552 219.734C529.136 230.621 526.029 241.509 522.06 252.051C517.054 265.184 510.841 277.973 503.42 290.07C497.206 300.439 490.13 310.289 482.363 319.621C467.003 338.112 449.053 354.357 429.032 367.491C409.184 380.452 387.265 390.302 364.31 396.005C352.746 398.943 340.838 400.671 329.101 401.363C324.096 401.708 319.091 401.708 314.258 401.535C331.345 405.51 348.777 407.757 366.381 408.102C371.732 407.757 377.082 407.238 382.432 406.374C398.656 403.609 414.535 398.597 429.55 391.685C429.55 391.685 429.55 391.685 429.723 391.685C429.723 391.685 429.723 391.685 429.55 391.685C449.743 382.526 468.383 370.256 485.47 356.085H485.297C486.333 355.221 487.196 354.357 488.231 353.493C507.044 337.248 523.785 318.757 538.111 298.365C538.111 298.365 538.111 298.365 538.111 298.538C551.4 279.528 562.446 259.136 570.385 237.361C575.391 223.882 579.015 209.884 581.086 195.713C580.568 195.886 580.396 195.886 580.051 195.886ZM485.125 356.258C485.125 356.258 484.952 356.258 485.125 356.258C484.952 356.258 485.125 356.258 485.125 356.258ZM429.723 391.512C429.723 391.685 429.55 391.685 429.723 391.512C429.55 391.685 429.723 391.685 429.723 391.512Z" fill="#A8EEE4"/>
<path d="M525.857 208.156C516.537 211.785 507.217 216.105 498.414 221.117C496.171 222.326 493.754 223.709 491.511 225.091C491.511 225.264 491.511 225.264 491.511 225.437C488.059 238.744 483.054 251.532 477.013 263.802C470.8 276.245 463.551 288.169 455.439 299.575C447.327 310.808 438.525 321.349 428.687 331.027C423.854 335.693 419.022 340.359 413.844 344.679C408.666 349 403.316 352.974 397.793 356.776C386.92 364.035 375.183 370.083 362.929 374.749C350.848 379.415 338.249 382.699 325.477 384.6C312.532 386.501 299.415 387.019 286.471 385.982C279.912 385.464 273.354 384.6 266.795 383.39C263.689 382.871 260.755 382.18 257.648 381.489C271.801 388.401 286.644 393.932 301.659 398.425C317.192 399.807 332.898 399.116 348.432 396.697C365.863 393.759 382.95 388.574 399.174 381.143C399.001 381.143 399.001 381.316 398.829 381.316C416.951 373.021 434.037 362.134 449.398 349.345C449.398 349.345 449.398 349.345 449.226 349.518C465.794 335.693 480.292 319.621 492.719 301.994C492.719 301.994 492.719 301.994 492.719 301.821C492.719 301.821 492.719 301.648 492.891 301.648C498.242 293.872 503.247 285.749 507.734 277.454C512.567 268.295 516.882 258.79 520.506 249.113L520.679 248.767C520.679 248.767 520.679 248.767 520.679 248.94C523.958 240.126 526.547 231.14 528.618 222.154C529.826 216.969 530.862 211.612 531.552 206.255C529.481 206.773 527.582 207.464 525.857 208.156Z" fill="#A8EEE4"/>
<path d="M485.815 228.547C482.191 230.967 478.566 233.386 474.942 235.978C474.942 235.978 474.942 235.978 475.114 235.978C472.18 238.225 469.419 240.472 466.657 242.718C463.723 245.31 460.789 247.903 458.2 250.841C455.439 253.606 452.85 256.543 450.434 259.481C447.845 262.419 445.428 265.357 443.012 268.468C440.596 271.406 438.352 274.516 436.108 277.627C432.484 282.466 428.859 287.304 425.235 292.143C421.611 296.809 418.159 301.475 414.362 306.141C410.565 310.634 406.768 315.128 402.625 319.448C398.656 323.596 394.514 327.743 390.026 331.718C385.711 335.693 381.224 339.322 376.564 342.778C372.077 346.062 367.417 349.345 362.584 352.283C357.579 355.221 352.574 358.159 347.223 360.578C342.218 362.997 336.868 365.071 331.517 366.799C328.583 367.836 325.649 368.7 322.715 369.392C319.781 370.083 317.02 370.774 314.086 371.293C308.045 372.502 302.004 373.366 295.791 373.885C289.75 374.403 283.709 374.576 277.496 374.23C271.8 373.885 266.105 373.366 260.409 372.329C254.541 371.292 248.673 369.91 242.978 368.182C237.282 366.454 231.759 364.38 226.409 361.96C222.957 360.405 219.678 358.85 216.398 357.294C221.058 360.578 225.891 363.861 230.723 366.799C236.074 370.083 241.424 373.193 246.947 376.131C247.12 376.131 247.292 376.131 247.465 376.131C258.856 379.588 270.592 381.834 282.501 383.044C282.329 383.044 282.329 383.044 282.156 383.044C297.172 384.426 312.36 384.081 327.203 381.661C342.391 379.069 357.234 374.576 371.386 368.182C386.057 361.442 399.864 352.801 412.291 342.432C412.291 342.432 412.291 342.432 412.118 342.605C420.402 335.693 428.169 328.089 435.245 320.139C442.494 312.017 449.225 303.549 455.611 294.736C467.002 278.491 476.495 261.037 483.399 242.373C485.297 237.361 486.85 232.349 488.231 227.165C487.368 227.511 486.678 228.029 485.815 228.547ZM371.731 368.009C371.731 368.009 371.559 368.009 371.559 368.182C371.559 368.009 371.731 368.009 371.731 368.009Z" fill="#A8EEE4"/>
<path d="M220.713 360.06C220.368 359.714 219.85 359.541 219.505 359.196C223.13 361.788 226.927 364.207 230.896 366.799C236.247 370.083 241.77 373.366 247.12 376.131H247.292C247.465 376.131 247.465 376.131 247.638 376.131C256.44 378.724 265.587 380.797 274.907 382.18C277.496 382.526 280.085 382.871 282.674 383.044H282.501H282.674C288.197 383.563 293.892 383.908 299.588 383.908C309.081 383.908 318.401 383.217 327.721 381.662C340.147 379.588 352.229 376.304 363.965 371.638C351.883 371.12 339.802 369.91 327.893 368.009C326.685 368.355 325.477 368.7 324.269 369.046C323.923 369.219 323.406 369.219 323.06 369.392C320.126 370.083 317.192 370.774 314.431 371.293C307.872 372.502 301.832 373.366 296.136 373.885C291.821 374.231 287.679 374.403 283.882 374.403C281.638 374.403 279.74 374.403 277.841 374.231C271.801 373.885 266.105 373.366 260.755 372.33C257.13 371.638 253.678 370.947 250.227 370.083C247.81 369.565 245.567 368.873 243.323 368.182C242.115 367.836 240.907 367.491 239.698 366.972C236.419 365.935 233.312 364.726 230.206 363.343C228.998 362.825 227.962 362.479 226.754 361.961C225.028 361.269 223.302 360.405 221.576 359.541C220.023 358.85 218.47 357.986 216.916 357.295C218.124 358.159 219.505 359.196 220.713 360.06Z" fill="#91EEE2"/>
<path d="M375.701 371.638C373.802 371.638 371.904 371.638 370.005 371.638C367.762 372.675 365.345 373.712 362.929 374.576C350.848 379.242 338.248 382.526 325.477 384.427C316.847 385.636 308.217 386.328 299.588 386.328C295.273 386.328 290.958 386.155 286.471 385.809C279.912 385.291 273.181 384.427 266.795 383.217L265.76 383.044C263.516 382.698 261.272 382.18 259.201 381.662C258.856 381.489 258.338 381.489 257.993 381.316C269.557 387.019 281.811 391.858 294.065 395.832C296.654 396.696 299.243 397.388 301.831 398.252C307.182 398.77 312.705 398.943 318.228 398.943C328.411 398.943 338.594 398.079 348.604 396.524C365.863 393.759 382.95 388.401 399.346 380.97C407.631 377.168 415.915 372.675 424.027 367.664C407.803 370.429 391.752 371.811 375.701 371.638Z" fill="#91EEE2"/>
<path d="M471.49 355.739C464.414 357.986 457.337 360.232 450.261 361.961C443.703 363.689 436.972 365.244 430.24 366.454L429.032 367.145C408.494 380.625 386.747 390.129 364.31 395.659C352.574 398.597 340.665 400.326 329.101 401.017C325.477 401.19 321.852 401.362 318.401 401.362C317.192 401.362 315.984 401.362 314.776 401.362C314.604 401.362 314.431 401.362 314.258 401.362C331.172 405.337 348.777 407.584 366.209 407.929C371.386 407.584 376.909 407.065 382.26 406.201C397.966 403.609 413.844 398.597 429.377 391.512C448.535 382.698 467.348 370.774 485.125 355.912C485.988 355.221 487.023 354.357 488.059 353.493C490.82 351.073 493.582 348.654 496.343 346.062C488.231 349.691 479.947 352.974 471.49 355.739Z" fill="#91EEE2"/>
<path d="M546.568 318.239C535.177 326.188 523.268 333.446 510.841 339.668C508.425 340.877 506.009 342.087 503.42 343.124C503.42 343.124 503.42 343.124 503.592 343.124C499.45 347.271 495.135 351.073 490.993 354.702C471.145 371.811 450.089 385.464 428.515 394.968C416.778 400.153 405.215 404.128 393.824 406.72L393.133 406.893C392.443 407.065 391.58 407.238 390.89 407.411C391.753 407.411 392.616 407.238 393.651 407.238C397.793 406.893 401.763 406.374 405.733 405.856H406.078C422.129 403.609 438.18 399.462 454.058 393.759C460.962 391.339 468.038 388.401 475.115 385.118C486.333 379.242 497.552 371.984 508.425 363.689C511.186 361.442 514.121 359.196 516.882 356.949L516.709 357.122C520.334 354.184 524.303 350.728 528.273 347.099C542.598 333.792 555.888 318.757 567.624 302.34C560.721 307.697 553.644 313.054 546.568 318.239Z" fill="#91EEE2"/>
<path d="M604.904 261.382C596.619 272.269 587.644 282.638 577.807 292.143C577.116 292.834 576.426 293.526 575.735 294.044C575.735 294.044 575.735 294.044 575.735 294.217C575.735 294.217 575.735 294.217 575.908 294.044C571.766 300.265 567.451 306.314 562.964 312.017C549.501 329.471 534.486 345.025 518.262 358.504C515.156 361.096 511.876 363.689 508.77 365.935C508.079 366.454 507.389 366.972 506.698 367.49C511.358 364.725 516.191 361.788 521.369 358.331C531.897 351.419 542.253 343.988 551.918 336.038C562.273 327.743 571.766 318.929 580.223 309.77C589.198 300.265 596.964 290.415 603.523 280.392C610.254 269.85 615.604 258.963 619.401 247.73L619.746 246.866L620.092 245.829C621.3 242.2 622.335 238.225 623.198 234.077C617.503 243.755 611.462 252.914 604.904 261.382Z" fill="#91EEE2"/>
<path d="M27.7552 170.482C27.0648 172.556 27.0648 174.975 27.5826 178.259C28.1003 181.369 29.1359 184.48 30.1715 187.072C30.5166 187.936 30.6892 188.627 31.0344 189.492L31.207 189.837L31.7248 191.392C31.8974 191.911 32.07 192.429 32.2426 193.121L32.4152 193.639C32.7603 194.503 33.1055 195.367 33.2781 196.231C34.6589 200.033 36.3848 203.835 38.4559 207.291C40.3544 210.575 42.4255 213.858 44.8418 216.796C47.0855 219.561 49.6744 222.154 52.4359 224.573C57.4411 228.893 63.4818 232.522 70.3855 235.46C76.5988 238.052 83.5025 239.953 91.4417 241.509C98.3454 242.718 105.594 243.41 114.397 243.928C114.742 243.928 115.259 243.928 115.605 243.928H115.777C124.062 257.753 131.828 269.678 139.595 280.738C148.57 293.18 158.235 304.932 168.073 315.474C177.393 325.324 187.576 334.829 198.449 343.815C204.145 348.481 210.185 353.147 216.399 357.468C219.85 359.196 223.302 360.751 226.409 362.134C231.759 364.38 237.282 366.454 242.978 368.355C248.501 370.083 254.369 371.466 260.41 372.502C265.76 373.366 271.628 374.058 277.496 374.403C279.395 374.576 281.293 374.576 283.537 374.576C287.334 374.576 291.476 374.403 295.791 374.058C301.487 373.539 307.355 372.848 314.086 371.466C316.847 370.947 319.781 370.256 322.716 369.565C324.269 369.219 325.822 368.7 327.548 368.182C326.858 368.009 326.167 368.009 325.304 367.836C308.563 364.899 291.994 360.751 275.77 355.221C259.719 349.691 244.186 343.124 229.17 335.174C221.576 331.2 213.982 326.879 206.733 322.386C199.312 317.72 192.236 313.054 185.159 307.87C178.428 302.858 171.697 297.501 165.484 291.798C159.271 286.095 153.23 280.046 147.534 273.652C141.839 267.258 136.316 260.518 131.138 253.779C129.585 251.878 128.204 249.804 126.823 247.903C125.788 246.52 124.752 244.965 123.717 243.583C122.336 241.682 120.782 239.781 118.884 238.225C118.366 237.88 117.848 237.361 117.158 237.016C116.64 236.67 115.95 236.324 115.432 236.152C113.188 235.287 110.772 234.596 108.356 234.251C105.767 233.732 103.178 233.214 100.589 232.695C95.584 231.486 90.5788 230.276 85.7462 228.548C80.741 226.82 75.7358 224.919 70.9033 222.672C66.2433 220.425 61.7559 218.006 57.441 215.068C53.1262 212.13 49.1566 208.847 45.5322 205.218C42.2529 201.761 39.1463 197.959 36.5574 193.812C34.1411 188.627 32.07 183.961 30.6892 178.95C29.9989 176.358 29.4811 173.765 29.1359 171.173C28.9633 170.309 28.9633 169.445 28.7907 168.581C28.4455 169.099 28.1003 169.618 27.7552 170.482Z" fill="#4ABBB6"/>
<path d="M118.884 237.706C118.884 237.534 118.712 237.534 118.884 237.706C118.712 237.534 118.884 237.534 118.884 237.706Z" fill="#4ABBB6"/>
<path d="M332.898 272.097C331.518 272.097 329.964 272.27 328.583 272.442C326.167 272.788 323.923 273.479 321.852 274.343C320.817 274.862 319.954 275.38 318.746 276.072C317.71 276.763 316.847 277.627 315.984 278.491C315.639 278.837 315.639 279.355 315.639 279.701C314.603 281.256 313.568 282.639 312.532 283.675C309.426 287.132 305.974 290.415 302.695 293.526L300.623 295.6C296.136 299.92 291.821 304.068 288.024 308.734C285.263 312.017 281.984 316.683 281.121 321.695C280.775 323.768 280.948 326.015 281.811 327.916C282.674 329.817 284.227 331.718 286.471 333.273C287.679 334.137 289.232 335.001 290.441 335.52C291.821 336.211 293.375 336.902 295.273 337.421C299.415 338.803 303.903 339.667 308.563 340.013C310.289 340.186 312.015 340.186 313.74 340.186C316.502 340.186 319.436 340.013 322.37 339.667C326.858 339.149 331.345 338.112 335.832 336.73C344.807 333.965 353.092 329.644 360.168 324.114C363.965 321.176 367.244 317.893 369.488 314.264C372.077 310.289 373.457 306.141 373.63 301.994C373.803 297.673 372.422 293.353 369.66 289.551C368.107 287.305 366.036 285.231 363.102 282.984C360.513 281.083 357.579 279.182 353.955 277.454C350.675 275.899 347.223 274.516 343.599 273.652C340.147 272.615 336.523 272.097 332.898 272.097Z" fill="#5DD2CE"/>
<path d="M366.036 317.547C362.411 319.794 358.442 321.695 354.3 323.25C352.228 324.114 349.985 324.805 347.914 325.497C345.325 326.188 342.908 327.052 340.32 327.57C335.314 328.78 330.137 329.817 324.959 330.508C319.781 331.027 314.603 331.2 309.426 330.681C308.045 330.508 306.664 330.336 305.283 330.163C304.075 329.99 303.04 329.817 301.832 329.471C300.451 329.126 299.07 328.78 297.862 328.262C296.309 327.743 294.755 327.052 293.374 326.361C291.994 325.67 290.44 324.805 289.232 323.769C288.024 322.904 286.816 321.868 285.78 320.658C285.263 320.139 284.745 319.448 284.4 318.757C284.055 318.238 283.709 317.547 283.537 316.856C283.364 316.51 283.364 316.165 283.192 315.819C282.329 317.547 281.638 319.448 281.293 321.522C280.948 323.596 281.12 325.669 281.983 327.743C282.846 329.644 284.4 331.545 286.643 333.101C287.852 333.965 289.405 334.829 290.613 335.347C291.994 336.038 293.547 336.73 295.446 337.248C299.588 338.631 304.075 339.495 308.735 339.84C310.461 340.013 312.187 340.013 313.913 340.013C316.674 340.013 319.609 339.84 322.543 339.495C327.03 338.976 331.517 337.939 336.005 336.557C344.98 333.792 353.264 329.471 360.34 323.941C363.792 321.349 366.726 318.238 368.97 315.128C368.107 316.165 367.071 316.856 366.036 317.547Z" fill="#4ABBB6"/>
<path d="M313.74 281.429C312.532 282.984 311.151 284.539 309.771 285.922C308.39 287.477 306.837 288.86 305.283 290.242C302.177 293.18 298.897 295.945 295.791 298.71C292.684 301.648 289.577 304.586 286.989 307.869C285.78 309.425 284.572 311.153 283.537 312.881C283.019 313.745 282.501 314.609 282.156 315.473C281.638 316.51 281.12 317.547 280.775 318.584C280.43 319.621 280.257 320.485 280.085 321.522C279.912 322.559 280.085 323.596 280.085 324.46C280.257 325.324 280.43 326.188 280.775 327.052C281.12 327.916 281.466 328.607 281.983 329.471C284.054 332.755 287.334 335.001 290.613 336.729C294.755 338.803 299.07 339.84 303.557 340.704C306.146 341.223 308.908 341.395 311.669 341.395C314.431 341.395 317.02 341.223 319.781 341.05C322.37 340.704 324.959 340.359 327.375 339.84C329.964 339.322 332.553 338.63 334.969 337.939C339.284 336.557 343.599 335.001 347.741 332.928C351.883 331.027 355.68 328.607 359.305 325.842C363.102 323.077 366.554 319.966 369.66 316.337C369.833 316.165 369.833 315.992 369.66 315.646C369.488 315.473 369.143 315.473 368.97 315.646C366.208 318.757 363.274 321.522 359.823 323.941C354.472 327.57 348.604 330.508 342.563 332.755C342.563 332.755 342.563 332.755 342.736 332.755H342.563H342.391C342.391 332.755 342.391 332.755 342.563 332.755C339.284 333.964 336.005 335.001 332.553 335.865C328.411 336.902 324.441 337.766 320.126 338.285C317.71 338.458 315.121 338.63 312.705 338.458C310.289 338.458 307.7 338.112 305.283 337.766H305.456H305.283H305.111C305.111 337.766 305.111 337.766 305.283 337.766C302.867 337.421 300.451 336.729 298.034 336.038C296.481 335.52 294.755 335.001 293.202 334.31C291.131 333.446 289.232 332.236 287.506 330.854C286.471 329.99 285.608 329.126 284.745 328.089C284.227 327.397 283.882 326.533 283.537 325.669C283.364 324.978 283.192 324.287 283.019 323.423C283.019 322.559 283.019 321.867 283.019 321.003C283.192 319.621 283.709 318.411 284.227 317.029C285.608 314.091 287.334 311.326 289.405 308.906C293.374 304.24 297.862 300.266 302.349 296.118C304.593 294.044 306.837 291.97 308.908 289.724C310.979 287.477 313.05 285.231 314.776 282.811C315.121 282.466 314.949 281.947 314.603 281.602C314.431 281.429 314.086 281.256 313.913 281.256C314.086 281.083 313.74 281.256 313.74 281.429ZM289.923 308.906L289.75 309.079L289.923 308.906ZM284.745 317.029C284.572 317.029 284.572 317.201 284.745 317.029C284.572 317.201 284.572 317.029 284.745 317.029ZM293.374 334.137C293.547 334.137 293.72 334.31 293.72 334.31C293.72 334.31 293.547 334.31 293.374 334.137Z" fill="#119C97"/>
<path d="M363.447 112.243C368.107 117.773 379.498 116.045 388.818 108.096C398.138 100.319 401.935 89.4315 397.275 83.7286C392.615 78.1986 381.224 79.9267 371.904 87.8762C362.584 95.8257 358.787 106.713 363.447 112.243Z" fill="#A8EEE4"/>
<path d="M329.101 132.808C331.862 135.573 337.903 134.018 342.39 129.352C347.05 124.686 348.431 118.81 345.67 116.045C342.908 113.28 336.868 114.835 332.38 119.501C327.893 123.995 326.339 130.043 329.101 132.808Z" fill="#A8EEE4"/>
<path d="M445.428 68.1757C446.119 71.632 452.332 73.3601 459.408 72.1504C466.485 70.9407 471.835 67.1388 471.317 63.6825C470.627 60.2262 464.414 58.498 457.337 59.7078C450.261 60.9175 444.911 64.7194 445.428 68.1757Z" fill="#A8EEE4"/>
<path d="M411.946 72.4956C413.499 75.4334 417.814 75.9519 421.611 73.8781C425.408 71.8043 427.306 67.8296 425.753 64.8917C424.2 61.9539 419.885 61.4354 416.088 63.5092C412.291 65.583 410.392 69.5577 411.946 72.4956Z" fill="#A8EEE4"/>
<path d="M293.547 178.086C295.791 180.332 300.278 179.641 303.212 176.53C306.319 173.42 306.837 169.099 304.593 166.853C302.35 164.606 297.862 165.297 294.928 168.408C291.821 171.346 291.131 175.839 293.547 178.086Z" fill="#A8EEE4"/>
<path d="M314.431 150.089C315.466 151.126 317.538 150.781 318.918 149.398C320.299 148.016 320.644 145.942 319.609 144.905C318.573 143.868 316.502 144.214 315.121 145.596C313.74 146.979 313.395 149.053 314.431 150.089Z" fill="#A8EEE4"/>
<path d="M359.65 137.301C360.686 138.338 362.757 137.993 364.137 136.61C365.518 135.227 365.863 133.154 364.828 132.117C363.792 131.08 361.721 131.426 360.34 132.808C358.787 134.363 358.614 136.264 359.65 137.301Z" fill="#A8EEE4"/>
<path d="M414.189 90.2957C414.707 91.5054 416.433 91.851 417.986 90.9869C419.539 90.2957 420.402 88.7403 419.885 87.5306C419.367 86.3209 417.641 85.9753 416.088 86.8394C414.534 87.7034 413.671 89.086 414.189 90.2957Z" fill="#A8EEE4"/>
<path d="M438.007 220.252C442.495 220.252 446.119 214.031 446.292 206.082C446.464 198.132 442.84 191.738 438.353 191.738C433.865 191.738 430.241 197.959 430.068 205.909C429.896 213.686 433.52 220.08 438.007 220.252Z" fill="#197967"/>
<path d="M598.863 172.901C602.66 170.655 602.66 163.224 598.518 156.484C594.548 149.744 588.162 146.115 584.193 148.362C580.396 150.608 580.396 158.039 584.538 164.779C588.68 171.519 595.066 175.148 598.863 172.901Z" fill="#197967"/>
<path d="M442.322 202.625C440.941 202.971 438.87 201.415 438.007 199.169C436.971 196.922 437.316 194.676 438.87 194.33C440.251 193.984 442.322 195.54 443.185 197.786C444.048 200.033 443.702 202.28 442.322 202.625Z" fill="#FEFEFE"/>
<path d="M442.667 206.427C441.804 206.427 440.941 205.909 440.941 205.045C440.941 204.181 441.459 203.49 442.322 203.49C443.185 203.49 444.048 204.008 444.048 204.872C444.22 205.563 443.53 206.255 442.667 206.427Z" fill="#FEFEFE"/>
<path d="M594.203 156.484C593.167 157.521 590.579 157.002 588.68 155.274C586.782 153.546 586.091 151.472 587.127 150.608C588.162 149.571 590.751 150.09 592.65 151.818C594.548 153.373 595.239 155.447 594.203 156.484Z" fill="#FEFEFE"/>
<path d="M596.102 159.595C595.411 160.113 594.376 159.94 594.031 159.249C593.513 158.558 593.858 157.694 594.548 157.175C595.239 156.657 596.274 156.829 596.619 157.521C597.137 158.212 596.792 159.076 596.102 159.595Z" fill="#FEFEFE"/>
<path d="M519.471 164.606C518.78 164.779 518.262 165.47 518.435 166.161C518.78 167.717 518.953 169.272 519.125 170.827V170.655C519.125 170.827 519.125 170.827 519.125 171C519.298 172.556 519.125 174.111 518.953 175.494C518.78 176.53 518.435 177.567 517.917 178.604C517.572 179.468 517.054 180.159 516.536 180.851C516.019 181.542 515.328 182.06 514.638 182.579C513.948 183.097 513.085 183.616 512.222 183.961C511.359 184.307 510.323 184.48 509.288 184.653C508.252 184.653 507.216 184.653 506.181 184.48C505.145 184.307 504.11 183.961 503.074 183.443C502.039 182.925 501.176 182.233 500.14 181.542C499.105 180.678 498.242 179.814 497.551 178.777C496.688 177.567 495.998 176.358 495.48 174.975C495.135 174.284 494.272 174.111 493.754 174.457C493.409 174.629 493.236 174.802 493.064 175.148C492.891 175.493 493.064 175.839 493.064 176.185C493.754 177.74 494.617 179.295 495.653 180.678C496.516 181.888 497.724 183.097 498.932 183.961C501.176 185.69 503.765 186.726 506.526 187.072C509.115 187.418 511.704 186.899 514.12 185.69C516.536 184.48 518.435 182.579 519.643 180.159C520.679 178.259 521.196 176.185 521.369 174.111C521.714 171.173 521.196 168.408 520.506 165.47C520.333 164.952 519.816 164.433 519.298 164.433C519.643 164.606 519.643 164.606 519.471 164.606ZM497.551 178.259C497.551 178.431 497.724 178.431 497.551 178.259C497.724 178.431 497.551 178.431 497.551 178.259ZM503.247 183.27C503.247 183.27 503.419 183.27 503.419 183.443C503.419 183.443 503.419 183.27 503.247 183.27Z" fill="#197967"/>
<path d="M541.562 154.583C541.217 154.583 540.872 154.929 540.699 155.101C540.526 155.274 540.354 155.793 540.526 156.138C540.872 157.175 541.217 158.039 541.389 159.076C541.562 159.94 541.735 160.804 541.735 161.668C541.735 162.878 541.735 164.261 541.562 165.47C541.389 166.507 541.044 167.371 540.699 168.235C540.354 169.099 539.836 169.791 539.146 170.655C538.628 171.346 537.938 171.864 537.247 172.383C536.557 172.901 535.867 173.247 535.004 173.593C534.313 173.765 533.45 173.938 532.587 174.111C531.724 174.111 531.034 174.111 530.171 173.938C529.308 173.765 528.618 173.42 527.755 173.074C526.892 172.556 526.029 172.037 525.338 171.519C524.475 170.655 523.612 169.791 522.922 168.754C522.232 167.717 521.541 166.68 521.024 165.47C520.678 164.779 519.815 164.606 519.298 164.952C518.607 165.297 518.435 165.989 518.78 166.68C520.161 169.791 522.232 172.728 525.166 174.629C526.374 175.321 527.582 176.012 528.963 176.358C529.653 176.53 530.344 176.703 531.034 176.703C531.724 176.703 532.415 176.703 533.105 176.703C535.694 176.53 538.11 175.148 540.009 173.42C541.044 172.556 541.735 171.346 542.425 170.136C542.77 169.445 543.115 168.754 543.288 168.235C543.633 167.544 543.806 166.68 543.806 165.816C544.151 164.261 543.978 162.705 543.978 161.323C543.806 159.422 543.288 157.694 542.598 155.793C542.425 155.447 542.425 155.101 542.08 154.929C541.907 154.756 541.562 154.756 541.389 154.756C541.735 154.583 541.735 154.583 541.562 154.583ZM525.684 171.692L525.856 171.864C525.856 171.692 525.684 171.692 525.684 171.692ZM528.1 173.247C528.1 173.247 528.272 173.247 528.1 173.247C528.272 173.247 528.1 173.247 528.1 173.247ZM535.521 173.42H535.349C535.349 173.593 535.521 173.42 535.521 173.42Z" fill="#197967"/>
<path d="M485.297 37.76C483.571 37.76 481.673 37.76 479.774 37.9328C478.911 37.9328 478.221 37.9328 477.358 38.1056C472.008 38.4513 466.312 39.1425 460.271 40.1794C454.058 41.3891 447.672 42.7716 441.114 44.8454C429.032 48.4745 416.605 53.3133 404.351 59.5347C398.483 62.4725 392.615 65.756 387.437 68.8667C381.914 72.1502 376.391 75.9521 370.523 80.2725C366.208 83.5559 361.721 87.0122 357.406 90.8142C360.686 88.7404 363.792 86.6666 366.726 84.9385C373.285 80.9637 380.188 77.5074 387.265 74.2239C390.889 72.4958 394.686 70.9405 398.311 69.5579C400.382 68.6939 402.453 68.0026 404.524 67.1385C406.423 66.4473 408.494 65.5832 410.392 64.8919C420.057 61.4356 427.824 58.8434 435.073 56.9425C444.393 54.3502 452.85 52.6221 460.962 51.5852C464.241 51.2396 467.175 50.8939 469.936 50.7211C472.698 50.5483 475.287 50.5483 477.876 50.5483C480.637 50.5483 483.226 50.7211 485.988 50.8939C493.409 51.4124 500.658 52.6221 507.562 54.523C514.81 56.5968 521.714 59.189 528.1 62.4725C534.659 65.9288 540.872 69.9036 546.395 74.3968C548.984 76.4705 551.918 79.0628 554.852 81.8278C557.786 84.5928 560.72 87.5307 563.309 90.4685C568.659 96.3442 573.837 102.738 578.67 109.478C583.33 115.872 587.644 122.612 591.787 129.698C594.203 133.672 596.101 137.129 597.827 140.412C599.899 144.214 601.624 148.016 603.35 151.645C606.802 159.249 609.736 167.026 611.98 174.629C612.498 176.185 612.843 177.913 613.361 179.468C612.843 175.666 612.153 171.692 611.117 167.198C609.564 160.804 607.493 154.41 604.904 147.325C600.416 135.573 594.376 123.476 586.609 110.342C583.502 104.985 579.878 99.4549 575.908 93.752C572.629 89.086 569.177 84.42 565.725 80.0996C558.304 70.7676 550.882 63.3366 542.943 57.1153C538.973 54.0046 534.486 51.0668 529.826 48.4745C525.339 46.0551 520.506 43.9813 515.156 42.2532C506.181 39.3153 496.171 37.76 485.297 37.76Z" fill="#4ABBB6"/>
<path d="M132.519 134.537C132.001 134.709 131.656 135.055 131.311 135.401C130.966 135.919 130.966 136.437 131.138 136.956C131.656 139.375 132.174 141.622 132.519 143.869C133.037 146.288 133.382 148.707 133.727 151.127C133.727 150.954 133.727 150.954 133.727 150.781C134.417 156.138 134.935 161.323 134.935 166.68C134.935 169.272 134.763 172.037 134.763 174.63C134.59 177.395 134.245 180.16 133.9 182.925V182.579C133.554 184.998 133.209 187.245 132.692 189.664C132.174 192.084 131.656 194.503 130.966 196.923C129.585 201.761 128.032 206.6 126.133 211.266C125.615 212.303 125.27 213.513 124.752 214.55C124.58 214.723 124.752 215.068 124.925 215.241C125.097 215.414 125.443 215.241 125.615 215.068C127.859 210.229 129.93 205.391 131.656 200.379C133.382 195.54 134.935 190.529 135.971 185.344C137.006 180.332 137.869 175.148 138.387 169.964C138.905 164.779 138.905 159.595 138.56 154.41C138.387 151.3 138.042 148.189 137.524 145.078C137.006 141.968 136.316 138.684 135.453 135.573C135.108 134.709 134.417 134.018 133.554 134.018C132.864 134.364 132.692 134.364 132.519 134.537Z" fill="#4ABBB6"/>
<path d="M125.96 147.498C125.269 147.67 124.924 148.362 125.097 149.053C125.615 151.127 125.96 153.2 126.305 155.274C126.995 161.323 126.823 167.544 125.96 173.593C125.615 175.666 125.269 177.913 124.924 179.987C124.924 180.332 125.097 180.678 125.442 180.851C125.787 181.024 126.132 180.678 126.305 180.332C127.341 175.148 128.204 169.963 128.549 164.606C128.721 161.841 128.894 159.249 128.721 156.484C128.721 155.101 128.549 153.892 128.376 152.509C128.204 151.127 128.031 149.744 127.686 148.362C127.513 147.843 126.995 147.325 126.478 147.325C126.132 147.325 125.96 147.498 125.96 147.498ZM126.132 154.929V155.101C126.132 155.101 126.132 155.101 126.132 154.929Z" fill="#4ABBB6"/>
<path d="M41.39 172.21C40.8722 172.383 40.527 172.728 40.1818 173.074C39.8366 173.592 39.8366 174.111 40.0092 174.629C40.1818 175.321 40.6996 175.839 41.39 176.012C43.1159 176.53 44.6692 177.222 46.2226 177.913C48.6389 178.95 51.0551 180.159 53.2988 181.369C55.7151 182.579 57.9588 183.961 60.2025 185.344C62.4462 186.726 64.6899 188.109 66.9336 189.664C69.1773 191.22 71.421 192.775 73.4922 194.503L73.3196 194.33C76.5988 196.75 79.7055 199.342 82.6395 202.107C85.7462 204.872 88.8529 207.637 91.9595 210.402C92.1321 210.575 92.4773 210.575 92.6499 210.402C92.8225 210.229 92.8225 209.884 92.6499 209.711C89.0255 206.254 85.401 202.971 81.7766 199.688C78.1521 196.404 74.3551 193.121 70.5581 190.01C66.7611 186.899 62.7914 183.961 58.8218 181.196C54.6796 178.431 50.3648 176.012 46.05 173.938C45.0144 173.42 43.9789 172.901 42.7707 172.383C42.7707 172.383 42.5981 172.383 42.4255 172.21C42.2529 172.21 42.0803 172.21 41.9078 172.21C41.7352 172.21 41.5626 172.21 41.39 172.21Z" fill="#4ABBB6"/>
</g>
<defs>
<filter id="filter0_d_2_584" x="0.639652" y="0" width="631.216" height="417.721" filterUnits="userSpaceOnUse" color-interpolation-filters="sRGB">
<feFlood flood-opacity="0" result="BackgroundImageFix"/>
<feColorMatrix in="SourceAlpha" type="matrix" values="0 0 0 0 0 0 0 0 0 0 0 0 0 0 0 0 0 0 127 0" result="hardAlpha"/>
<feOffset dy="4.36035"/>
<feGaussianBlur stdDeviation="2.18017"/>
<feComposite in2="hardAlpha" operator="out"/>
<feColorMatrix type="matrix" values="0 0 0 0 0 0 0 0 0 0 0 0 0 0 0 0 0 0 0.25 0"/>
<feBlend mode="normal" in2="BackgroundImageFix" result="effect1_dropShadow_2_584"/>
<feBlend mode="normal" in="SourceGraphic" in2="effect1_dropShadow_2_584" result="shape"/>
</filter>
<filter id="filter1_d_2_584" x="23.0458" y="15.1213" width="606.761" height="401.537" filterUnits="userSpaceOnUse" color-interpolation-filters="sRGB">
<feFlood flood-opacity="0" result="BackgroundImageFix"/>
<feColorMatrix in="SourceAlpha" type="matrix" values="0 0 0 0 0 0 0 0 0 0 0 0 0 0 0 0 0 0 127 0" result="hardAlpha"/>
<feOffset dy="4.19141"/>
<feGaussianBlur stdDeviation="2.09571"/>
<feComposite in2="hardAlpha" operator="out"/>
<feColorMatrix type="matrix" values="0 0 0 0 0 0 0 0 0 0 0 0 0 0 0 0 0 0 0.25 0"/>
<feBlend mode="normal" in2="BackgroundImageFix" result="effect1_dropShadow_2_584"/>
<feBlend mode="normal" in="SourceGraphic" in2="effect1_dropShadow_2_584" result="shape"/>
</filter>
<clipPath id="clip0_2_584">
<rect width="622.496" height="409" fill="white" transform="translate(5)"/>
</clipPath>
<clipPath id="clip1_2_584">
<rect width="598.378" height="393.154" fill="white" transform="translate(27.2372 15.1213)"/>
</clipPath>
</defs>
</svg>
